<?xml version="1.0" encoding="UTF-8" standalone="no"?><svg xmlns="http://www.w3.org/2000/svg" xmlns:xlink="http://www.w3.org/1999/xlink" clip-rule="evenodd" stroke-miterlimit="10" viewBox="0 0 647 66"><desc>SVG generated by Keynote</desc><defs></defs><g transform="matrix(1.00, 0.00, -0.00, -1.00, 0.0, 66.0)"><text xml:space="preserve" font-family="HelveticaNeue-Light,Helvetica Neue" font-size="70.0" fill="#000000" transform="matrix(1.00, 0.00, -0.00, -1.00, -4.0, 14.9)">F</text><text xml:space="preserve" font-family="HelveticaNeue-Light,Helvetica Neue" font-size="70.0" fill="#000000" transform="matrix(1.00, 0.00, -0.00, -1.00, 33.6, 14.9)">r</text><text xml:space="preserve" font-family="HelveticaNeue-Light,Helvetica Neue" font-size="70.0" fill="#000000" transform="matrix(1.00, 0.00, -0.00, -1.00, 54.4, 14.9)">o</text><text xml:space="preserve" font-family="HelveticaNeue-Light,Helvetica Neue" font-size="70.0" fill="#000000" transform="matrix(1.00, 0.00, -0.00, -1.00, 93.3, 14.9)">m</text><text xml:space="preserve" font-family="HelveticaNeue-Light,Helvetica Neue" font-size="70.0" fill="#000000" transform="matrix(1.00, 0.00, -0.00, -1.00, 151.6, 14.9)"> </text><text xml:space="preserve" font-family="HelveticaNeue-Light,Helvetica Neue" font-size="70.0" fill="#000000" transform="matrix(1.00, 0.00, -0.00, -1.00, 171.1, 14.9)">H</text><text xml:space="preserve" font-family="HelveticaNeue-Light,Helvetica Neue" font-size="70.0" fill="#000000" transform="matrix(1.00, 0.00, -0.00, -1.00, 220.4, 14.9)">a</text><text xml:space="preserve" font-family="HelveticaNeue-Light,Helvetica Neue" font-size="70.0" fill="#000000" transform="matrix(1.00, 0.00, -0.00, -1.00, 256.7, 14.9)">c</text><text xml:space="preserve" font-family="HelveticaNeue-Light,Helvetica Neue" font-size="70.0" fill="#000000" transform="matrix(1.00, 0.00, -0.00, -1.00, 293.0, 14.9)">k</text><text xml:space="preserve" font-family="HelveticaNeue-Light,Helvetica Neue" font-size="70.0" fill="#000000" transform="matrix(1.00, 0.00, -0.00, -1.00, 328.0, 14.9)">e</text><text xml:space="preserve" font-family="HelveticaNeue-Light,Helvetica Neue" font-size="70.0" fill="#000000" transform="matrix(1.00, 0.00, -0.00, -1.00, 364.3, 14.9)">r</text><text xml:space="preserve" font-family="HelveticaNeue-Light,Helvetica Neue" font-size="70.0" fill="#000000" transform="matrix(1.00, 0.00, -0.00, -1.00, 386.4, 14.9)">s</text><text xml:space="preserve" font-family="HelveticaNeue-Light,Helvetica Neue" font-size="70.0" fill="#000000" transform="matrix(1.00, 0.00, -0.00, -1.00, 420.1, 14.9)">p</text><text xml:space="preserve" font-family="HelveticaNeue-Light,Helvetica Neue" font-size="70.0" fill="#000000" transform="matrix(1.00, 0.00, -0.00, -1.00, 460.2, 14.9)">a</text><text xml:space="preserve" font-family="HelveticaNeue-Light,Helvetica Neue" font-size="70.0" fill="#000000" transform="matrix(1.00, 0.00, -0.00, -1.00, 496.6, 14.9)">c</text><text xml:space="preserve" font-family="HelveticaNeue-Light,Helvetica Neue" font-size="70.0" fill="#000000" transform="matrix(1.00, 0.00, -0.00, -1.00, 532.9, 14.9)">e</text><text xml:space="preserve" font-family="HelveticaNeue-Light,Helvetica Neue" font-size="70.0" fill="#000000" transform="matrix(1.00, 0.00, -0.00, -1.00, 569.2, 14.9)"> </text><text xml:space="preserve" font-family="HelveticaNeue-Light,Helvetica Neue" font-size="70.0" fill="#000000" transform="matrix(1.00, 0.00, -0.00, -1.00, 588.7, 14.9)">t</text><text xml:space="preserve" font-family="HelveticaNeue-Light,Helvetica Neue" font-size="70.0" fill="#000000" transform="matrix(1.00, 0.00, -0.00, -1.00, 609.4, 14.9)">o</text></g></svg>