<?xml version="1.0" encoding="UTF-8" standalone="no"?><svg xmlns="http://www.w3.org/2000/svg" xmlns:xlink="http://www.w3.org/1999/xlink" clip-rule="evenodd" stroke-miterlimit="10" viewBox="0 0 360 28"><desc>SVG generated by Keynote</desc><defs></defs><g transform="matrix(1.00, 0.00, -0.00, -1.00, 0.0, 28.0)"><text xml:space="preserve" font-family="HelveticaNeue,Helvetica Neue" font-size="19.1" fill="#747373" transform="matrix(1.00, 0.00, -0.00, -1.00, 0.0, 9.0)">•</text><text xml:space="preserve" font-family="HelveticaNeue,Helvetica Neue" font-size="25.5" fill="#747373" transform="matrix(1.00, 0.00, -0.00, -1.00, 25.5, 6.9)">M</text><text xml:space="preserve" font-family="HelveticaNeue,Helvetica Neue" font-size="25.5" fill="#747373" transform="matrix(1.00, 0.00, -0.00, -1.00, 47.7, 6.9)">a</text><text xml:space="preserve" font-family="HelveticaNeue,Helvetica Neue" font-size="25.5" fill="#747373" transform="matrix(1.00, 0.00, -0.00, -1.00, 61.4, 6.9)">s</text><text xml:space="preserve" font-family="HelveticaNeue,Helvetica Neue" font-size="25.5" fill="#747373" transform="matrix(1.00, 0.00, -0.00, -1.00, 74.1, 6.9)">t</text><text xml:space="preserve" font-family="HelveticaNeue,Helvetica Neue" font-size="25.5" fill="#747373" transform="matrix(1.00, 0.00, -0.00, -1.00, 82.1, 6.9)">e</text><text xml:space="preserve" font-family="HelveticaNeue,Helvetica Neue" font-size="25.5" fill="#747373" transform="matrix(1.00, 0.00, -0.00, -1.00, 95.8, 6.9)">r</text><text xml:space="preserve" font-family="HelveticaNeue,Helvetica Neue" font-size="25.5" fill="#747373" transform="matrix(1.00, 0.00, -0.00, -1.00, 104.3, 6.9)">s</text><text xml:space="preserve" font-family="HelveticaNeue,Helvetica Neue" font-size="25.5" fill="#747373" transform="matrix(1.00, 0.00, -0.00, -1.00, 117.0, 6.9)"> </text><text xml:space="preserve" font-family="HelveticaNeue,Helvetica Neue" font-size="25.5" fill="#747373" transform="matrix(1.00, 0.00, -0.00, -1.00, 124.1, 6.9)">D</text><text xml:space="preserve" font-family="HelveticaNeue,Helvetica Neue" font-size="25.5" fill="#747373" transform="matrix(1.00, 0.00, -0.00, -1.00, 142.1, 6.9)">e</text><text xml:space="preserve" font-family="HelveticaNeue,Helvetica Neue" font-size="25.5" fill="#747373" transform="matrix(1.00, 0.00, -0.00, -1.00, 155.7, 6.9)">g</text><text xml:space="preserve" font-family="HelveticaNeue,Helvetica Neue" font-size="25.5" fill="#747373" transform="matrix(1.00, 0.00, -0.00, -1.00, 170.4, 6.9)">r</text><text xml:space="preserve" font-family="HelveticaNeue,Helvetica Neue" font-size="25.5" fill="#747373" transform="matrix(1.00, 0.00, -0.00, -1.00, 178.4, 6.9)">e</text><text xml:space="preserve" font-family="HelveticaNeue,Helvetica Neue" font-size="25.5" fill="#747373" transform="matrix(1.00, 0.00, -0.00, -1.00, 192.1, 6.9)">e</text><text xml:space="preserve" font-family="HelveticaNeue,Helvetica Neue" font-size="25.5" fill="#747373" transform="matrix(1.00, 0.00, -0.00, -1.00, 205.8, 6.9)"> </text><text xml:space="preserve" font-family="HelveticaNeue,Helvetica Neue" font-size="25.5" fill="#747373" transform="matrix(1.00, 0.00, -0.00, -1.00, 212.8, 6.9)">a</text><text xml:space="preserve" font-family="HelveticaNeue,Helvetica Neue" font-size="25.5" fill="#747373" transform="matrix(1.00, 0.00, -0.00, -1.00, 226.5, 6.9)">n</text><text xml:space="preserve" font-family="HelveticaNeue,Helvetica Neue" font-size="25.5" fill="#747373" transform="matrix(1.00, 0.00, -0.00, -1.00, 240.7, 6.9)">d</text><text xml:space="preserve" font-family="HelveticaNeue,Helvetica Neue" font-size="25.5" fill="#747373" transform="matrix(1.00, 0.00, -0.00, -1.00, 255.8, 6.9)"> </text><text xml:space="preserve" font-family="HelveticaNeue,Helvetica Neue" font-size="25.5" fill="#747373" transform="matrix(1.00, 0.00, -0.00, -1.00, 262.9, 6.9)">t</text><text xml:space="preserve" font-family="HelveticaNeue,Helvetica Neue" font-size="25.5" fill="#747373" transform="matrix(1.00, 0.00, -0.00, -1.00, 270.9, 6.9)">e</text><text xml:space="preserve" font-family="HelveticaNeue,Helvetica Neue" font-size="25.5" fill="#747373" transform="matrix(1.00, 0.00, -0.00, -1.00, 284.6, 6.9)">a</text><text xml:space="preserve" font-family="HelveticaNeue,Helvetica Neue" font-size="25.5" fill="#747373" transform="matrix(1.00, 0.00, -0.00, -1.00, 298.3, 6.9)">c</text><text xml:space="preserve" font-family="HelveticaNeue,Helvetica Neue" font-size="25.5" fill="#747373" transform="matrix(1.00, 0.00, -0.00, -1.00, 312.0, 6.9)">h</text><text xml:space="preserve" font-family="HelveticaNeue,Helvetica Neue" font-size="25.5" fill="#747373" transform="matrix(1.00, 0.00, -0.00, -1.00, 326.1, 6.9)">i</text><text xml:space="preserve" font-family="HelveticaNeue,Helvetica Neue" font-size="25.5" fill="#747373" transform="matrix(1.00, 0.00, -0.00, -1.00, 331.8, 6.9)">n</text><text xml:space="preserve" font-family="HelveticaNeue,Helvetica Neue" font-size="25.5" fill="#747373" transform="matrix(1.00, 0.00, -0.00, -1.00, 345.9, 6.9)">g</text></g></svg>