<?xml version="1.0" encoding="UTF-8" standalone="no"?><svg xmlns="http://www.w3.org/2000/svg" xmlns:xlink="http://www.w3.org/1999/xlink" clip-rule="evenodd" stroke-miterlimit="10" viewBox="0 0 120 20"><desc>SVG generated by Keynote</desc><defs></defs><g transform="matrix(1.00, 0.00, -0.00, -1.00, 0.0, 20.0)"><text xml:space="preserve" font-family="GillSans,Gill Sans" font-size="24.0" fill="#797979" transform="matrix(1.00, 0.00, -0.00, -1.00, 1.1, 2.0)">i</text><text xml:space="preserve" font-family="GillSans,Gill Sans" font-size="24.0" fill="#797979" transform="matrix(1.00, 0.00, -0.00, -1.00, 6.4, 2.0)">n</text><text xml:space="preserve" font-family="GillSans,Gill Sans" font-size="24.0" fill="#797979" transform="matrix(1.00, 0.00, -0.00, -1.00, 18.0, 2.0)">v</text><text xml:space="preserve" font-family="GillSans,Gill Sans" font-size="24.0" fill="#797979" transform="matrix(1.00, 0.00, -0.00, -1.00, 28.0, 2.0)">o</text><text xml:space="preserve" font-family="GillSans,Gill Sans" font-size="24.0" fill="#797979" transform="matrix(1.00, 0.00, -0.00, -1.00, 41.3, 2.0)">l</text><text xml:space="preserve" font-family="GillSans,Gill Sans" font-size="24.0" fill="#797979" transform="matrix(1.00, 0.00, -0.00, -1.00, 46.6, 2.0)">v</text><text xml:space="preserve" font-family="GillSans,Gill Sans" font-size="24.0" fill="#797979" transform="matrix(1.00, 0.00, -0.00, -1.00, 56.6, 2.0)">e</text><text xml:space="preserve" font-family="GillSans,Gill Sans" font-size="24.0" fill="#797979" transform="matrix(1.00, 0.00, -0.00, -1.00, 68.1, 2.0)">m</text><text xml:space="preserve" font-family="GillSans,Gill Sans" font-size="24.0" fill="#797979" transform="matrix(1.00, 0.00, -0.00, -1.00, 86.6, 2.0)">e</text><text xml:space="preserve" font-family="GillSans,Gill Sans" font-size="24.0" fill="#797979" transform="matrix(1.00, 0.00, -0.00, -1.00, 98.1, 2.0)">n</text><text xml:space="preserve" font-family="GillSans,Gill Sans" font-size="24.0" fill="#797979" transform="matrix(1.00, 0.00, -0.00, -1.00, 110.1, 2.0)">t</text></g></svg>