<?xml version="1.0" encoding="UTF-8" standalone="no"?><svg xmlns="http://www.w3.org/2000/svg" xmlns:xlink="http://www.w3.org/1999/xlink" clip-rule="evenodd" stroke-miterlimit="10" viewBox="0 0 297 27"><desc>SVG generated by Keynote</desc><defs></defs><g transform="matrix(1.00, 0.00, -0.00, -1.00, 0.0, 27.0)"><text xml:space="preserve" font-family="HelveticaNeue-Bold,Helvetica Neue" font-weight="bold" font-size="26.0" fill="#747373" transform="matrix(1.00, 0.00, -0.00, -1.00, 1.0, 6.4)">e</text><text xml:space="preserve" font-family="HelveticaNeue-Bold,Helvetica Neue" font-weight="bold" font-size="26.0" fill="#747373" transform="matrix(1.00, 0.00, -0.00, -1.00, 15.9, 6.4)">x</text><text xml:space="preserve" font-family="HelveticaNeue-Bold,Helvetica Neue" font-weight="bold" font-size="26.0" fill="#747373" transform="matrix(1.00, 0.00, -0.00, -1.00, 29.9, 6.4)">p</text><text xml:space="preserve" font-family="HelveticaNeue-Bold,Helvetica Neue" font-weight="bold" font-size="26.0" fill="#747373" transform="matrix(1.00, 0.00, -0.00, -1.00, 45.8, 6.4)">e</text><text xml:space="preserve" font-family="HelveticaNeue-Bold,Helvetica Neue" font-weight="bold" font-size="26.0" fill="#747373" transform="matrix(1.00, 0.00, -0.00, -1.00, 60.7, 6.4)">r</text><text xml:space="preserve" font-family="HelveticaNeue-Bold,Helvetica Neue" font-weight="bold" font-size="26.0" fill="#747373" transform="matrix(1.00, 0.00, -0.00, -1.00, 70.8, 6.4)">i</text><text xml:space="preserve" font-family="HelveticaNeue-Bold,Helvetica Neue" font-weight="bold" font-size="26.0" fill="#747373" transform="matrix(1.00, 0.00, -0.00, -1.00, 77.5, 6.4)">e</text><text xml:space="preserve" font-family="HelveticaNeue-Bold,Helvetica Neue" font-weight="bold" font-size="26.0" fill="#747373" transform="matrix(1.00, 0.00, -0.00, -1.00, 92.4, 6.4)">n</text><text xml:space="preserve" font-family="HelveticaNeue-Bold,Helvetica Neue" font-weight="bold" font-size="26.0" fill="#747373" transform="matrix(1.00, 0.00, -0.00, -1.00, 107.9, 6.4)">c</text><text xml:space="preserve" font-family="HelveticaNeue-Bold,Helvetica Neue" font-weight="bold" font-size="26.0" fill="#747373" transform="matrix(1.00, 0.00, -0.00, -1.00, 122.8, 6.4)">e</text><text xml:space="preserve" font-family="HelveticaNeue-Bold,Helvetica Neue" font-weight="bold" font-size="26.0" fill="#747373" transform="matrix(1.00, 0.00, -0.00, -1.00, 137.7, 6.4)"> </text><text xml:space="preserve" font-family="HelveticaNeue-Bold,Helvetica Neue" font-weight="bold" font-size="26.0" fill="#747373" transform="matrix(1.00, 0.00, -0.00, -1.00, 144.9, 6.4)">@</text><text xml:space="preserve" font-family="HelveticaNeue-Bold,Helvetica Neue" font-weight="bold" font-size="26.0" fill="#747373" transform="matrix(1.00, 0.00, -0.00, -1.00, 165.7, 6.4)"> </text><text xml:space="preserve" font-family="HelveticaNeue-Bold,Helvetica Neue" font-weight="bold" font-size="26.0" fill="#747373" transform="matrix(1.00, 0.00, -0.00, -1.00, 173.0, 6.4)">N</text><text xml:space="preserve" font-family="HelveticaNeue-Bold,Helvetica Neue" font-weight="bold" font-size="26.0" fill="#747373" transform="matrix(1.00, 0.00, -0.00, -1.00, 192.2, 6.4)">Y</text><text xml:space="preserve" font-family="HelveticaNeue-Bold,Helvetica Neue" font-weight="bold" font-size="26.0" fill="#747373" transform="matrix(1.00, 0.00, -0.00, -1.00, 209.6, 6.4)">U</text><text xml:space="preserve" font-family="HelveticaNeue-Bold,Helvetica Neue" font-weight="bold" font-size="26.0" fill="#747373" transform="matrix(1.00, 0.00, -0.00, -1.00, 228.8, 6.4)">’</text><text xml:space="preserve" font-family="HelveticaNeue-Bold,Helvetica Neue" font-weight="bold" font-size="26.0" fill="#747373" transform="matrix(1.00, 0.00, -0.00, -1.00, 234.1, 6.4)">s</text><text xml:space="preserve" font-family="HelveticaNeue-Bold,Helvetica Neue" font-weight="bold" font-size="26.0" fill="#747373" transform="matrix(1.00, 0.00, -0.00, -1.00, 248.1, 6.4)"> </text><text xml:space="preserve" font-family="HelveticaNeue-Bold,Helvetica Neue" font-weight="bold" font-size="26.0" fill="#747373" transform="matrix(1.00, 0.00, -0.00, -1.00, 255.3, 6.4)">I</text><text xml:space="preserve" font-family="HelveticaNeue-Bold,Helvetica Neue" font-weight="bold" font-size="26.0" fill="#747373" transform="matrix(1.00, 0.00, -0.00, -1.00, 263.0, 6.4)">T</text><text xml:space="preserve" font-family="HelveticaNeue-Bold,Helvetica Neue" font-weight="bold" font-size="26.0" fill="#747373" transform="matrix(1.00, 0.00, -0.00, -1.00, 278.9, 6.4)">P</text></g></svg>