<?xml version="1.0" encoding="UTF-8" standalone="no"?><svg xmlns="http://www.w3.org/2000/svg" xmlns:xlink="http://www.w3.org/1999/xlink" clip-rule="evenodd" stroke-miterlimit="10" viewBox="0 0 722 43"><desc>SVG generated by Keynote</desc><defs></defs><g transform="matrix(1.00, 0.00, -0.00, -1.00, 0.0, 43.0)"><text xml:space="preserve" font-family="HelveticaNeue-Light,Helvetica Neue" font-size="42.0" fill="#000000" transform="matrix(1.00, 0.00, -0.00, -1.00, -2.0, 10.9)">H</text><text xml:space="preserve" font-family="HelveticaNeue-Light,Helvetica Neue" font-size="42.0" fill="#000000" transform="matrix(1.00, 0.00, -0.00, -1.00, 27.6, 10.9)">o</text><text xml:space="preserve" font-family="HelveticaNeue-Light,Helvetica Neue" font-size="42.0" fill="#000000" transform="matrix(1.00, 0.00, -0.00, -1.00, 50.9, 10.9)">w</text><text xml:space="preserve" font-family="HelveticaNeue-Light,Helvetica Neue" font-size="42.0" fill="#000000" transform="matrix(1.00, 0.00, -0.00, -1.00, 82.0, 10.9)"> </text><text xml:space="preserve" font-family="HelveticaNeue-Light,Helvetica Neue" font-size="42.0" fill="#000000" transform="matrix(1.00, 0.00, -0.00, -1.00, 93.7, 10.9)">I</text><text xml:space="preserve" font-family="HelveticaNeue-Light,Helvetica Neue" font-size="42.0" fill="#000000" transform="matrix(1.00, 0.00, -0.00, -1.00, 103.0, 10.9)"> </text><text xml:space="preserve" font-family="HelveticaNeue-Light,Helvetica Neue" font-size="42.0" fill="#000000" transform="matrix(1.00, 0.00, -0.00, -1.00, 114.7, 10.9)">g</text><text xml:space="preserve" font-family="HelveticaNeue-Light,Helvetica Neue" font-size="42.0" fill="#000000" transform="matrix(1.00, 0.00, -0.00, -1.00, 138.1, 10.9)">o</text><text xml:space="preserve" font-family="HelveticaNeue-Light,Helvetica Neue" font-size="42.0" fill="#000000" transform="matrix(1.00, 0.00, -0.00, -1.00, 161.4, 10.9)">t</text><text xml:space="preserve" font-family="HelveticaNeue-Light,Helvetica Neue" font-size="42.0" fill="#000000" transform="matrix(1.00, 0.00, -0.00, -1.00, 173.9, 10.9)"> </text><text xml:space="preserve" font-family="HelveticaNeue-Light,Helvetica Neue" font-size="42.0" fill="#000000" transform="matrix(1.00, 0.00, -0.00, -1.00, 185.5, 10.9)">t</text><text xml:space="preserve" font-family="HelveticaNeue-Light,Helvetica Neue" font-size="42.0" fill="#000000" transform="matrix(1.00, 0.00, -0.00, -1.00, 198.0, 10.9)">o</text><text xml:space="preserve" font-family="HelveticaNeue-Light,Helvetica Neue" font-size="42.0" fill="#000000" transform="matrix(1.00, 0.00, -0.00, -1.00, 221.3, 10.9)"> </text><text xml:space="preserve" font-family="HelveticaNeue-Light,Helvetica Neue" font-size="42.0" fill="#000000" transform="matrix(1.00, 0.00, -0.00, -1.00, 233.0, 10.9)">P</text><text xml:space="preserve" font-family="HelveticaNeue-Light,Helvetica Neue" font-size="42.0" fill="#000000" transform="matrix(1.00, 0.00, -0.00, -1.00, 259.4, 10.9)">C</text><text xml:space="preserve" font-family="HelveticaNeue-Light,Helvetica Neue" font-size="42.0" fill="#000000" transform="matrix(1.00, 0.00, -0.00, -1.00, 289.0, 10.9)">C</text><text xml:space="preserve" font-family="HelveticaNeue-Light,Helvetica Neue" font-size="42.0" fill="#000000" transform="matrix(1.00, 0.00, -0.00, -1.00, 318.6, 10.9)">:</text><text xml:space="preserve" font-family="HelveticaNeue-Light,Helvetica Neue" font-size="42.0" fill="#000000" transform="matrix(1.00, 0.00, -0.00, -1.00, 330.3, 10.9)"> </text><text xml:space="preserve" font-family="HelveticaNeue-Light,Helvetica Neue" font-size="25.0" fill="#000000" transform="matrix(1.00, 0.00, -0.00, -1.00, 341.9, 10.9)">M</text><text xml:space="preserve" font-family="HelveticaNeue-Light,Helvetica Neue" font-size="25.0" fill="#000000" transform="matrix(1.00, 0.00, -0.00, -1.00, 362.5, 10.9)">y</text><text xml:space="preserve" font-family="HelveticaNeue-Light,Helvetica Neue" font-size="25.0" fill="#000000" transform="matrix(1.00, 0.00, -0.00, -1.00, 374.0, 10.9)"> </text><text xml:space="preserve" font-family="HelveticaNeue-Light,Helvetica Neue" font-size="25.0" fill="#000000" transform="matrix(1.00, 0.00, -0.00, -1.00, 381.0, 10.9)">B</text><text xml:space="preserve" font-family="HelveticaNeue-Light,Helvetica Neue" font-size="25.0" fill="#000000" transform="matrix(1.00, 0.00, -0.00, -1.00, 397.7, 10.9)">a</text><text xml:space="preserve" font-family="HelveticaNeue-Light,Helvetica Neue" font-size="25.0" fill="#000000" transform="matrix(1.00, 0.00, -0.00, -1.00, 410.6, 10.9)">c</text><text xml:space="preserve" font-family="HelveticaNeue-Light,Helvetica Neue" font-size="25.0" fill="#000000" transform="matrix(1.00, 0.00, -0.00, -1.00, 423.6, 10.9)">k</text><text xml:space="preserve" font-family="HelveticaNeue-Light,Helvetica Neue" font-size="25.0" fill="#000000" transform="matrix(1.00, 0.00, -0.00, -1.00, 436.1, 10.9)">g</text><text xml:space="preserve" font-family="HelveticaNeue-Light,Helvetica Neue" font-size="25.0" fill="#000000" transform="matrix(1.00, 0.00, -0.00, -1.00, 450.0, 10.9)">r</text><text xml:space="preserve" font-family="HelveticaNeue-Light,Helvetica Neue" font-size="25.0" fill="#000000" transform="matrix(1.00, 0.00, -0.00, -1.00, 457.4, 10.9)">o</text><text xml:space="preserve" font-family="HelveticaNeue-Light,Helvetica Neue" font-size="25.0" fill="#000000" transform="matrix(1.00, 0.00, -0.00, -1.00, 471.3, 10.9)">u</text><text xml:space="preserve" font-family="HelveticaNeue-Light,Helvetica Neue" font-size="25.0" fill="#000000" transform="matrix(1.00, 0.00, -0.00, -1.00, 484.8, 10.9)">n</text><text xml:space="preserve" font-family="HelveticaNeue-Light,Helvetica Neue" font-size="25.0" fill="#000000" transform="matrix(1.00, 0.00, -0.00, -1.00, 498.2, 10.9)">d</text><text xml:space="preserve" font-family="HelveticaNeue-Light,Helvetica Neue" font-size="25.0" fill="#000000" transform="matrix(1.00, 0.00, -0.00, -1.00, 512.5, 10.9)">,</text><text xml:space="preserve" font-family="HelveticaNeue-Light,Helvetica Neue" font-size="25.0" fill="#000000" transform="matrix(1.00, 0.00, -0.00, -1.00, 519.5, 10.9)"> </text><text xml:space="preserve" font-family="HelveticaNeue-Light,Helvetica Neue" font-size="25.0" fill="#000000" transform="matrix(1.00, 0.00, -0.00, -1.00, 526.4, 10.9)">P</text><text xml:space="preserve" font-family="HelveticaNeue-Light,Helvetica Neue" font-size="25.0" fill="#000000" transform="matrix(1.00, 0.00, -0.00, -1.00, 542.2, 10.9)">C</text><text xml:space="preserve" font-family="HelveticaNeue-Light,Helvetica Neue" font-size="25.0" fill="#000000" transform="matrix(1.00, 0.00, -0.00, -1.00, 559.8, 10.9)">C</text><text xml:space="preserve" font-family="HelveticaNeue-Light,Helvetica Neue" font-size="25.0" fill="#000000" transform="matrix(1.00, 0.00, -0.00, -1.00, 577.4, 10.9)"> </text><text xml:space="preserve" font-family="HelveticaNeue-Light,Helvetica Neue" font-size="25.0" fill="#000000" transform="matrix(1.00, 0.00, -0.00, -1.00, 584.3, 10.9)">D</text><text xml:space="preserve" font-family="HelveticaNeue-Light,Helvetica Neue" font-size="25.0" fill="#000000" transform="matrix(1.00, 0.00, -0.00, -1.00, 601.5, 10.9)">e</text><text xml:space="preserve" font-family="HelveticaNeue-Light,Helvetica Neue" font-size="25.0" fill="#000000" transform="matrix(1.00, 0.00, -0.00, -1.00, 614.4, 10.9)">s</text><text xml:space="preserve" font-family="HelveticaNeue-Light,Helvetica Neue" font-size="25.0" fill="#000000" transform="matrix(1.00, 0.00, -0.00, -1.00, 626.5, 10.9)">i</text><text xml:space="preserve" font-family="HelveticaNeue-Light,Helvetica Neue" font-size="25.0" fill="#000000" transform="matrix(1.00, 0.00, -0.00, -1.00, 631.1, 10.9)">g</text><text xml:space="preserve" font-family="HelveticaNeue-Light,Helvetica Neue" font-size="25.0" fill="#000000" transform="matrix(1.00, 0.00, -0.00, -1.00, 645.0, 10.9)">n</text><text xml:space="preserve" font-family="HelveticaNeue-Light,Helvetica Neue" font-size="25.0" fill="#000000" transform="matrix(1.00, 0.00, -0.00, -1.00, 658.4, 10.9)">T</text><text xml:space="preserve" font-family="HelveticaNeue-Light,Helvetica Neue" font-size="25.0" fill="#000000" transform="matrix(1.00, 0.00, -0.00, -1.00, 672.3, 10.9)">E</text><text xml:space="preserve" font-family="HelveticaNeue-Light,Helvetica Neue" font-size="25.0" fill="#000000" transform="matrix(1.00, 0.00, -0.00, -1.00, 687.1, 10.9)">C</text><text xml:space="preserve" font-family="HelveticaNeue-Light,Helvetica Neue" font-size="25.0" fill="#000000" transform="matrix(1.00, 0.00, -0.00, -1.00, 704.7, 10.9)">H</text></g></svg>