<?xml version="1.0" encoding="UTF-8" standalone="no"?><svg xmlns="http://www.w3.org/2000/svg" xmlns:xlink="http://www.w3.org/1999/xlink" clip-rule="evenodd" stroke-miterlimit="10" viewBox="0 0 1024 768"><desc>SVG generated by Keynote</desc><defs></defs><g transform="matrix(1.00, 0.00, -0.00, -1.00, 0.0, 768.0)"><path d="M 0.0 768.0 L 1024.0 768.0 L 1024.0 0.0 L 0.0 0.0 Z M 0.0 768.0 " fill="#FEFFFE"></path><path d="M 0.5 0.5 L 934.5 0.5 L 934.5 0.5 L 0.5 0.5 Z M 0.0 0.0 " fill="none" stroke="#9A9A99" stroke-width="1.00" transform="matrix(1.00, 0.00, 0.00, -1.00, 45.0, 613.0)"></path><g><clipPath id="clip0x7ff48135cc10"><path d="M 11.0 38.0 L 38.0 38.0 L 38.0 5.0 L 11.0 5.0 Z M 11.0 38.0 "></path></clipPath><g clip-path="url(#clip0x7ff48135cc10)"><g><clipPath id="clip0x7ff48135d700"><path d="M 11.0 5.0 L 38.0 5.0 L 38.0 38.0 L 11.0 38.0 Z M 11.0 5.0 "></path></clipPath><g clip-path="url(#clip0x7ff48135d700)"><path d="M 33.8 27.1 C 32.0 28.6 30.1 29.4 28.2 29.4 C 26.0 29.4 24.2 28.6 22.7 27.0 C 21.3 25.5 20.5 23.6 20.5 21.4 C 20.5 19.2 21.3 17.4 22.7 15.9 C 24.2 14.4 26.0 13.6 28.2 13.6 C 29.3 13.6 30.2 13.8 31.0 14.2 C 31.4 14.4 31.9 14.6 32.3 14.9 C 32.8 15.2 33.3 15.6 33.8 16.0 L 33.8 12.2 C 32.0 11.2 30.1 10.7 28.1 10.7 C 25.2 10.7 22.6 11.7 20.5 13.8 C 18.4 15.9 17.4 18.4 17.4 21.4 C 17.4 24.0 18.2 26.4 20.0 28.5 C 22.2 31.0 24.9 32.3 28.4 32.3 C 30.2 32.3 32.1 31.8 33.8 30.8 Z M 38.0 34.2 C 35.1 36.6 31.5 38.0 27.5 38.0 C 18.4 38.0 11.0 30.6 11.0 21.5 C 11.0 12.4 18.4 5.0 27.5 5.0 C 31.6 5.0 35.1 6.5 38.0 8.9 C 38.0 13.8 38.0 28.9 38.0 34.2 " fill="#7F8184"></path></g></g></g></g><text xml:space="preserve" font-family="GillSans,Gill Sans" font-size="18.0" fill="#797979" transform="matrix(1.00, 0.00, -0.00, -1.00, 40.0, 16.1)">a</text><text xml:space="preserve" font-family="GillSans,Gill Sans" font-size="18.0" fill="#797979" transform="matrix(1.00, 0.00, -0.00, -1.00, 47.7, 16.1)">r</text><text xml:space="preserve" font-family="GillSans,Gill Sans" font-size="18.0" fill="#797979" transform="matrix(1.00, 0.00, -0.00, -1.00, 54.8, 16.1)">l</text><text xml:space="preserve" font-family="GillSans,Gill Sans" font-size="18.0" fill="#797979" transform="matrix(1.00, 0.00, -0.00, -1.00, 58.6, 16.1)">y</text><text xml:space="preserve" font-family="GillSans,Gill Sans" font-size="18.0" fill="#797979" transform="matrix(1.00, 0.00, -0.00, -1.00, 66.4, 16.1)">n</text><text xml:space="preserve" font-family="GillSans,Gill Sans" font-size="18.0" fill="#797979" transform="matrix(1.00, 0.00, -0.00, -1.00, 75.4, 16.1)">o</text><text xml:space="preserve" font-family="GillSans,Gill Sans" font-size="18.0" fill="#797979" transform="matrix(1.00, 0.00, -0.00, -1.00, 85.4, 16.1)">r</text><text xml:space="preserve" font-family="GillSans,Gill Sans" font-size="18.0" fill="#797979" transform="matrix(1.00, 0.00, -0.00, -1.00, 92.5, 16.1)">a</text><text xml:space="preserve" font-family="GillSans,Gill Sans" font-size="18.0" fill="#797979" transform="matrix(1.00, 0.00, -0.00, -1.00, 100.2, 16.1)">m</text><text xml:space="preserve" font-family="GillSans,Gill Sans" font-size="18.0" fill="#797979" transform="matrix(1.00, 0.00, -0.00, -1.00, 114.1, 16.1)">a</text><text xml:space="preserve" font-family="HelveticaNeue-Light,Helvetica Neue" font-size="42.0" fill="#000000" transform="matrix(1.00, 0.00, -0.00, -1.00, 49.0, 645.2)">A</text><text xml:space="preserve" font-family="HelveticaNeue-Light,Helvetica Neue" font-size="42.0" fill="#000000" transform="matrix(1.00, 0.00, -0.00, -1.00, 75.5, 645.2)">u</text><text xml:space="preserve" font-family="HelveticaNeue-Light,Helvetica Neue" font-size="42.0" fill="#000000" transform="matrix(1.00, 0.00, -0.00, -1.00, 98.0, 645.2)">d</text><text xml:space="preserve" font-family="HelveticaNeue-Light,Helvetica Neue" font-size="42.0" fill="#000000" transform="matrix(1.00, 0.00, -0.00, -1.00, 122.1, 645.2)">i</text><text xml:space="preserve" font-family="HelveticaNeue-Light,Helvetica Neue" font-size="42.0" fill="#000000" transform="matrix(1.00, 0.00, -0.00, -1.00, 129.9, 645.2)">e</text><text xml:space="preserve" font-family="HelveticaNeue-Light,Helvetica Neue" font-size="42.0" fill="#000000" transform="matrix(1.00, 0.00, -0.00, -1.00, 151.7, 645.2)">n</text><text xml:space="preserve" font-family="HelveticaNeue-Light,Helvetica Neue" font-size="42.0" fill="#000000" transform="matrix(1.00, 0.00, -0.00, -1.00, 174.2, 645.2)">c</text><text xml:space="preserve" font-family="HelveticaNeue-Light,Helvetica Neue" font-size="42.0" fill="#000000" transform="matrix(1.00, 0.00, -0.00, -1.00, 196.0, 645.2)">e</text><text xml:space="preserve" font-family="HelveticaNeue-Light,Helvetica Neue" font-size="42.0" fill="#000000" transform="matrix(1.00, 0.00, -0.00, -1.00, 217.8, 645.2)"> </text><text xml:space="preserve" font-family="HelveticaNeue-Light,Helvetica Neue" font-size="42.0" fill="#000000" transform="matrix(1.00, 0.00, -0.00, -1.00, 229.5, 645.2)">P</text><text xml:space="preserve" font-family="HelveticaNeue-Light,Helvetica Neue" font-size="42.0" fill="#000000" transform="matrix(1.00, 0.00, -0.00, -1.00, 256.0, 645.2)">r</text><text xml:space="preserve" font-family="HelveticaNeue-Light,Helvetica Neue" font-size="42.0" fill="#000000" transform="matrix(1.00, 0.00, -0.00, -1.00, 268.4, 645.2)">o</text><text xml:space="preserve" font-family="HelveticaNeue-Light,Helvetica Neue" font-size="42.0" fill="#000000" transform="matrix(1.00, 0.00, -0.00, -1.00, 291.8, 645.2)">ﬁ</text><text xml:space="preserve" font-family="HelveticaNeue-Light,Helvetica Neue" font-size="42.0" fill="#000000" transform="matrix(1.00, 0.00, -0.00, -1.00, 310.4, 645.2)">l</text><text xml:space="preserve" font-family="HelveticaNeue-Light,Helvetica Neue" font-size="42.0" fill="#000000" transform="matrix(1.00, 0.00, -0.00, -1.00, 318.2, 645.2)">e</text><text xml:space="preserve" font-family="HelveticaNeue-Light,Helvetica Neue" font-size="42.0" fill="#000000" transform="matrix(1.00, 0.00, -0.00, -1.00, 340.0, 645.2)">:</text><text xml:space="preserve" font-family="HelveticaNeue-Light,Helvetica Neue" font-size="42.0" fill="#000000" transform="matrix(1.00, 0.00, -0.00, -1.00, 351.7, 645.2)"> </text><text xml:space="preserve" font-family="HelveticaNeue-Light,Helvetica Neue" font-size="42.0" fill="#000000" transform="matrix(1.00, 0.00, -0.00, -1.00, 363.4, 645.2)">C</text><text xml:space="preserve" font-family="HelveticaNeue-Light,Helvetica Neue" font-size="42.0" fill="#000000" transform="matrix(1.00, 0.00, -0.00, -1.00, 392.9, 645.2)">o</text><text xml:space="preserve" font-family="HelveticaNeue-Light,Helvetica Neue" font-size="42.0" fill="#000000" transform="matrix(1.00, 0.00, -0.00, -1.00, 416.3, 645.2)">m</text><text xml:space="preserve" font-family="HelveticaNeue-Light,Helvetica Neue" font-size="42.0" fill="#000000" transform="matrix(1.00, 0.00, -0.00, -1.00, 451.3, 645.2)">m</text><text xml:space="preserve" font-family="HelveticaNeue-Light,Helvetica Neue" font-size="42.0" fill="#000000" transform="matrix(1.00, 0.00, -0.00, -1.00, 486.3, 645.2)">u</text><text xml:space="preserve" font-family="HelveticaNeue-Light,Helvetica Neue" font-size="42.0" fill="#000000" transform="matrix(1.00, 0.00, -0.00, -1.00, 508.8, 645.2)">n</text><text xml:space="preserve" font-family="HelveticaNeue-Light,Helvetica Neue" font-size="42.0" fill="#000000" transform="matrix(1.00, 0.00, -0.00, -1.00, 531.4, 645.2)">i</text><text xml:space="preserve" font-family="HelveticaNeue-Light,Helvetica Neue" font-size="42.0" fill="#000000" transform="matrix(1.00, 0.00, -0.00, -1.00, 539.1, 645.2)">t</text><text xml:space="preserve" font-family="HelveticaNeue-Light,Helvetica Neue" font-size="42.0" fill="#000000" transform="matrix(1.00, 0.00, -0.00, -1.00, 551.6, 645.2)">y</text><text xml:space="preserve" font-family="HelveticaNeue-Light,Helvetica Neue" font-size="42.0" fill="#000000" transform="matrix(1.00, 0.00, -0.00, -1.00, 571.0, 645.2)"> </text><text xml:space="preserve" font-family="HelveticaNeue-Light,Helvetica Neue" font-size="42.0" fill="#000000" transform="matrix(1.00, 0.00, -0.00, -1.00, 582.7, 645.2)">C</text><text xml:space="preserve" font-family="HelveticaNeue-Light,Helvetica Neue" font-size="42.0" fill="#000000" transform="matrix(1.00, 0.00, -0.00, -1.00, 612.3, 645.2)">o</text><text xml:space="preserve" font-family="HelveticaNeue-Light,Helvetica Neue" font-size="42.0" fill="#000000" transform="matrix(1.00, 0.00, -0.00, -1.00, 635.6, 645.2)">l</text><text xml:space="preserve" font-family="HelveticaNeue-Light,Helvetica Neue" font-size="42.0" fill="#000000" transform="matrix(1.00, 0.00, -0.00, -1.00, 643.4, 645.2)">l</text><text xml:space="preserve" font-family="HelveticaNeue-Light,Helvetica Neue" font-size="42.0" fill="#000000" transform="matrix(1.00, 0.00, -0.00, -1.00, 651.2, 645.2)">e</text><text xml:space="preserve" font-family="HelveticaNeue-Light,Helvetica Neue" font-size="42.0" fill="#000000" transform="matrix(1.00, 0.00, -0.00, -1.00, 673.0, 645.2)">g</text><text xml:space="preserve" font-family="HelveticaNeue-Light,Helvetica Neue" font-size="42.0" fill="#000000" transform="matrix(1.00, 0.00, -0.00, -1.00, 696.3, 645.2)">e</text><text xml:space="preserve" font-family="HelveticaNeue,Helvetica Neue" font-size="27.0" fill="#747373" transform="matrix(1.00, 0.00, -0.00, -1.00, 49.0, 557.2)">•</text><text xml:space="preserve" font-family="HelveticaNeue-Light,Helvetica Neue" font-size="36.0" fill="#747373" transform="matrix(1.00, 0.00, -0.00, -1.00, 85.0, 553.7)">Z</text><text xml:space="preserve" font-family="HelveticaNeue-Light,Helvetica Neue" font-size="36.0" fill="#747373" transform="matrix(1.00, 0.00, -0.00, -1.00, 105.7, 553.7)">e</text><text xml:space="preserve" font-family="HelveticaNeue-Light,Helvetica Neue" font-size="36.0" fill="#747373" transform="matrix(1.00, 0.00, -0.00, -1.00, 124.3, 553.7)">r</text><text xml:space="preserve" font-family="HelveticaNeue-Light,Helvetica Neue" font-size="36.0" fill="#747373" transform="matrix(1.00, 0.00, -0.00, -1.00, 135.0, 553.7)">o</text><text xml:space="preserve" font-family="HelveticaNeue-Light,Helvetica Neue" font-size="36.0" fill="#747373" transform="matrix(1.00, 0.00, -0.00, -1.00, 155.1, 553.7)">.</text><text xml:space="preserve" font-family="HelveticaNeue-Light,Helvetica Neue" font-size="36.0" fill="#747373" transform="matrix(1.00, 0.00, -0.00, -1.00, 165.1, 553.7)"> </text><text xml:space="preserve" font-family="HelveticaNeue-Light,Helvetica Neue" font-size="36.0" fill="#747373" transform="matrix(1.00, 0.00, -0.00, -1.00, 175.1, 553.7)">A</text><text xml:space="preserve" font-family="HelveticaNeue-Light,Helvetica Neue" font-size="36.0" fill="#747373" transform="matrix(1.00, 0.00, -0.00, -1.00, 197.8, 553.7)">s</text><text xml:space="preserve" font-family="HelveticaNeue-Light,Helvetica Neue" font-size="36.0" fill="#747373" transform="matrix(1.00, 0.00, -0.00, -1.00, 215.1, 553.7)">s</text><text xml:space="preserve" font-family="HelveticaNeue-Light,Helvetica Neue" font-size="36.0" fill="#747373" transform="matrix(1.00, 0.00, -0.00, -1.00, 232.4, 553.7)">u</text><text xml:space="preserve" font-family="HelveticaNeue-Light,Helvetica Neue" font-size="36.0" fill="#747373" transform="matrix(1.00, 0.00, -0.00, -1.00, 251.7, 553.7)">m</text><text xml:space="preserve" font-family="HelveticaNeue-Light,Helvetica Neue" font-size="36.0" fill="#747373" transform="matrix(1.00, 0.00, -0.00, -1.00, 281.7, 553.7)">p</text><text xml:space="preserve" font-family="HelveticaNeue-Light,Helvetica Neue" font-size="36.0" fill="#747373" transform="matrix(1.00, 0.00, -0.00, -1.00, 302.4, 553.7)">t</text><text xml:space="preserve" font-family="HelveticaNeue-Light,Helvetica Neue" font-size="36.0" fill="#747373" transform="matrix(1.00, 0.00, -0.00, -1.00, 313.0, 553.7)">i</text><text xml:space="preserve" font-family="HelveticaNeue-Light,Helvetica Neue" font-size="36.0" fill="#747373" transform="matrix(1.00, 0.00, -0.00, -1.00, 319.7, 553.7)">o</text><text xml:space="preserve" font-family="HelveticaNeue-Light,Helvetica Neue" font-size="36.0" fill="#747373" transform="matrix(1.00, 0.00, -0.00, -1.00, 339.7, 553.7)">n</text><text xml:space="preserve" font-family="HelveticaNeue-Light,Helvetica Neue" font-size="36.0" fill="#747373" transform="matrix(1.00, 0.00, -0.00, -1.00, 359.0, 553.7)">s</text><text xml:space="preserve" font-family="HelveticaNeue-Light,Helvetica Neue" font-size="36.0" fill="#747373" transform="matrix(1.00, 0.00, -0.00, -1.00, 376.3, 553.7)">.</text><text xml:space="preserve" font-family="HelveticaNeue-Light,Helvetica Neue" font-size="36.0" fill="#747373" transform="matrix(1.00, 0.00, -0.00, -1.00, 386.4, 553.7)"> </text><text xml:space="preserve" font-family="HelveticaNeue-Light,Helvetica Neue" font-size="36.0" fill="#747373" transform="matrix(1.00, 0.00, -0.00, -1.00, 396.4, 553.7)">P</text><text xml:space="preserve" font-family="HelveticaNeue-Light,Helvetica Neue" font-size="36.0" fill="#747373" transform="matrix(1.00, 0.00, -0.00, -1.00, 419.0, 553.7)">o</text><text xml:space="preserve" font-family="HelveticaNeue-Light,Helvetica Neue" font-size="36.0" fill="#747373" transform="matrix(1.00, 0.00, -0.00, -1.00, 439.1, 553.7)">s</text><text xml:space="preserve" font-family="HelveticaNeue-Light,Helvetica Neue" font-size="36.0" fill="#747373" transform="matrix(1.00, 0.00, -0.00, -1.00, 456.4, 553.7)">s</text><text xml:space="preserve" font-family="HelveticaNeue-Light,Helvetica Neue" font-size="36.0" fill="#747373" transform="matrix(1.00, 0.00, -0.00, -1.00, 473.7, 553.7)">i</text><text xml:space="preserve" font-family="HelveticaNeue-Light,Helvetica Neue" font-size="36.0" fill="#747373" transform="matrix(1.00, 0.00, -0.00, -1.00, 480.4, 553.7)">b</text><text xml:space="preserve" font-family="HelveticaNeue-Light,Helvetica Neue" font-size="36.0" fill="#747373" transform="matrix(1.00, 0.00, -0.00, -1.00, 501.0, 553.7)">l</text><text xml:space="preserve" font-family="HelveticaNeue-Light,Helvetica Neue" font-size="36.0" fill="#747373" transform="matrix(1.00, 0.00, -0.00, -1.00, 507.7, 553.7)">e</text><text xml:space="preserve" font-family="HelveticaNeue-Light,Helvetica Neue" font-size="36.0" fill="#747373" transform="matrix(1.00, 0.00, -0.00, -1.00, 526.4, 553.7)">.</text></g></svg>