<?xml version="1.0" encoding="UTF-8" standalone="no"?><svg xmlns="http://www.w3.org/2000/svg" xmlns:xlink="http://www.w3.org/1999/xlink" clip-rule="evenodd" stroke-miterlimit="10" viewBox="0 0 837 38"><desc>SVG generated by Keynote</desc><defs></defs><g transform="matrix(1.00, 0.00, -0.00, -1.00, 0.0, 38.0)"><text xml:space="preserve" font-family="HelveticaNeue,Helvetica Neue" font-size="26.7" fill="#747373" transform="matrix(1.00, 0.00, -0.00, -1.00, 0.0, 12.0)">•</text><text xml:space="preserve" font-family="HelveticaNeue-Light,Helvetica Neue" font-size="35.6" fill="#747373" transform="matrix(1.00, 0.00, -0.00, -1.00, 35.6, 8.2)">F</text><text xml:space="preserve" font-family="HelveticaNeue-Light,Helvetica Neue" font-size="35.6" fill="#747373" transform="matrix(1.00, 0.00, -0.00, -1.00, 54.8, 8.2)">l</text><text xml:space="preserve" font-family="HelveticaNeue-Light,Helvetica Neue" font-size="35.6" fill="#747373" transform="matrix(1.00, 0.00, -0.00, -1.00, 61.4, 8.2)">a</text><text xml:space="preserve" font-family="HelveticaNeue-Light,Helvetica Neue" font-size="35.6" fill="#747373" transform="matrix(1.00, 0.00, -0.00, -1.00, 79.9, 8.2)">w</text><text xml:space="preserve" font-family="HelveticaNeue-Light,Helvetica Neue" font-size="35.6" fill="#747373" transform="matrix(1.00, 0.00, -0.00, -1.00, 106.3, 8.2)">e</text><text xml:space="preserve" font-family="HelveticaNeue-Light,Helvetica Neue" font-size="35.6" fill="#747373" transform="matrix(1.00, 0.00, -0.00, -1.00, 124.8, 8.2)">d</text><text xml:space="preserve" font-family="HelveticaNeue-Light,Helvetica Neue" font-size="35.6" fill="#747373" transform="matrix(1.00, 0.00, -0.00, -1.00, 145.2, 8.2)"> </text><text xml:space="preserve" font-family="HelveticaNeue-Light,Helvetica Neue" font-size="35.6" fill="#747373" transform="matrix(1.00, 0.00, -0.00, -1.00, 155.1, 8.2)">H</text><text xml:space="preserve" font-family="HelveticaNeue-Light,Helvetica Neue" font-size="35.6" fill="#747373" transform="matrix(1.00, 0.00, -0.00, -1.00, 180.2, 8.2)">u</text><text xml:space="preserve" font-family="HelveticaNeue-Light,Helvetica Neue" font-size="35.6" fill="#747373" transform="matrix(1.00, 0.00, -0.00, -1.00, 199.4, 8.2)">m</text><text xml:space="preserve" font-family="HelveticaNeue-Light,Helvetica Neue" font-size="35.6" fill="#747373" transform="matrix(1.00, 0.00, -0.00, -1.00, 229.1, 8.2)">a</text><text xml:space="preserve" font-family="HelveticaNeue-Light,Helvetica Neue" font-size="35.6" fill="#747373" transform="matrix(1.00, 0.00, -0.00, -1.00, 247.6, 8.2)">n</text><text xml:space="preserve" font-family="HelveticaNeue-Light,Helvetica Neue" font-size="35.6" fill="#747373" transform="matrix(1.00, 0.00, -0.00, -1.00, 266.7, 8.2)"> </text><text xml:space="preserve" font-family="HelveticaNeue-Light,Helvetica Neue" font-size="35.6" fill="#747373" transform="matrix(1.00, 0.00, -0.00, -1.00, 276.6, 8.2)">m</text><text xml:space="preserve" font-family="HelveticaNeue-Light,Helvetica Neue" font-size="35.6" fill="#747373" transform="matrix(1.00, 0.00, -0.00, -1.00, 306.3, 8.2)">o</text><text xml:space="preserve" font-family="HelveticaNeue-Light,Helvetica Neue" font-size="35.6" fill="#747373" transform="matrix(1.00, 0.00, -0.00, -1.00, 326.1, 8.2)">d</text><text xml:space="preserve" font-family="HelveticaNeue-Light,Helvetica Neue" font-size="35.6" fill="#747373" transform="matrix(1.00, 0.00, -0.00, -1.00, 346.6, 8.2)">e</text><text xml:space="preserve" font-family="HelveticaNeue-Light,Helvetica Neue" font-size="35.6" fill="#747373" transform="matrix(1.00, 0.00, -0.00, -1.00, 365.1, 8.2)">l</text><text xml:space="preserve" font-family="HelveticaNeue-Light,Helvetica Neue" font-size="35.6" fill="#747373" transform="matrix(1.00, 0.00, -0.00, -1.00, 371.7, 8.2)"> </text><text xml:space="preserve" font-family="HelveticaNeue-Light,Helvetica Neue" font-size="35.6" fill="#747373" transform="matrix(1.00, 0.00, -0.00, -1.00, 381.6, 8.2)">o</text><text xml:space="preserve" font-family="HelveticaNeue-Light,Helvetica Neue" font-size="35.6" fill="#747373" transform="matrix(1.00, 0.00, -0.00, -1.00, 401.4, 8.2)">f</text><text xml:space="preserve" font-family="HelveticaNeue-Light,Helvetica Neue" font-size="35.6" fill="#747373" transform="matrix(1.00, 0.00, -0.00, -1.00, 410.6, 8.2)"> </text><text xml:space="preserve" font-family="HelveticaNeue-Bold,Helvetica Neue" font-weight="bold" font-size="35.6" fill="#747373" transform="matrix(1.00, 0.00, -0.00, -1.00, 420.5, 8.2)">H</text><text xml:space="preserve" font-family="HelveticaNeue-Bold,Helvetica Neue" font-weight="bold" font-size="35.6" fill="#747373" transform="matrix(1.00, 0.00, -0.00, -1.00, 446.9, 8.2)">i</text><text xml:space="preserve" font-family="HelveticaNeue-Bold,Helvetica Neue" font-weight="bold" font-size="35.6" fill="#747373" transform="matrix(1.00, 0.00, -0.00, -1.00, 456.1, 8.2)">s</text><text xml:space="preserve" font-family="HelveticaNeue-Bold,Helvetica Neue" font-weight="bold" font-size="35.6" fill="#747373" transform="matrix(1.00, 0.00, -0.00, -1.00, 475.3, 8.2)">t</text><text xml:space="preserve" font-family="HelveticaNeue-Bold,Helvetica Neue" font-weight="bold" font-size="35.6" fill="#747373" transform="matrix(1.00, 0.00, -0.00, -1.00, 487.8, 8.2)">o</text><text xml:space="preserve" font-family="HelveticaNeue-Bold,Helvetica Neue" font-weight="bold" font-size="35.6" fill="#747373" transform="matrix(1.00, 0.00, -0.00, -1.00, 509.6, 8.2)">r</text><text xml:space="preserve" font-family="HelveticaNeue-Bold,Helvetica Neue" font-weight="bold" font-size="35.6" fill="#747373" transform="matrix(1.00, 0.00, -0.00, -1.00, 523.4, 8.2)">i</text><text xml:space="preserve" font-family="HelveticaNeue-Bold,Helvetica Neue" font-weight="bold" font-size="35.6" fill="#747373" transform="matrix(1.00, 0.00, -0.00, -1.00, 532.6, 8.2)">c</text><text xml:space="preserve" font-family="HelveticaNeue-Bold,Helvetica Neue" font-weight="bold" font-size="35.6" fill="#747373" transform="matrix(1.00, 0.00, -0.00, -1.00, 553.1, 8.2)">a</text><text xml:space="preserve" font-family="HelveticaNeue-Bold,Helvetica Neue" font-weight="bold" font-size="35.6" fill="#747373" transform="matrix(1.00, 0.00, -0.00, -1.00, 573.6, 8.2)">l</text><text xml:space="preserve" font-family="HelveticaNeue-Bold,Helvetica Neue" font-weight="bold" font-size="35.6" fill="#747373" transform="matrix(1.00, 0.00, -0.00, -1.00, 582.7, 8.2)"> </text><text xml:space="preserve" font-family="HelveticaNeue-Bold,Helvetica Neue" font-weight="bold" font-size="35.6" fill="#747373" transform="matrix(1.00, 0.00, -0.00, -1.00, 592.7, 8.2)">D</text><text xml:space="preserve" font-family="HelveticaNeue-Bold,Helvetica Neue" font-weight="bold" font-size="35.6" fill="#747373" transform="matrix(1.00, 0.00, -0.00, -1.00, 619.1, 8.2)">i</text><text xml:space="preserve" font-family="HelveticaNeue-Bold,Helvetica Neue" font-weight="bold" font-size="35.6" fill="#747373" transform="matrix(1.00, 0.00, -0.00, -1.00, 628.3, 8.2)">s</text><text xml:space="preserve" font-family="HelveticaNeue-Bold,Helvetica Neue" font-weight="bold" font-size="35.6" fill="#747373" transform="matrix(1.00, 0.00, -0.00, -1.00, 647.4, 8.2)">c</text><text xml:space="preserve" font-family="HelveticaNeue-Bold,Helvetica Neue" font-weight="bold" font-size="35.6" fill="#747373" transform="matrix(1.00, 0.00, -0.00, -1.00, 667.9, 8.2)">o</text><text xml:space="preserve" font-family="HelveticaNeue-Bold,Helvetica Neue" font-weight="bold" font-size="35.6" fill="#747373" transform="matrix(1.00, 0.00, -0.00, -1.00, 689.6, 8.2)">v</text><text xml:space="preserve" font-family="HelveticaNeue-Bold,Helvetica Neue" font-weight="bold" font-size="35.6" fill="#747373" transform="matrix(1.00, 0.00, -0.00, -1.00, 708.2, 8.2)">e</text><text xml:space="preserve" font-family="HelveticaNeue-Bold,Helvetica Neue" font-weight="bold" font-size="35.6" fill="#747373" transform="matrix(1.00, 0.00, -0.00, -1.00, 728.6, 8.2)">r</text><text xml:space="preserve" font-family="HelveticaNeue-Bold,Helvetica Neue" font-weight="bold" font-size="35.6" fill="#747373" transform="matrix(1.00, 0.00, -0.00, -1.00, 742.5, 8.2)">y</text><text xml:space="preserve" font-family="HelveticaNeue-Light,Helvetica Neue" font-size="35.6" fill="#747373" transform="matrix(1.00, 0.00, -0.00, -1.00, 761.0, 8.2)"> </text><text xml:space="preserve" font-family="HelveticaNeue-Light,Helvetica Neue" font-size="35.6" fill="#747373" transform="matrix(1.00, 0.00, -0.00, -1.00, 770.9, 8.2)">-</text><text xml:space="preserve" font-family="HelveticaNeue-Light,Helvetica Neue" font-size="35.6" fill="#747373" transform="matrix(1.00, 0.00, -0.00, -1.00, 784.1, 8.2)"> </text><text xml:space="preserve" font-family="HelveticaNeue-Light,Helvetica Neue" font-size="35.6" fill="#747373" transform="matrix(1.00, 0.00, -0.00, -1.00, 794.0, 8.2)">i</text><text xml:space="preserve" font-family="HelveticaNeue-Light,Helvetica Neue" font-size="35.6" fill="#747373" transform="matrix(1.00, 0.00, -0.00, -1.00, 800.6, 8.2)">.</text><text xml:space="preserve" font-family="HelveticaNeue-Light,Helvetica Neue" font-size="35.6" fill="#747373" transform="matrix(1.00, 0.00, -0.00, -1.00, 810.5, 8.2)">e</text><text xml:space="preserve" font-family="HelveticaNeue-Light,Helvetica Neue" font-size="35.6" fill="#747373" transform="matrix(1.00, 0.00, -0.00, -1.00, 829.0, 8.2)">.</text></g></svg>