<?xml version="1.0" encoding="UTF-8" standalone="no"?><svg xmlns="http://www.w3.org/2000/svg" xmlns:xlink="http://www.w3.org/1999/xlink" clip-rule="evenodd" stroke-miterlimit="10" viewBox="0 0 543 35"><desc>SVG generated by Keynote</desc><defs></defs><g transform="matrix(1.00, 0.00, -0.00, -1.00, 0.0, 35.0)"><text xml:space="preserve" font-family="HelveticaNeue-Light,Helvetica Neue" font-size="35.6" fill="#747373" transform="matrix(1.00, 0.00, -0.00, -1.00, 0.6, 7.9)">a</text><text xml:space="preserve" font-family="HelveticaNeue-Light,Helvetica Neue" font-size="35.6" fill="#747373" transform="matrix(1.00, 0.00, -0.00, -1.00, 19.1, 7.9)">s</text><text xml:space="preserve" font-family="HelveticaNeue-Light,Helvetica Neue" font-size="35.6" fill="#747373" transform="matrix(1.00, 0.00, -0.00, -1.00, 36.3, 7.9)">s</text><text xml:space="preserve" font-family="HelveticaNeue-Light,Helvetica Neue" font-size="35.6" fill="#747373" transform="matrix(1.00, 0.00, -0.00, -1.00, 53.4, 7.9)">i</text><text xml:space="preserve" font-family="HelveticaNeue-Light,Helvetica Neue" font-size="35.6" fill="#747373" transform="matrix(1.00, 0.00, -0.00, -1.00, 60.0, 7.9)">t</text><text xml:space="preserve" font-family="HelveticaNeue-Light,Helvetica Neue" font-size="35.6" fill="#747373" transform="matrix(1.00, 0.00, -0.00, -1.00, 70.6, 7.9)">u</text><text xml:space="preserve" font-family="HelveticaNeue-Light,Helvetica Neue" font-size="35.6" fill="#747373" transform="matrix(1.00, 0.00, -0.00, -1.00, 89.7, 7.9)">d</text><text xml:space="preserve" font-family="HelveticaNeue-Light,Helvetica Neue" font-size="35.6" fill="#747373" transform="matrix(1.00, 0.00, -0.00, -1.00, 110.2, 7.9)">e</text><text xml:space="preserve" font-family="HelveticaNeue-Light,Helvetica Neue" font-size="35.6" fill="#747373" transform="matrix(1.00, 0.00, -0.00, -1.00, 128.7, 7.9)"> </text><text xml:space="preserve" font-family="HelveticaNeue-Light,Helvetica Neue" font-size="35.6" fill="#747373" transform="matrix(1.00, 0.00, -0.00, -1.00, 138.6, 7.9)">l</text><text xml:space="preserve" font-family="HelveticaNeue-Light,Helvetica Neue" font-size="35.6" fill="#747373" transform="matrix(1.00, 0.00, -0.00, -1.00, 145.2, 7.9)">i</text><text xml:space="preserve" font-family="HelveticaNeue-Light,Helvetica Neue" font-size="35.6" fill="#747373" transform="matrix(1.00, 0.00, -0.00, -1.00, 151.8, 7.9)">k</text><text xml:space="preserve" font-family="HelveticaNeue-Light,Helvetica Neue" font-size="35.6" fill="#747373" transform="matrix(1.00, 0.00, -0.00, -1.00, 169.6, 7.9)">e</text><text xml:space="preserve" font-family="HelveticaNeue-Light,Helvetica Neue" font-size="35.6" fill="#747373" transform="matrix(1.00, 0.00, -0.00, -1.00, 188.1, 7.9)"> </text><text xml:space="preserve" font-family="HelveticaNeue-Light,Helvetica Neue" font-size="35.6" fill="#747373" transform="matrix(1.00, 0.00, -0.00, -1.00, 198.0, 7.9)">a</text><text xml:space="preserve" font-family="HelveticaNeue-Light,Helvetica Neue" font-size="35.6" fill="#747373" transform="matrix(1.00, 0.00, -0.00, -1.00, 216.5, 7.9)"> </text><text xml:space="preserve" font-family="HelveticaNeue-Light,Helvetica Neue" font-size="35.6" fill="#747373" transform="matrix(1.00, 0.00, -0.00, -1.00, 226.4, 7.9)">h</text><text xml:space="preserve" font-family="HelveticaNeue-Light,Helvetica Neue" font-size="35.6" fill="#747373" transform="matrix(1.00, 0.00, -0.00, -1.00, 245.5, 7.9)">o</text><text xml:space="preserve" font-family="HelveticaNeue-Light,Helvetica Neue" font-size="35.6" fill="#747373" transform="matrix(1.00, 0.00, -0.00, -1.00, 265.3, 7.9)">a</text><text xml:space="preserve" font-family="HelveticaNeue-Light,Helvetica Neue" font-size="35.6" fill="#747373" transform="matrix(1.00, 0.00, -0.00, -1.00, 283.8, 7.9)">r</text><text xml:space="preserve" font-family="HelveticaNeue-Light,Helvetica Neue" font-size="35.6" fill="#747373" transform="matrix(1.00, 0.00, -0.00, -1.00, 294.4, 7.9)">d</text><text xml:space="preserve" font-family="HelveticaNeue-Light,Helvetica Neue" font-size="35.6" fill="#747373" transform="matrix(1.00, 0.00, -0.00, -1.00, 314.9, 7.9)">e</text><text xml:space="preserve" font-family="HelveticaNeue-Light,Helvetica Neue" font-size="35.6" fill="#747373" transform="matrix(1.00, 0.00, -0.00, -1.00, 333.4, 7.9)">r</text><text xml:space="preserve" font-family="HelveticaNeue-Light,Helvetica Neue" font-size="35.6" fill="#747373" transform="matrix(1.00, 0.00, -0.00, -1.00, 341.3, 7.9)">.</text><text xml:space="preserve" font-family="HelveticaNeue-Light,Helvetica Neue" font-size="35.6" fill="#747373" transform="matrix(1.00, 0.00, -0.00, -1.00, 351.2, 7.9)"> </text><text xml:space="preserve" font-family="HelveticaNeue-Light,Helvetica Neue" font-size="35.6" fill="#747373" transform="matrix(1.00, 0.00, -0.00, -1.00, 361.1, 7.9)">(</text><text xml:space="preserve" font-family="HelveticaNeue-Light,Helvetica Neue" font-size="35.6" fill="#747373" transform="matrix(1.00, 0.00, -0.00, -1.00, 369.7, 7.9)">p</text><text xml:space="preserve" font-family="HelveticaNeue-Light,Helvetica Neue" font-size="35.6" fill="#747373" transform="matrix(1.00, 0.00, -0.00, -1.00, 390.2, 7.9)">r</text><text xml:space="preserve" font-family="HelveticaNeue-Light,Helvetica Neue" font-size="35.6" fill="#747373" transform="matrix(1.00, 0.00, -0.00, -1.00, 400.8, 7.9)">o</text><text xml:space="preserve" font-family="HelveticaNeue-Light,Helvetica Neue" font-size="35.6" fill="#747373" transform="matrix(1.00, 0.00, -0.00, -1.00, 420.6, 7.9)">c</text><text xml:space="preserve" font-family="HelveticaNeue-Light,Helvetica Neue" font-size="35.6" fill="#747373" transform="matrix(1.00, 0.00, -0.00, -1.00, 439.1, 7.9)">e</text><text xml:space="preserve" font-family="HelveticaNeue-Light,Helvetica Neue" font-size="35.6" fill="#747373" transform="matrix(1.00, 0.00, -0.00, -1.00, 457.6, 7.9)">d</text><text xml:space="preserve" font-family="HelveticaNeue-Light,Helvetica Neue" font-size="35.6" fill="#747373" transform="matrix(1.00, 0.00, -0.00, -1.00, 478.0, 7.9)">u</text><text xml:space="preserve" font-family="HelveticaNeue-Light,Helvetica Neue" font-size="35.6" fill="#747373" transform="matrix(1.00, 0.00, -0.00, -1.00, 497.2, 7.9)">r</text><text xml:space="preserve" font-family="HelveticaNeue-Light,Helvetica Neue" font-size="35.6" fill="#747373" transform="matrix(1.00, 0.00, -0.00, -1.00, 508.4, 7.9)">a</text><text xml:space="preserve" font-family="HelveticaNeue-Light,Helvetica Neue" font-size="35.6" fill="#747373" transform="matrix(1.00, 0.00, -0.00, -1.00, 526.9, 7.9)">l</text><text xml:space="preserve" font-family="HelveticaNeue-Light,Helvetica Neue" font-size="35.6" fill="#747373" transform="matrix(1.00, 0.00, -0.00, -1.00, 533.5, 7.9)">)</text></g></svg>