<?xml version="1.0" encoding="UTF-8" standalone="no"?><svg xmlns="http://www.w3.org/2000/svg" xmlns:xlink="http://www.w3.org/1999/xlink" clip-rule="evenodd" stroke-miterlimit="10" viewBox="0 0 867 35"><desc>SVG generated by Keynote</desc><defs></defs><g transform="matrix(1.00, 0.00, -0.00, -1.00, 0.0, 35.0)"><text xml:space="preserve" font-family="HelveticaNeue-Light,Helvetica Neue" font-size="35.6" fill="#747373" transform="matrix(1.00, 0.00, -0.00, -1.00, -1.4, 8.0)">F</text><text xml:space="preserve" font-family="HelveticaNeue-Light,Helvetica Neue" font-size="35.6" fill="#747373" transform="matrix(1.00, 0.00, -0.00, -1.00, 17.8, 8.0)">a</text><text xml:space="preserve" font-family="HelveticaNeue-Light,Helvetica Neue" font-size="35.6" fill="#747373" transform="matrix(1.00, 0.00, -0.00, -1.00, 36.3, 8.0)">r</text><text xml:space="preserve" font-family="HelveticaNeue-Light,Helvetica Neue" font-size="35.6" fill="#747373" transform="matrix(1.00, 0.00, -0.00, -1.00, 47.5, 8.0)">a</text><text xml:space="preserve" font-family="HelveticaNeue-Light,Helvetica Neue" font-size="35.6" fill="#747373" transform="matrix(1.00, 0.00, -0.00, -1.00, 66.0, 8.0)">d</text><text xml:space="preserve" font-family="HelveticaNeue-Light,Helvetica Neue" font-size="35.6" fill="#747373" transform="matrix(1.00, 0.00, -0.00, -1.00, 86.5, 8.0)">a</text><text xml:space="preserve" font-family="HelveticaNeue-Light,Helvetica Neue" font-size="35.6" fill="#747373" transform="matrix(1.00, 0.00, -0.00, -1.00, 105.0, 8.0)">y</text><text xml:space="preserve" font-family="HelveticaNeue-Light,Helvetica Neue" font-size="35.6" fill="#747373" transform="matrix(1.00, 0.00, -0.00, -1.00, 121.5, 8.0)"> </text><text xml:space="preserve" font-family="HelveticaNeue-Light,Helvetica Neue" font-size="35.6" fill="#747373" transform="matrix(1.00, 0.00, -0.00, -1.00, 131.4, 8.0)">h</text><text xml:space="preserve" font-family="HelveticaNeue-Light,Helvetica Neue" font-size="35.6" fill="#747373" transform="matrix(1.00, 0.00, -0.00, -1.00, 150.5, 8.0)">a</text><text xml:space="preserve" font-family="HelveticaNeue-Light,Helvetica Neue" font-size="35.6" fill="#747373" transform="matrix(1.00, 0.00, -0.00, -1.00, 169.0, 8.0)">d</text><text xml:space="preserve" font-family="HelveticaNeue-Light,Helvetica Neue" font-size="35.6" fill="#747373" transform="matrix(1.00, 0.00, -0.00, -1.00, 189.5, 8.0)"> </text><text xml:space="preserve" font-family="HelveticaNeue-Light,Helvetica Neue" font-size="35.6" fill="#747373" transform="matrix(1.00, 0.00, -0.00, -1.00, 199.4, 8.0)">t</text><text xml:space="preserve" font-family="HelveticaNeue-Light,Helvetica Neue" font-size="35.6" fill="#747373" transform="matrix(1.00, 0.00, -0.00, -1.00, 209.9, 8.0)">o</text><text xml:space="preserve" font-family="HelveticaNeue-Light,Helvetica Neue" font-size="35.6" fill="#747373" transform="matrix(1.00, 0.00, -0.00, -1.00, 229.7, 8.0)"> </text><text xml:space="preserve" font-family="HelveticaNeue-Light,Helvetica Neue" font-size="35.6" fill="#747373" transform="matrix(1.00, 0.00, -0.00, -1.00, 239.6, 8.0)">o</text><text xml:space="preserve" font-family="HelveticaNeue-Light,Helvetica Neue" font-size="35.6" fill="#747373" transform="matrix(1.00, 0.00, -0.00, -1.00, 259.5, 8.0)">v</text><text xml:space="preserve" font-family="HelveticaNeue-Light,Helvetica Neue" font-size="35.6" fill="#747373" transform="matrix(1.00, 0.00, -0.00, -1.00, 276.0, 8.0)">e</text><text xml:space="preserve" font-family="HelveticaNeue-Light,Helvetica Neue" font-size="35.6" fill="#747373" transform="matrix(1.00, 0.00, -0.00, -1.00, 294.5, 8.0)">r</text><text xml:space="preserve" font-family="HelveticaNeue-Light,Helvetica Neue" font-size="35.6" fill="#747373" transform="matrix(1.00, 0.00, -0.00, -1.00, 305.0, 8.0)">c</text><text xml:space="preserve" font-family="HelveticaNeue-Light,Helvetica Neue" font-size="35.6" fill="#747373" transform="matrix(1.00, 0.00, -0.00, -1.00, 323.5, 8.0)">o</text><text xml:space="preserve" font-family="HelveticaNeue-Light,Helvetica Neue" font-size="35.6" fill="#747373" transform="matrix(1.00, 0.00, -0.00, -1.00, 343.4, 8.0)">m</text><text xml:space="preserve" font-family="HelveticaNeue-Light,Helvetica Neue" font-size="35.6" fill="#747373" transform="matrix(1.00, 0.00, -0.00, -1.00, 373.0, 8.0)">e</text><text xml:space="preserve" font-family="HelveticaNeue-Light,Helvetica Neue" font-size="35.6" fill="#747373" transform="matrix(1.00, 0.00, -0.00, -1.00, 391.5, 8.0)"> </text><text xml:space="preserve" font-family="HelveticaNeue-Light,Helvetica Neue" font-size="35.6" fill="#747373" transform="matrix(1.00, 0.00, -0.00, -1.00, 401.4, 8.0)">c</text><text xml:space="preserve" font-family="HelveticaNeue-Light,Helvetica Neue" font-size="35.6" fill="#747373" transform="matrix(1.00, 0.00, -0.00, -1.00, 419.9, 8.0)">l</text><text xml:space="preserve" font-family="HelveticaNeue-Light,Helvetica Neue" font-size="35.6" fill="#747373" transform="matrix(1.00, 0.00, -0.00, -1.00, 426.5, 8.0)">a</text><text xml:space="preserve" font-family="HelveticaNeue-Light,Helvetica Neue" font-size="35.6" fill="#747373" transform="matrix(1.00, 0.00, -0.00, -1.00, 445.0, 8.0)">s</text><text xml:space="preserve" font-family="HelveticaNeue-Light,Helvetica Neue" font-size="35.6" fill="#747373" transform="matrix(1.00, 0.00, -0.00, -1.00, 462.2, 8.0)">s</text><text xml:space="preserve" font-family="HelveticaNeue-Light,Helvetica Neue" font-size="35.6" fill="#747373" transform="matrix(1.00, 0.00, -0.00, -1.00, 479.3, 8.0)"> </text><text xml:space="preserve" font-family="HelveticaNeue-Light,Helvetica Neue" font-size="35.6" fill="#747373" transform="matrix(1.00, 0.00, -0.00, -1.00, 489.2, 8.0)">d</text><text xml:space="preserve" font-family="HelveticaNeue-Light,Helvetica Neue" font-size="35.6" fill="#747373" transform="matrix(1.00, 0.00, -0.00, -1.00, 509.7, 8.0)">i</text><text xml:space="preserve" font-family="HelveticaNeue-Light,Helvetica Neue" font-size="35.6" fill="#747373" transform="matrix(1.00, 0.00, -0.00, -1.00, 516.3, 8.0)">s</text><text xml:space="preserve" font-family="HelveticaNeue-Light,Helvetica Neue" font-size="35.6" fill="#747373" transform="matrix(1.00, 0.00, -0.00, -1.00, 533.4, 8.0)">t</text><text xml:space="preserve" font-family="HelveticaNeue-Light,Helvetica Neue" font-size="35.6" fill="#747373" transform="matrix(1.00, 0.00, -0.00, -1.00, 544.0, 8.0)">i</text><text xml:space="preserve" font-family="HelveticaNeue-Light,Helvetica Neue" font-size="35.6" fill="#747373" transform="matrix(1.00, 0.00, -0.00, -1.00, 550.6, 8.0)">n</text><text xml:space="preserve" font-family="HelveticaNeue-Light,Helvetica Neue" font-size="35.6" fill="#747373" transform="matrix(1.00, 0.00, -0.00, -1.00, 569.7, 8.0)">c</text><text xml:space="preserve" font-family="HelveticaNeue-Light,Helvetica Neue" font-size="35.6" fill="#747373" transform="matrix(1.00, 0.00, -0.00, -1.00, 588.2, 8.0)">t</text><text xml:space="preserve" font-family="HelveticaNeue-Light,Helvetica Neue" font-size="35.6" fill="#747373" transform="matrix(1.00, 0.00, -0.00, -1.00, 598.7, 8.0)">i</text><text xml:space="preserve" font-family="HelveticaNeue-Light,Helvetica Neue" font-size="35.6" fill="#747373" transform="matrix(1.00, 0.00, -0.00, -1.00, 605.3, 8.0)">o</text><text xml:space="preserve" font-family="HelveticaNeue-Light,Helvetica Neue" font-size="35.6" fill="#747373" transform="matrix(1.00, 0.00, -0.00, -1.00, 625.2, 8.0)">n</text><text xml:space="preserve" font-family="HelveticaNeue-Light,Helvetica Neue" font-size="35.6" fill="#747373" transform="matrix(1.00, 0.00, -0.00, -1.00, 644.3, 8.0)">s</text><text xml:space="preserve" font-family="HelveticaNeue-Light,Helvetica Neue" font-size="35.6" fill="#747373" transform="matrix(1.00, 0.00, -0.00, -1.00, 661.4, 8.0)"> </text><text xml:space="preserve" font-family="HelveticaNeue-Light,Helvetica Neue" font-size="35.6" fill="#747373" transform="matrix(1.00, 0.00, -0.00, -1.00, 671.3, 8.0)">a</text><text xml:space="preserve" font-family="HelveticaNeue-Light,Helvetica Neue" font-size="35.6" fill="#747373" transform="matrix(1.00, 0.00, -0.00, -1.00, 689.8, 8.0)">n</text><text xml:space="preserve" font-family="HelveticaNeue-Light,Helvetica Neue" font-size="35.6" fill="#747373" transform="matrix(1.00, 0.00, -0.00, -1.00, 709.0, 8.0)">d</text><text xml:space="preserve" font-family="HelveticaNeue-Light,Helvetica Neue" font-size="35.6" fill="#747373" transform="matrix(1.00, 0.00, -0.00, -1.00, 729.4, 8.0)"> </text><text xml:space="preserve" font-family="HelveticaNeue-Light,Helvetica Neue" font-size="35.6" fill="#747373" transform="matrix(1.00, 0.00, -0.00, -1.00, 739.3, 8.0)">h</text><text xml:space="preserve" font-family="HelveticaNeue-Light,Helvetica Neue" font-size="35.6" fill="#747373" transform="matrix(1.00, 0.00, -0.00, -1.00, 758.5, 8.0)">i</text><text xml:space="preserve" font-family="HelveticaNeue-Light,Helvetica Neue" font-size="35.6" fill="#747373" transform="matrix(1.00, 0.00, -0.00, -1.00, 765.1, 8.0)">s</text><text xml:space="preserve" font-family="HelveticaNeue-Light,Helvetica Neue" font-size="35.6" fill="#747373" transform="matrix(1.00, 0.00, -0.00, -1.00, 782.2, 8.0)"> </text><text xml:space="preserve" font-family="HelveticaNeue-Light,Helvetica Neue" font-size="35.6" fill="#747373" transform="matrix(1.00, 0.00, -0.00, -1.00, 792.1, 8.0)">b</text><text xml:space="preserve" font-family="HelveticaNeue-Light,Helvetica Neue" font-size="35.6" fill="#747373" transform="matrix(1.00, 0.00, -0.00, -1.00, 812.6, 8.0)">o</text><text xml:space="preserve" font-family="HelveticaNeue-Light,Helvetica Neue" font-size="35.6" fill="#747373" transform="matrix(1.00, 0.00, -0.00, -1.00, 832.4, 8.0)">s</text><text xml:space="preserve" font-family="HelveticaNeue-Light,Helvetica Neue" font-size="35.6" fill="#747373" transform="matrix(1.00, 0.00, -0.00, -1.00, 849.5, 8.0)">s</text></g></svg>