<?xml version="1.0" encoding="UTF-8" standalone="no"?><svg xmlns="http://www.w3.org/2000/svg" xmlns:xlink="http://www.w3.org/1999/xlink" clip-rule="evenodd" stroke-miterlimit="10" viewBox="0 0 670 37"><desc>SVG generated by Keynote</desc><defs></defs><g transform="matrix(1.00, 0.00, -0.00, -1.00, 0.0, 37.0)"><text xml:space="preserve" font-family="HelveticaNeue-Light,Helvetica Neue" font-size="35.6" fill="#747373" transform="matrix(1.00, 0.00, -0.00, -1.00, 1.6, 9.0)">w</text><text xml:space="preserve" font-family="HelveticaNeue-Light,Helvetica Neue" font-size="35.6" fill="#747373" transform="matrix(1.00, 0.00, -0.00, -1.00, 28.0, 9.0)">a</text><text xml:space="preserve" font-family="HelveticaNeue-Light,Helvetica Neue" font-size="35.6" fill="#747373" transform="matrix(1.00, 0.00, -0.00, -1.00, 46.5, 9.0)">s</text><text xml:space="preserve" font-family="HelveticaNeue-Light,Helvetica Neue" font-size="35.6" fill="#747373" transform="matrix(1.00, 0.00, -0.00, -1.00, 63.7, 9.0)"> </text><text xml:space="preserve" font-family="HelveticaNeue-Light,Helvetica Neue" font-size="35.6" fill="#747373" transform="matrix(1.00, 0.00, -0.00, -1.00, 73.6, 9.0)">a</text><text xml:space="preserve" font-family="HelveticaNeue-Light,Helvetica Neue" font-size="35.6" fill="#747373" transform="matrix(1.00, 0.00, -0.00, -1.00, 92.1, 9.0)"> </text><text xml:space="preserve" font-family="HelveticaNeue-Light,Helvetica Neue" font-size="35.6" fill="#747373" transform="matrix(1.00, 0.00, -0.00, -1.00, 102.0, 9.0)">d</text><text xml:space="preserve" font-family="HelveticaNeue-Light,Helvetica Neue" font-size="35.6" fill="#747373" transform="matrix(1.00, 0.00, -0.00, -1.00, 122.5, 9.0)">r</text><text xml:space="preserve" font-family="HelveticaNeue-Light,Helvetica Neue" font-size="35.6" fill="#747373" transform="matrix(1.00, 0.00, -0.00, -1.00, 133.7, 9.0)">u</text><text xml:space="preserve" font-family="HelveticaNeue-Light,Helvetica Neue" font-size="35.6" fill="#747373" transform="matrix(1.00, 0.00, -0.00, -1.00, 152.8, 9.0)">g</text><text xml:space="preserve" font-family="HelveticaNeue-Light,Helvetica Neue" font-size="35.6" fill="#747373" transform="matrix(1.00, 0.00, -0.00, -1.00, 172.6, 9.0)"> </text><text xml:space="preserve" font-family="HelveticaNeue-Light,Helvetica Neue" font-size="35.6" fill="#747373" transform="matrix(1.00, 0.00, -0.00, -1.00, 182.5, 9.0)">a</text><text xml:space="preserve" font-family="HelveticaNeue-Light,Helvetica Neue" font-size="35.6" fill="#747373" transform="matrix(1.00, 0.00, -0.00, -1.00, 201.0, 9.0)">d</text><text xml:space="preserve" font-family="HelveticaNeue-Light,Helvetica Neue" font-size="35.6" fill="#747373" transform="matrix(1.00, 0.00, -0.00, -1.00, 221.5, 9.0)">d</text><text xml:space="preserve" font-family="HelveticaNeue-Light,Helvetica Neue" font-size="35.6" fill="#747373" transform="matrix(1.00, 0.00, -0.00, -1.00, 242.0, 9.0)">i</text><text xml:space="preserve" font-family="HelveticaNeue-Light,Helvetica Neue" font-size="35.6" fill="#747373" transform="matrix(1.00, 0.00, -0.00, -1.00, 248.6, 9.0)">c</text><text xml:space="preserve" font-family="HelveticaNeue-Light,Helvetica Neue" font-size="35.6" fill="#747373" transform="matrix(1.00, 0.00, -0.00, -1.00, 267.1, 9.0)">t</text><text xml:space="preserve" font-family="HelveticaNeue-Light,Helvetica Neue" font-size="35.6" fill="#747373" transform="matrix(1.00, 0.00, -0.00, -1.00, 277.6, 9.0)">.</text><text xml:space="preserve" font-family="HelveticaNeue-Light,Helvetica Neue" font-size="35.6" fill="#747373" transform="matrix(1.00, 0.00, -0.00, -1.00, 287.5, 9.0)"> </text><text xml:space="preserve" font-family="HelveticaNeue-Light,Helvetica Neue" font-size="35.6" fill="#747373" transform="matrix(1.00, 0.00, -0.00, -1.00, 297.4, 9.0)">(</text><text xml:space="preserve" font-family="HelveticaNeue-Light,Helvetica Neue" font-size="35.6" fill="#747373" transform="matrix(1.00, 0.00, -0.00, -1.00, 306.0, 9.0)">s</text><text xml:space="preserve" font-family="HelveticaNeue-Light,Helvetica Neue" font-size="35.6" fill="#747373" transform="matrix(1.00, 0.00, -0.00, -1.00, 323.1, 9.0)">e</text><text xml:space="preserve" font-family="HelveticaNeue-Light,Helvetica Neue" font-size="35.6" fill="#747373" transform="matrix(1.00, 0.00, -0.00, -1.00, 341.6, 9.0)">r</text><text xml:space="preserve" font-family="HelveticaNeue-Light,Helvetica Neue" font-size="35.6" fill="#747373" transform="matrix(1.00, 0.00, -0.00, -1.00, 352.9, 9.0)">i</text><text xml:space="preserve" font-family="HelveticaNeue-Light,Helvetica Neue" font-size="35.6" fill="#747373" transform="matrix(1.00, 0.00, -0.00, -1.00, 359.5, 9.0)">a</text><text xml:space="preserve" font-family="HelveticaNeue-Light,Helvetica Neue" font-size="35.6" fill="#747373" transform="matrix(1.00, 0.00, -0.00, -1.00, 378.0, 9.0)">l</text><text xml:space="preserve" font-family="HelveticaNeue-Light,Helvetica Neue" font-size="35.6" fill="#747373" transform="matrix(1.00, 0.00, -0.00, -1.00, 384.6, 9.0)">i</text><text xml:space="preserve" font-family="HelveticaNeue-Light,Helvetica Neue" font-size="35.6" fill="#747373" transform="matrix(1.00, 0.00, -0.00, -1.00, 391.1, 9.0)">z</text><text xml:space="preserve" font-family="HelveticaNeue-Light,Helvetica Neue" font-size="35.6" fill="#747373" transform="matrix(1.00, 0.00, -0.00, -1.00, 407.7, 9.0)">e</text><text xml:space="preserve" font-family="HelveticaNeue-Light,Helvetica Neue" font-size="35.6" fill="#747373" transform="matrix(1.00, 0.00, -0.00, -1.00, 426.1, 9.0)">d</text><text xml:space="preserve" font-family="HelveticaNeue-Light,Helvetica Neue" font-size="35.6" fill="#747373" transform="matrix(1.00, 0.00, -0.00, -1.00, 446.6, 9.0)"> </text><text xml:space="preserve" font-family="HelveticaNeue-Light,Helvetica Neue" font-size="35.6" fill="#747373" transform="matrix(1.00, 0.00, -0.00, -1.00, 456.5, 9.0)">o</text><text xml:space="preserve" font-family="HelveticaNeue-Light,Helvetica Neue" font-size="35.6" fill="#747373" transform="matrix(1.00, 0.00, -0.00, -1.00, 476.3, 9.0)">r</text><text xml:space="preserve" font-family="HelveticaNeue-Light,Helvetica Neue" font-size="35.6" fill="#747373" transform="matrix(1.00, 0.00, -0.00, -1.00, 487.6, 9.0)"> </text><text xml:space="preserve" font-family="HelveticaNeue-Light,Helvetica Neue" font-size="35.6" fill="#747373" transform="matrix(1.00, 0.00, -0.00, -1.00, 497.5, 9.0)">p</text><text xml:space="preserve" font-family="HelveticaNeue-Light,Helvetica Neue" font-size="35.6" fill="#747373" transform="matrix(1.00, 0.00, -0.00, -1.00, 517.9, 9.0)">r</text><text xml:space="preserve" font-family="HelveticaNeue-Light,Helvetica Neue" font-size="35.6" fill="#747373" transform="matrix(1.00, 0.00, -0.00, -1.00, 528.5, 9.0)">o</text><text xml:space="preserve" font-family="HelveticaNeue-Light,Helvetica Neue" font-size="35.6" fill="#747373" transform="matrix(1.00, 0.00, -0.00, -1.00, 548.3, 9.0)">c</text><text xml:space="preserve" font-family="HelveticaNeue-Light,Helvetica Neue" font-size="35.6" fill="#747373" transform="matrix(1.00, 0.00, -0.00, -1.00, 566.8, 9.0)">e</text><text xml:space="preserve" font-family="HelveticaNeue-Light,Helvetica Neue" font-size="35.6" fill="#747373" transform="matrix(1.00, 0.00, -0.00, -1.00, 585.3, 9.0)">d</text><text xml:space="preserve" font-family="HelveticaNeue-Light,Helvetica Neue" font-size="35.6" fill="#747373" transform="matrix(1.00, 0.00, -0.00, -1.00, 605.8, 9.0)">u</text><text xml:space="preserve" font-family="HelveticaNeue-Light,Helvetica Neue" font-size="35.6" fill="#747373" transform="matrix(1.00, 0.00, -0.00, -1.00, 624.9, 9.0)">r</text><text xml:space="preserve" font-family="HelveticaNeue-Light,Helvetica Neue" font-size="35.6" fill="#747373" transform="matrix(1.00, 0.00, -0.00, -1.00, 636.1, 9.0)">a</text><text xml:space="preserve" font-family="HelveticaNeue-Light,Helvetica Neue" font-size="35.6" fill="#747373" transform="matrix(1.00, 0.00, -0.00, -1.00, 654.6, 9.0)">l</text><text xml:space="preserve" font-family="HelveticaNeue-Light,Helvetica Neue" font-size="35.6" fill="#747373" transform="matrix(1.00, 0.00, -0.00, -1.00, 661.2, 9.0)">)</text></g></svg>