<?xml version="1.0" encoding="UTF-8" standalone="no"?><svg xmlns="http://www.w3.org/2000/svg" xmlns:xlink="http://www.w3.org/1999/xlink" clip-rule="evenodd" stroke-miterlimit="10" viewBox="0 0 904 33"><desc>SVG generated by Keynote</desc><defs></defs><g transform="matrix(1.00, 0.00, -0.00, -1.00, 0.0, 33.0)"><text xml:space="preserve" font-family="HelveticaNeue,Helvetica Neue" font-size="22.7" fill="#747373" transform="matrix(1.00, 0.00, -0.00, -1.00, 0.0, 10.5)">•</text><text xml:space="preserve" font-family="HelveticaNeue-Light,Helvetica Neue" font-size="30.2" fill="#747373" transform="matrix(1.00, 0.00, -0.00, -1.00, 30.2, 7.9)">W</text><text xml:space="preserve" font-family="HelveticaNeue-Light,Helvetica Neue" font-size="30.2" fill="#747373" transform="matrix(1.00, 0.00, -0.00, -1.00, 56.5, 7.9)">a</text><text xml:space="preserve" font-family="HelveticaNeue-Light,Helvetica Neue" font-size="30.2" fill="#747373" transform="matrix(1.00, 0.00, -0.00, -1.00, 72.2, 7.9)">t</text><text xml:space="preserve" font-family="HelveticaNeue-Light,Helvetica Neue" font-size="30.2" fill="#747373" transform="matrix(1.00, 0.00, -0.00, -1.00, 81.2, 7.9)">c</text><text xml:space="preserve" font-family="HelveticaNeue-Light,Helvetica Neue" font-size="30.2" fill="#747373" transform="matrix(1.00, 0.00, -0.00, -1.00, 96.9, 7.9)">h</text><text xml:space="preserve" font-family="HelveticaNeue-Light,Helvetica Neue" font-size="30.2" fill="#747373" transform="matrix(1.00, 0.00, -0.00, -1.00, 113.1, 7.9)">/</text><text xml:space="preserve" font-family="HelveticaNeue-Light,Helvetica Neue" font-size="30.2" fill="#747373" transform="matrix(1.00, 0.00, -0.00, -1.00, 123.2, 7.9)">R</text><text xml:space="preserve" font-family="HelveticaNeue-Light,Helvetica Neue" font-size="30.2" fill="#747373" transform="matrix(1.00, 0.00, -0.00, -1.00, 143.4, 7.9)">e</text><text xml:space="preserve" font-family="HelveticaNeue-Light,Helvetica Neue" font-size="30.2" fill="#747373" transform="matrix(1.00, 0.00, -0.00, -1.00, 159.1, 7.9)">a</text><text xml:space="preserve" font-family="HelveticaNeue-Light,Helvetica Neue" font-size="30.2" fill="#747373" transform="matrix(1.00, 0.00, -0.00, -1.00, 174.8, 7.9)">d</text><text xml:space="preserve" font-family="HelveticaNeue-Light,Helvetica Neue" font-size="30.2" fill="#747373" transform="matrix(1.00, 0.00, -0.00, -1.00, 192.1, 7.9)"> </text><text xml:space="preserve" font-family="HelveticaNeue-Light,Helvetica Neue" font-size="30.2" fill="#747373" transform="matrix(1.00, 0.00, -0.00, -1.00, 200.5, 7.9)">t</text><text xml:space="preserve" font-family="HelveticaNeue-Light,Helvetica Neue" font-size="30.2" fill="#747373" transform="matrix(1.00, 0.00, -0.00, -1.00, 209.5, 7.9)">h</text><text xml:space="preserve" font-family="HelveticaNeue-Light,Helvetica Neue" font-size="30.2" fill="#747373" transform="matrix(1.00, 0.00, -0.00, -1.00, 225.7, 7.9)">e</text><text xml:space="preserve" font-family="HelveticaNeue-Light,Helvetica Neue" font-size="30.2" fill="#747373" transform="matrix(1.00, 0.00, -0.00, -1.00, 241.4, 7.9)"> </text><text xml:space="preserve" font-family="HelveticaNeue-Light,Helvetica Neue" font-size="30.2" fill="#747373" transform="matrix(1.00, 0.00, -0.00, -1.00, 249.8, 7.9)">f</text><text xml:space="preserve" font-family="HelveticaNeue-Light,Helvetica Neue" font-size="30.2" fill="#747373" transform="matrix(1.00, 0.00, -0.00, -1.00, 257.6, 7.9)">o</text><text xml:space="preserve" font-family="HelveticaNeue-Light,Helvetica Neue" font-size="30.2" fill="#747373" transform="matrix(1.00, 0.00, -0.00, -1.00, 274.5, 7.9)">l</text><text xml:space="preserve" font-family="HelveticaNeue-Light,Helvetica Neue" font-size="30.2" fill="#747373" transform="matrix(1.00, 0.00, -0.00, -1.00, 280.1, 7.9)">l</text><text xml:space="preserve" font-family="HelveticaNeue-Light,Helvetica Neue" font-size="30.2" fill="#747373" transform="matrix(1.00, 0.00, -0.00, -1.00, 285.6, 7.9)">o</text><text xml:space="preserve" font-family="HelveticaNeue-Light,Helvetica Neue" font-size="30.2" fill="#747373" transform="matrix(1.00, 0.00, -0.00, -1.00, 302.5, 7.9)">w</text><text xml:space="preserve" font-family="HelveticaNeue-Light,Helvetica Neue" font-size="30.2" fill="#747373" transform="matrix(1.00, 0.00, -0.00, -1.00, 324.9, 7.9)">i</text><text xml:space="preserve" font-family="HelveticaNeue-Light,Helvetica Neue" font-size="30.2" fill="#747373" transform="matrix(1.00, 0.00, -0.00, -1.00, 330.5, 7.9)">n</text><text xml:space="preserve" font-family="HelveticaNeue-Light,Helvetica Neue" font-size="30.2" fill="#747373" transform="matrix(1.00, 0.00, -0.00, -1.00, 346.7, 7.9)">g</text><text xml:space="preserve" font-family="HelveticaNeue-Light,Helvetica Neue" font-size="30.2" fill="#747373" transform="matrix(1.00, 0.00, -0.00, -1.00, 363.5, 7.9)"> </text><text xml:space="preserve" font-family="HelveticaNeue-Light,Helvetica Neue" font-size="30.2" fill="#747373" transform="matrix(1.00, 0.00, -0.00, -1.00, 371.9, 7.9)">a</text><text xml:space="preserve" font-family="HelveticaNeue-Light,Helvetica Neue" font-size="30.2" fill="#747373" transform="matrix(1.00, 0.00, -0.00, -1.00, 387.6, 7.9)">n</text><text xml:space="preserve" font-family="HelveticaNeue-Light,Helvetica Neue" font-size="30.2" fill="#747373" transform="matrix(1.00, 0.00, -0.00, -1.00, 403.9, 7.9)">d</text><text xml:space="preserve" font-family="HelveticaNeue-Light,Helvetica Neue" font-size="30.2" fill="#747373" transform="matrix(1.00, 0.00, -0.00, -1.00, 421.2, 7.9)"> </text><text xml:space="preserve" font-family="HelveticaNeue-Light,Helvetica Neue" font-size="30.2" fill="#747373" transform="matrix(1.00, 0.00, -0.00, -1.00, 429.6, 7.9)">t</text><text xml:space="preserve" font-family="HelveticaNeue-Light,Helvetica Neue" font-size="30.2" fill="#747373" transform="matrix(1.00, 0.00, -0.00, -1.00, 438.6, 7.9)">h</text><text xml:space="preserve" font-family="HelveticaNeue-Light,Helvetica Neue" font-size="30.2" fill="#747373" transform="matrix(1.00, 0.00, -0.00, -1.00, 454.8, 7.9)">e</text><text xml:space="preserve" font-family="HelveticaNeue-Light,Helvetica Neue" font-size="30.2" fill="#747373" transform="matrix(1.00, 0.00, -0.00, -1.00, 470.5, 7.9)">n</text><text xml:space="preserve" font-family="HelveticaNeue-Light,Helvetica Neue" font-size="30.2" fill="#747373" transform="matrix(1.00, 0.00, -0.00, -1.00, 486.7, 7.9)"> </text><text xml:space="preserve" font-family="HelveticaNeue-Bold,Helvetica Neue" font-weight="bold" font-size="30.2" fill="#747373" transform="matrix(1.00, 0.00, -0.00, -1.00, 495.1, 7.9)">f</text><text xml:space="preserve" font-family="HelveticaNeue-Bold,Helvetica Neue" font-weight="bold" font-size="30.2" fill="#747373" transform="matrix(1.00, 0.00, -0.00, -1.00, 505.2, 7.9)">o</text><text xml:space="preserve" font-family="HelveticaNeue-Bold,Helvetica Neue" font-weight="bold" font-size="30.2" fill="#747373" transform="matrix(1.00, 0.00, -0.00, -1.00, 523.7, 7.9)">r</text><text xml:space="preserve" font-family="HelveticaNeue-Bold,Helvetica Neue" font-weight="bold" font-size="30.2" fill="#747373" transform="matrix(1.00, 0.00, -0.00, -1.00, 535.5, 7.9)">m</text><text xml:space="preserve" font-family="HelveticaNeue-Bold,Helvetica Neue" font-weight="bold" font-size="30.2" fill="#747373" transform="matrix(1.00, 0.00, -0.00, -1.00, 562.9, 7.9)"> </text><text xml:space="preserve" font-family="HelveticaNeue-Bold,Helvetica Neue" font-weight="bold" font-size="30.2" fill="#747373" transform="matrix(1.00, 0.00, -0.00, -1.00, 571.3, 7.9)">a</text><text xml:space="preserve" font-family="HelveticaNeue-Bold,Helvetica Neue" font-weight="bold" font-size="30.2" fill="#747373" transform="matrix(1.00, 0.00, -0.00, -1.00, 588.6, 7.9)"> </text><text xml:space="preserve" font-family="HelveticaNeue-Bold,Helvetica Neue" font-weight="bold" font-size="30.2" fill="#747373" transform="matrix(1.00, 0.00, -0.00, -1.00, 597.0, 7.9)">q</text><text xml:space="preserve" font-family="HelveticaNeue-Bold,Helvetica Neue" font-weight="bold" font-size="30.2" fill="#747373" transform="matrix(1.00, 0.00, -0.00, -1.00, 615.5, 7.9)">u</text><text xml:space="preserve" font-family="HelveticaNeue-Bold,Helvetica Neue" font-weight="bold" font-size="30.2" fill="#747373" transform="matrix(1.00, 0.00, -0.00, -1.00, 633.4, 7.9)">e</text><text xml:space="preserve" font-family="HelveticaNeue-Bold,Helvetica Neue" font-weight="bold" font-size="30.2" fill="#747373" transform="matrix(1.00, 0.00, -0.00, -1.00, 650.8, 7.9)">s</text><text xml:space="preserve" font-family="HelveticaNeue-Bold,Helvetica Neue" font-weight="bold" font-size="30.2" fill="#747373" transform="matrix(1.00, 0.00, -0.00, -1.00, 667.0, 7.9)">t</text><text xml:space="preserve" font-family="HelveticaNeue-Bold,Helvetica Neue" font-weight="bold" font-size="30.2" fill="#747373" transform="matrix(1.00, 0.00, -0.00, -1.00, 677.7, 7.9)">i</text><text xml:space="preserve" font-family="HelveticaNeue-Bold,Helvetica Neue" font-weight="bold" font-size="30.2" fill="#747373" transform="matrix(1.00, 0.00, -0.00, -1.00, 685.5, 7.9)">o</text><text xml:space="preserve" font-family="HelveticaNeue-Bold,Helvetica Neue" font-weight="bold" font-size="30.2" fill="#747373" transform="matrix(1.00, 0.00, -0.00, -1.00, 704.0, 7.9)">n</text><text xml:space="preserve" font-family="HelveticaNeue-Light,Helvetica Neue" font-size="30.2" fill="#747373" transform="matrix(1.00, 0.00, -0.00, -1.00, 721.9, 7.9)"> </text><text xml:space="preserve" font-family="HelveticaNeue-Light,Helvetica Neue" font-size="30.2" fill="#747373" transform="matrix(1.00, 0.00, -0.00, -1.00, 730.3, 7.9)">t</text><text xml:space="preserve" font-family="HelveticaNeue-Light,Helvetica Neue" font-size="30.2" fill="#747373" transform="matrix(1.00, 0.00, -0.00, -1.00, 739.2, 7.9)">h</text><text xml:space="preserve" font-family="HelveticaNeue-Light,Helvetica Neue" font-size="30.2" fill="#747373" transform="matrix(1.00, 0.00, -0.00, -1.00, 755.5, 7.9)">a</text><text xml:space="preserve" font-family="HelveticaNeue-Light,Helvetica Neue" font-size="30.2" fill="#747373" transform="matrix(1.00, 0.00, -0.00, -1.00, 771.2, 7.9)">t</text><text xml:space="preserve" font-family="HelveticaNeue-Light,Helvetica Neue" font-size="30.2" fill="#747373" transform="matrix(1.00, 0.00, -0.00, -1.00, 780.1, 7.9)"> </text><text xml:space="preserve" font-family="HelveticaNeue-Light,Helvetica Neue" font-size="30.2" fill="#747373" transform="matrix(1.00, 0.00, -0.00, -1.00, 788.5, 7.9)">t</text><text xml:space="preserve" font-family="HelveticaNeue-Light,Helvetica Neue" font-size="30.2" fill="#747373" transform="matrix(1.00, 0.00, -0.00, -1.00, 797.5, 7.9)">a</text><text xml:space="preserve" font-family="HelveticaNeue-Light,Helvetica Neue" font-size="30.2" fill="#747373" transform="matrix(1.00, 0.00, -0.00, -1.00, 813.2, 7.9)">r</text><text xml:space="preserve" font-family="HelveticaNeue-Light,Helvetica Neue" font-size="30.2" fill="#747373" transform="matrix(1.00, 0.00, -0.00, -1.00, 822.7, 7.9)">g</text><text xml:space="preserve" font-family="HelveticaNeue-Light,Helvetica Neue" font-size="30.2" fill="#747373" transform="matrix(1.00, 0.00, -0.00, -1.00, 839.5, 7.9)">e</text><text xml:space="preserve" font-family="HelveticaNeue-Light,Helvetica Neue" font-size="30.2" fill="#747373" transform="matrix(1.00, 0.00, -0.00, -1.00, 855.2, 7.9)">t</text><text xml:space="preserve" font-family="HelveticaNeue-Light,Helvetica Neue" font-size="30.2" fill="#747373" transform="matrix(1.00, 0.00, -0.00, -1.00, 864.2, 7.9)">s</text><text xml:space="preserve" font-family="HelveticaNeue-Light,Helvetica Neue" font-size="30.2" fill="#747373" transform="matrix(1.00, 0.00, -0.00, -1.00, 878.7, 7.9)"> </text><text xml:space="preserve" font-family="HelveticaNeue-Light,Helvetica Neue" font-size="30.2" fill="#747373" transform="matrix(1.00, 0.00, -0.00, -1.00, 887.1, 7.9)">a</text></g></svg>