<?xml version="1.0" encoding="UTF-8" standalone="no"?><svg xmlns="http://www.w3.org/2000/svg" xmlns:xlink="http://www.w3.org/1999/xlink" clip-rule="evenodd" stroke-miterlimit="10" viewBox="0 0 812 31"><desc>SVG generated by Keynote</desc><defs></defs><g transform="matrix(1.00, 0.00, -0.00, -1.00, 0.0, 31.0)"><text xml:space="preserve" font-family="HelveticaNeue-Light,Helvetica Neue" font-size="30.2" fill="#747373" transform="matrix(1.00, 0.00, -0.00, -1.00, -0.8, 7.6)">i</text><text xml:space="preserve" font-family="HelveticaNeue-Light,Helvetica Neue" font-size="30.2" fill="#747373" transform="matrix(1.00, 0.00, -0.00, -1.00, 4.8, 7.6)">t</text><text xml:space="preserve" font-family="HelveticaNeue-Light,Helvetica Neue" font-size="30.2" fill="#747373" transform="matrix(1.00, 0.00, -0.00, -1.00, 13.8, 7.6)">e</text><text xml:space="preserve" font-family="HelveticaNeue-Light,Helvetica Neue" font-size="30.2" fill="#747373" transform="matrix(1.00, 0.00, -0.00, -1.00, 29.5, 7.6)">m</text><text xml:space="preserve" font-family="HelveticaNeue-Light,Helvetica Neue" font-size="30.2" fill="#747373" transform="matrix(1.00, 0.00, -0.00, -1.00, 54.7, 7.6)"> </text><text xml:space="preserve" font-family="HelveticaNeue-Light,Helvetica Neue" font-size="30.2" fill="#747373" transform="matrix(1.00, 0.00, -0.00, -1.00, 63.1, 7.6)">i</text><text xml:space="preserve" font-family="HelveticaNeue-Light,Helvetica Neue" font-size="30.2" fill="#747373" transform="matrix(1.00, 0.00, -0.00, -1.00, 68.7, 7.6)">n</text><text xml:space="preserve" font-family="HelveticaNeue-Light,Helvetica Neue" font-size="30.2" fill="#747373" transform="matrix(1.00, 0.00, -0.00, -1.00, 84.9, 7.6)"> </text><text xml:space="preserve" font-family="HelveticaNeue-Light,Helvetica Neue" font-size="30.2" fill="#747373" transform="matrix(1.00, 0.00, -0.00, -1.00, 93.3, 7.6)">a</text><text xml:space="preserve" font-family="HelveticaNeue-Light,Helvetica Neue" font-size="30.2" fill="#747373" transform="matrix(1.00, 0.00, -0.00, -1.00, 109.0, 7.6)">n</text><text xml:space="preserve" font-family="HelveticaNeue-Light,Helvetica Neue" font-size="30.2" fill="#747373" transform="matrix(1.00, 0.00, -0.00, -1.00, 125.3, 7.6)"> </text><text xml:space="preserve" font-family="HelveticaNeue-Light,Helvetica Neue" font-size="30.2" fill="#747373" transform="matrix(1.00, 0.00, -0.00, -1.00, 133.7, 7.6)">e</text><text xml:space="preserve" font-family="HelveticaNeue-Light,Helvetica Neue" font-size="30.2" fill="#747373" transform="matrix(1.00, 0.00, -0.00, -1.00, 149.4, 7.6)">q</text><text xml:space="preserve" font-family="HelveticaNeue-Light,Helvetica Neue" font-size="30.2" fill="#747373" transform="matrix(1.00, 0.00, -0.00, -1.00, 166.7, 7.6)">u</text><text xml:space="preserve" font-family="HelveticaNeue-Light,Helvetica Neue" font-size="30.2" fill="#747373" transform="matrix(1.00, 0.00, -0.00, -1.00, 182.9, 7.6)">a</text><text xml:space="preserve" font-family="HelveticaNeue-Light,Helvetica Neue" font-size="30.2" fill="#747373" transform="matrix(1.00, 0.00, -0.00, -1.00, 198.6, 7.6)">t</text><text xml:space="preserve" font-family="HelveticaNeue-Light,Helvetica Neue" font-size="30.2" fill="#747373" transform="matrix(1.00, 0.00, -0.00, -1.00, 207.6, 7.6)">i</text><text xml:space="preserve" font-family="HelveticaNeue-Light,Helvetica Neue" font-size="30.2" fill="#747373" transform="matrix(1.00, 0.00, -0.00, -1.00, 213.2, 7.6)">o</text><text xml:space="preserve" font-family="HelveticaNeue-Light,Helvetica Neue" font-size="30.2" fill="#747373" transform="matrix(1.00, 0.00, -0.00, -1.00, 230.0, 7.6)">n</text><text xml:space="preserve" font-family="HelveticaNeue-Light,Helvetica Neue" font-size="30.2" fill="#747373" transform="matrix(1.00, 0.00, -0.00, -1.00, 246.2, 7.6)">,</text><text xml:space="preserve" font-family="HelveticaNeue-Light,Helvetica Neue" font-size="30.2" fill="#747373" transform="matrix(1.00, 0.00, -0.00, -1.00, 254.6, 7.6)"> </text><text xml:space="preserve" font-family="HelveticaNeue-Light,Helvetica Neue" font-size="30.2" fill="#747373" transform="matrix(1.00, 0.00, -0.00, -1.00, 263.1, 7.6)">t</text><text xml:space="preserve" font-family="HelveticaNeue-Light,Helvetica Neue" font-size="30.2" fill="#747373" transform="matrix(1.00, 0.00, -0.00, -1.00, 272.0, 7.6)">h</text><text xml:space="preserve" font-family="HelveticaNeue-Light,Helvetica Neue" font-size="30.2" fill="#747373" transform="matrix(1.00, 0.00, -0.00, -1.00, 288.2, 7.6)">e</text><text xml:space="preserve" font-family="HelveticaNeue-Light,Helvetica Neue" font-size="30.2" fill="#747373" transform="matrix(1.00, 0.00, -0.00, -1.00, 303.9, 7.6)">n</text><text xml:space="preserve" font-family="HelveticaNeue-Light,Helvetica Neue" font-size="30.2" fill="#747373" transform="matrix(1.00, 0.00, -0.00, -1.00, 320.2, 7.6)"> </text><text xml:space="preserve" font-family="HelveticaNeue-Light,Helvetica Neue" font-size="30.2" fill="#747373" transform="matrix(1.00, 0.00, -0.00, -1.00, 328.6, 7.6)">t</text><text xml:space="preserve" font-family="HelveticaNeue-Light,Helvetica Neue" font-size="30.2" fill="#747373" transform="matrix(1.00, 0.00, -0.00, -1.00, 337.5, 7.6)">h</text><text xml:space="preserve" font-family="HelveticaNeue-Light,Helvetica Neue" font-size="30.2" fill="#747373" transform="matrix(1.00, 0.00, -0.00, -1.00, 353.8, 7.6)">e</text><text xml:space="preserve" font-family="HelveticaNeue-Light,Helvetica Neue" font-size="30.2" fill="#747373" transform="matrix(1.00, 0.00, -0.00, -1.00, 369.5, 7.6)"> </text><text xml:space="preserve" font-family="HelveticaNeue-Bold,Helvetica Neue" font-weight="bold" font-size="30.2" fill="#747373" transform="matrix(1.00, 0.00, -0.00, -1.00, 377.9, 7.6)">g</text><text xml:space="preserve" font-family="HelveticaNeue-Bold,Helvetica Neue" font-weight="bold" font-size="30.2" fill="#747373" transform="matrix(1.00, 0.00, -0.00, -1.00, 396.4, 7.6)">r</text><text xml:space="preserve" font-family="HelveticaNeue-Bold,Helvetica Neue" font-weight="bold" font-size="30.2" fill="#747373" transform="matrix(1.00, 0.00, -0.00, -1.00, 407.6, 7.6)">o</text><text xml:space="preserve" font-family="HelveticaNeue-Bold,Helvetica Neue" font-weight="bold" font-size="30.2" fill="#747373" transform="matrix(1.00, 0.00, -0.00, -1.00, 426.0, 7.6)">u</text><text xml:space="preserve" font-family="HelveticaNeue-Bold,Helvetica Neue" font-weight="bold" font-size="30.2" fill="#747373" transform="matrix(1.00, 0.00, -0.00, -1.00, 444.0, 7.6)">p</text><text xml:space="preserve" font-family="HelveticaNeue-Bold,Helvetica Neue" font-weight="bold" font-size="30.2" fill="#747373" transform="matrix(1.00, 0.00, -0.00, -1.00, 462.5, 7.6)">s</text><text xml:space="preserve" font-family="HelveticaNeue-Bold,Helvetica Neue" font-weight="bold" font-size="30.2" fill="#747373" transform="matrix(1.00, 0.00, -0.00, -1.00, 478.7, 7.6)"> </text><text xml:space="preserve" font-family="HelveticaNeue-Bold,Helvetica Neue" font-weight="bold" font-size="30.2" fill="#747373" transform="matrix(1.00, 0.00, -0.00, -1.00, 487.1, 7.6)">r</text><text xml:space="preserve" font-family="HelveticaNeue-Bold,Helvetica Neue" font-weight="bold" font-size="30.2" fill="#747373" transform="matrix(1.00, 0.00, -0.00, -1.00, 498.3, 7.6)">e</text><text xml:space="preserve" font-family="HelveticaNeue-Bold,Helvetica Neue" font-weight="bold" font-size="30.2" fill="#747373" transform="matrix(1.00, 0.00, -0.00, -1.00, 515.7, 7.6)">s</text><text xml:space="preserve" font-family="HelveticaNeue-Bold,Helvetica Neue" font-weight="bold" font-size="30.2" fill="#747373" transform="matrix(1.00, 0.00, -0.00, -1.00, 531.9, 7.6)">h</text><text xml:space="preserve" font-family="HelveticaNeue-Bold,Helvetica Neue" font-weight="bold" font-size="30.2" fill="#747373" transform="matrix(1.00, 0.00, -0.00, -1.00, 549.8, 7.6)">u</text><text xml:space="preserve" font-family="HelveticaNeue-Bold,Helvetica Neue" font-weight="bold" font-size="30.2" fill="#747373" transform="matrix(1.00, 0.00, -0.00, -1.00, 567.8, 7.6)">ﬄ</text><text xml:space="preserve" font-family="HelveticaNeue-Bold,Helvetica Neue" font-weight="bold" font-size="30.2" fill="#747373" transform="matrix(1.00, 0.00, -0.00, -1.00, 594.8, 7.6)">e</text><text xml:space="preserve" font-family="HelveticaNeue-Light,Helvetica Neue" font-size="30.2" fill="#747373" transform="matrix(1.00, 0.00, -0.00, -1.00, 612.2, 7.6)"> </text><text xml:space="preserve" font-family="HelveticaNeue-Light,Helvetica Neue" font-size="30.2" fill="#747373" transform="matrix(1.00, 0.00, -0.00, -1.00, 620.6, 7.6)">s</text><text xml:space="preserve" font-family="HelveticaNeue-Light,Helvetica Neue" font-size="30.2" fill="#747373" transform="matrix(1.00, 0.00, -0.00, -1.00, 635.1, 7.6)">o</text><text xml:space="preserve" font-family="HelveticaNeue-Light,Helvetica Neue" font-size="30.2" fill="#747373" transform="matrix(1.00, 0.00, -0.00, -1.00, 651.9, 7.6)"> </text><text xml:space="preserve" font-family="HelveticaNeue-Light,Helvetica Neue" font-size="30.2" fill="#747373" transform="matrix(1.00, 0.00, -0.00, -1.00, 660.3, 7.6)">t</text><text xml:space="preserve" font-family="HelveticaNeue-Light,Helvetica Neue" font-size="30.2" fill="#747373" transform="matrix(1.00, 0.00, -0.00, -1.00, 669.3, 7.6)">h</text><text xml:space="preserve" font-family="HelveticaNeue-Light,Helvetica Neue" font-size="30.2" fill="#747373" transform="matrix(1.00, 0.00, -0.00, -1.00, 685.5, 7.6)">e</text><text xml:space="preserve" font-family="HelveticaNeue-Light,Helvetica Neue" font-size="30.2" fill="#747373" transform="matrix(1.00, 0.00, -0.00, -1.00, 701.2, 7.6)">r</text><text xml:space="preserve" font-family="HelveticaNeue-Light,Helvetica Neue" font-size="30.2" fill="#747373" transform="matrix(1.00, 0.00, -0.00, -1.00, 710.2, 7.6)">e</text><text xml:space="preserve" font-family="HelveticaNeue-Light,Helvetica Neue" font-size="30.2" fill="#747373" transform="matrix(1.00, 0.00, -0.00, -1.00, 725.9, 7.6)"> </text><text xml:space="preserve" font-family="HelveticaNeue-Light,Helvetica Neue" font-size="30.2" fill="#747373" transform="matrix(1.00, 0.00, -0.00, -1.00, 734.3, 7.6)">i</text><text xml:space="preserve" font-family="HelveticaNeue-Light,Helvetica Neue" font-size="30.2" fill="#747373" transform="matrix(1.00, 0.00, -0.00, -1.00, 739.9, 7.6)">s</text><text xml:space="preserve" font-family="HelveticaNeue-Light,Helvetica Neue" font-size="30.2" fill="#747373" transform="matrix(1.00, 0.00, -0.00, -1.00, 754.5, 7.6)"> </text><text xml:space="preserve" font-family="HelveticaNeue-Light,Helvetica Neue" font-size="30.2" fill="#747373" transform="matrix(1.00, 0.00, -0.00, -1.00, 762.9, 7.6)">o</text><text xml:space="preserve" font-family="HelveticaNeue-Light,Helvetica Neue" font-size="30.2" fill="#747373" transform="matrix(1.00, 0.00, -0.00, -1.00, 779.7, 7.6)">n</text><text xml:space="preserve" font-family="HelveticaNeue-Light,Helvetica Neue" font-size="30.2" fill="#747373" transform="matrix(1.00, 0.00, -0.00, -1.00, 795.9, 7.6)">e</text></g></svg>