<?xml version="1.0" encoding="UTF-8" standalone="no"?><svg xmlns="http://www.w3.org/2000/svg" xmlns:xlink="http://www.w3.org/1999/xlink" clip-rule="evenodd" stroke-miterlimit="10" viewBox="0 0 837 31"><desc>SVG generated by Keynote</desc><defs></defs><g transform="matrix(1.00, 0.00, -0.00, -1.00, 0.0, 31.0)"><text xml:space="preserve" font-family="HelveticaNeue-Bold,Helvetica Neue" font-weight="bold" font-size="30.2" fill="#747373" transform="matrix(1.00, 0.00, -0.00, -1.00, 0.2, 7.6)">“</text><text xml:space="preserve" font-family="HelveticaNeue-Bold,Helvetica Neue" font-weight="bold" font-size="30.2" fill="#747373" transform="matrix(1.00, 0.00, -0.00, -1.00, 14.2, 7.6)">d</text><text xml:space="preserve" font-family="HelveticaNeue-Bold,Helvetica Neue" font-weight="bold" font-size="30.2" fill="#747373" transform="matrix(1.00, 0.00, -0.00, -1.00, 32.7, 7.6)">o</text><text xml:space="preserve" font-family="HelveticaNeue-Bold,Helvetica Neue" font-weight="bold" font-size="30.2" fill="#747373" transform="matrix(1.00, 0.00, -0.00, -1.00, 51.2, 7.6)">m</text><text xml:space="preserve" font-family="HelveticaNeue-Bold,Helvetica Neue" font-weight="bold" font-size="30.2" fill="#747373" transform="matrix(1.00, 0.00, -0.00, -1.00, 78.6, 7.6)">a</text><text xml:space="preserve" font-family="HelveticaNeue-Bold,Helvetica Neue" font-weight="bold" font-size="30.2" fill="#747373" transform="matrix(1.00, 0.00, -0.00, -1.00, 95.9, 7.6)">i</text><text xml:space="preserve" font-family="HelveticaNeue-Bold,Helvetica Neue" font-weight="bold" font-size="30.2" fill="#747373" transform="matrix(1.00, 0.00, -0.00, -1.00, 103.8, 7.6)">n</text><text xml:space="preserve" font-family="HelveticaNeue-Bold,Helvetica Neue" font-weight="bold" font-size="30.2" fill="#747373" transform="matrix(1.00, 0.00, -0.00, -1.00, 121.7, 7.6)"> </text><text xml:space="preserve" font-family="HelveticaNeue-Bold,Helvetica Neue" font-weight="bold" font-size="30.2" fill="#747373" transform="matrix(1.00, 0.00, -0.00, -1.00, 130.1, 7.6)">e</text><text xml:space="preserve" font-family="HelveticaNeue-Bold,Helvetica Neue" font-weight="bold" font-size="30.2" fill="#747373" transform="matrix(1.00, 0.00, -0.00, -1.00, 147.4, 7.6)">x</text><text xml:space="preserve" font-family="HelveticaNeue-Bold,Helvetica Neue" font-weight="bold" font-size="30.2" fill="#747373" transform="matrix(1.00, 0.00, -0.00, -1.00, 163.7, 7.6)">p</text><text xml:space="preserve" font-family="HelveticaNeue-Bold,Helvetica Neue" font-weight="bold" font-size="30.2" fill="#747373" transform="matrix(1.00, 0.00, -0.00, -1.00, 182.2, 7.6)">e</text><text xml:space="preserve" font-family="HelveticaNeue-Bold,Helvetica Neue" font-weight="bold" font-size="30.2" fill="#747373" transform="matrix(1.00, 0.00, -0.00, -1.00, 199.5, 7.6)">r</text><text xml:space="preserve" font-family="HelveticaNeue-Bold,Helvetica Neue" font-weight="bold" font-size="30.2" fill="#747373" transform="matrix(1.00, 0.00, -0.00, -1.00, 211.3, 7.6)">t</text><text xml:space="preserve" font-family="HelveticaNeue-Bold,Helvetica Neue" font-weight="bold" font-size="30.2" fill="#747373" transform="matrix(1.00, 0.00, -0.00, -1.00, 221.9, 7.6)">”</text><text xml:space="preserve" font-family="HelveticaNeue-Light,Helvetica Neue" font-size="30.2" fill="#747373" transform="matrix(1.00, 0.00, -0.00, -1.00, 235.9, 7.6)"> </text><text xml:space="preserve" font-family="HelveticaNeue-Light,Helvetica Neue" font-size="30.2" fill="#747373" transform="matrix(1.00, 0.00, -0.00, -1.00, 244.3, 7.6)">p</text><text xml:space="preserve" font-family="HelveticaNeue-Light,Helvetica Neue" font-size="30.2" fill="#747373" transform="matrix(1.00, 0.00, -0.00, -1.00, 261.7, 7.6)">e</text><text xml:space="preserve" font-family="HelveticaNeue-Light,Helvetica Neue" font-size="30.2" fill="#747373" transform="matrix(1.00, 0.00, -0.00, -1.00, 277.4, 7.6)">r</text><text xml:space="preserve" font-family="HelveticaNeue-Light,Helvetica Neue" font-size="30.2" fill="#747373" transform="matrix(1.00, 0.00, -0.00, -1.00, 286.9, 7.6)"> </text><text xml:space="preserve" font-family="HelveticaNeue-Light,Helvetica Neue" font-size="30.2" fill="#747373" transform="matrix(1.00, 0.00, -0.00, -1.00, 295.3, 7.6)">n</text><text xml:space="preserve" font-family="HelveticaNeue-Light,Helvetica Neue" font-size="30.2" fill="#747373" transform="matrix(1.00, 0.00, -0.00, -1.00, 311.6, 7.6)">e</text><text xml:space="preserve" font-family="HelveticaNeue-Light,Helvetica Neue" font-size="30.2" fill="#747373" transform="matrix(1.00, 0.00, -0.00, -1.00, 327.3, 7.6)">w</text><text xml:space="preserve" font-family="HelveticaNeue-Light,Helvetica Neue" font-size="30.2" fill="#747373" transform="matrix(1.00, 0.00, -0.00, -1.00, 349.7, 7.6)"> </text><text xml:space="preserve" font-family="HelveticaNeue-Light,Helvetica Neue" font-size="30.2" fill="#747373" transform="matrix(1.00, 0.00, -0.00, -1.00, 358.1, 7.6)">p</text><text xml:space="preserve" font-family="HelveticaNeue-Light,Helvetica Neue" font-size="30.2" fill="#747373" transform="matrix(1.00, 0.00, -0.00, -1.00, 375.4, 7.6)">r</text><text xml:space="preserve" font-family="HelveticaNeue-Light,Helvetica Neue" font-size="30.2" fill="#747373" transform="matrix(1.00, 0.00, -0.00, -1.00, 384.4, 7.6)">o</text><text xml:space="preserve" font-family="HelveticaNeue-Light,Helvetica Neue" font-size="30.2" fill="#747373" transform="matrix(1.00, 0.00, -0.00, -1.00, 401.2, 7.6)">j</text><text xml:space="preserve" font-family="HelveticaNeue-Light,Helvetica Neue" font-size="30.2" fill="#747373" transform="matrix(1.00, 0.00, -0.00, -1.00, 406.8, 7.6)">e</text><text xml:space="preserve" font-family="HelveticaNeue-Light,Helvetica Neue" font-size="30.2" fill="#747373" transform="matrix(1.00, 0.00, -0.00, -1.00, 422.5, 7.6)">c</text><text xml:space="preserve" font-family="HelveticaNeue-Light,Helvetica Neue" font-size="30.2" fill="#747373" transform="matrix(1.00, 0.00, -0.00, -1.00, 438.2, 7.6)">t</text><text xml:space="preserve" font-family="HelveticaNeue-Light,Helvetica Neue" font-size="30.2" fill="#747373" transform="matrix(1.00, 0.00, -0.00, -1.00, 447.2, 7.6)"> </text><text xml:space="preserve" font-family="HelveticaNeue-Light,Helvetica Neue" font-size="30.2" fill="#747373" transform="matrix(1.00, 0.00, -0.00, -1.00, 455.6, 7.6)">g</text><text xml:space="preserve" font-family="HelveticaNeue-Light,Helvetica Neue" font-size="30.2" fill="#747373" transform="matrix(1.00, 0.00, -0.00, -1.00, 472.4, 7.6)">r</text><text xml:space="preserve" font-family="HelveticaNeue-Light,Helvetica Neue" font-size="30.2" fill="#747373" transform="matrix(1.00, 0.00, -0.00, -1.00, 481.4, 7.6)">o</text><text xml:space="preserve" font-family="HelveticaNeue-Light,Helvetica Neue" font-size="30.2" fill="#747373" transform="matrix(1.00, 0.00, -0.00, -1.00, 498.2, 7.6)">u</text><text xml:space="preserve" font-family="HelveticaNeue-Light,Helvetica Neue" font-size="30.2" fill="#747373" transform="matrix(1.00, 0.00, -0.00, -1.00, 514.4, 7.6)">p</text><text xml:space="preserve" font-family="HelveticaNeue-Light,Helvetica Neue" font-size="30.2" fill="#747373" transform="matrix(1.00, 0.00, -0.00, -1.00, 531.8, 7.6)"> </text><text xml:space="preserve" font-family="HelveticaNeue-Light,Helvetica Neue" font-size="30.2" fill="#747373" transform="matrix(1.00, 0.00, -0.00, -1.00, 540.2, 7.6)">f</text><text xml:space="preserve" font-family="HelveticaNeue-Light,Helvetica Neue" font-size="30.2" fill="#747373" transform="matrix(1.00, 0.00, -0.00, -1.00, 548.0, 7.6)">o</text><text xml:space="preserve" font-family="HelveticaNeue-Light,Helvetica Neue" font-size="30.2" fill="#747373" transform="matrix(1.00, 0.00, -0.00, -1.00, 564.8, 7.6)">r</text><text xml:space="preserve" font-family="HelveticaNeue-Light,Helvetica Neue" font-size="30.2" fill="#747373" transform="matrix(1.00, 0.00, -0.00, -1.00, 574.3, 7.6)"> </text><text xml:space="preserve" font-family="HelveticaNeue-Light,Helvetica Neue" font-size="30.2" fill="#747373" transform="matrix(1.00, 0.00, -0.00, -1.00, 582.8, 7.6)">t</text><text xml:space="preserve" font-family="HelveticaNeue-Light,Helvetica Neue" font-size="30.2" fill="#747373" transform="matrix(1.00, 0.00, -0.00, -1.00, 591.7, 7.6)">h</text><text xml:space="preserve" font-family="HelveticaNeue-Light,Helvetica Neue" font-size="30.2" fill="#747373" transform="matrix(1.00, 0.00, -0.00, -1.00, 607.9, 7.6)">e</text><text xml:space="preserve" font-family="HelveticaNeue-Light,Helvetica Neue" font-size="30.2" fill="#747373" transform="matrix(1.00, 0.00, -0.00, -1.00, 623.6, 7.6)"> </text><text xml:space="preserve" font-family="HelveticaNeue-Light,Helvetica Neue" font-size="30.2" fill="#747373" transform="matrix(1.00, 0.00, -0.00, -1.00, 632.0, 7.6)">n</text><text xml:space="preserve" font-family="HelveticaNeue-Light,Helvetica Neue" font-size="30.2" fill="#747373" transform="matrix(1.00, 0.00, -0.00, -1.00, 648.3, 7.6)">e</text><text xml:space="preserve" font-family="HelveticaNeue-Light,Helvetica Neue" font-size="30.2" fill="#747373" transform="matrix(1.00, 0.00, -0.00, -1.00, 664.0, 7.6)">x</text><text xml:space="preserve" font-family="HelveticaNeue-Light,Helvetica Neue" font-size="30.2" fill="#747373" transform="matrix(1.00, 0.00, -0.00, -1.00, 678.5, 7.6)">t</text><text xml:space="preserve" font-family="HelveticaNeue-Light,Helvetica Neue" font-size="30.2" fill="#747373" transform="matrix(1.00, 0.00, -0.00, -1.00, 687.5, 7.6)"> </text><text xml:space="preserve" font-family="HelveticaNeue-Light,Helvetica Neue" font-size="30.2" fill="#747373" transform="matrix(1.00, 0.00, -0.00, -1.00, 695.9, 7.6)">s</text><text xml:space="preserve" font-family="HelveticaNeue-Light,Helvetica Neue" font-size="30.2" fill="#747373" transform="matrix(1.00, 0.00, -0.00, -1.00, 710.4, 7.6)">t</text><text xml:space="preserve" font-family="HelveticaNeue-Light,Helvetica Neue" font-size="30.2" fill="#747373" transform="matrix(1.00, 0.00, -0.00, -1.00, 719.4, 7.6)">e</text><text xml:space="preserve" font-family="HelveticaNeue-Light,Helvetica Neue" font-size="30.2" fill="#747373" transform="matrix(1.00, 0.00, -0.00, -1.00, 735.1, 7.6)">p</text><text xml:space="preserve" font-family="HelveticaNeue-Light,Helvetica Neue" font-size="30.2" fill="#747373" transform="matrix(1.00, 0.00, -0.00, -1.00, 752.4, 7.6)"> </text><text xml:space="preserve" font-family="HelveticaNeue-Light,Helvetica Neue" font-size="30.2" fill="#747373" transform="matrix(1.00, 0.00, -0.00, -1.00, 760.8, 7.6)">w</text><text xml:space="preserve" font-family="HelveticaNeue-Light,Helvetica Neue" font-size="30.2" fill="#747373" transform="matrix(1.00, 0.00, -0.00, -1.00, 783.2, 7.6)">h</text><text xml:space="preserve" font-family="HelveticaNeue-Light,Helvetica Neue" font-size="30.2" fill="#747373" transform="matrix(1.00, 0.00, -0.00, -1.00, 799.5, 7.6)">i</text><text xml:space="preserve" font-family="HelveticaNeue-Light,Helvetica Neue" font-size="30.2" fill="#747373" transform="matrix(1.00, 0.00, -0.00, -1.00, 805.1, 7.6)">c</text><text xml:space="preserve" font-family="HelveticaNeue-Light,Helvetica Neue" font-size="30.2" fill="#747373" transform="matrix(1.00, 0.00, -0.00, -1.00, 820.8, 7.6)">h</text></g></svg>