<?xml version="1.0" encoding="UTF-8" standalone="no"?><svg xmlns="http://www.w3.org/2000/svg" xmlns:xlink="http://www.w3.org/1999/xlink" clip-rule="evenodd" stroke-miterlimit="10" viewBox="0 0 207 29"><desc>SVG generated by Keynote</desc><defs></defs><g transform="matrix(1.00, 0.00, -0.00, -1.00, 0.0, 29.0)"><text xml:space="preserve" font-family="HelveticaNeue-Light,Helvetica Neue" font-size="30.0" fill="#000000" transform="matrix(1.00, 0.00, -0.00, -1.00, -0.4, 2.8)">1</text><text xml:space="preserve" font-family="HelveticaNeue-Light,Helvetica Neue" font-size="30.0" fill="#000000" transform="matrix(1.00, 0.00, -0.00, -1.00, 16.3, 2.8)">.</text><text xml:space="preserve" font-family="HelveticaNeue-Light,Helvetica Neue" font-size="30.0" fill="#000000" transform="matrix(1.00, 0.00, -0.00, -1.00, 24.6, 2.8)">6</text><text xml:space="preserve" font-family="HelveticaNeue-Light,Helvetica Neue" font-size="30.0" fill="#000000" transform="matrix(1.00, 0.00, -0.00, -1.00, 41.3, 2.8)">8</text><text xml:space="preserve" font-family="HelveticaNeue-Light,Helvetica Neue" font-size="30.0" fill="#000000" transform="matrix(1.00, 0.00, -0.00, -1.00, 58.0, 2.8)"> </text><text xml:space="preserve" font-family="HelveticaNeue-Light,Helvetica Neue" font-size="30.0" fill="#000000" transform="matrix(1.00, 0.00, -0.00, -1.00, 66.3, 2.8)">x</text><text xml:space="preserve" font-family="HelveticaNeue-Light,Helvetica Neue" font-size="30.0" fill="#000000" transform="matrix(1.00, 0.00, -0.00, -1.00, 80.8, 2.8)"> </text><text xml:space="preserve" font-family="HelveticaNeue-Light,Helvetica Neue" font-size="30.0" fill="#000000" transform="matrix(1.00, 0.00, -0.00, -1.00, 89.1, 2.8)">1</text><text xml:space="preserve" font-family="HelveticaNeue-Light,Helvetica Neue" font-size="30.0" fill="#000000" transform="matrix(1.00, 0.00, -0.00, -1.00, 105.8, 2.8)">0</text><text xml:space="preserve" font-family="HelveticaNeue-Light,Helvetica Neue" font-size="20.0" fill="#000000" transform="matrix(1.00, 0.00, -0.00, -1.00, 122.5, 12.5)">-</text><text xml:space="preserve" font-family="HelveticaNeue-Light,Helvetica Neue" font-size="20.0" fill="#000000" transform="matrix(1.00, 0.00, -0.00, -1.00, 129.9, 12.5)">8</text><text xml:space="preserve" font-family="HelveticaNeue-Light,Helvetica Neue" font-size="30.0" fill="#000000" transform="matrix(1.00, 0.00, -0.00, -1.00, 141.0, 2.8)"> </text><text xml:space="preserve" font-family="HelveticaNeue-Light,Helvetica Neue" font-size="30.0" fill="#000000" transform="matrix(1.00, 0.00, -0.00, -1.00, 149.3, 2.8)">Ω</text><text xml:space="preserve" font-family="HelveticaNeue-Light,Helvetica Neue" font-size="30.0" fill="#000000" transform="matrix(1.00, 0.00, -0.00, -1.00, 172.0, 2.8)">/</text><text xml:space="preserve" font-family="HelveticaNeue-Light,Helvetica Neue" font-size="30.0" fill="#000000" transform="matrix(1.00, 0.00, -0.00, -1.00, 182.0, 2.8)">m</text></g></svg>