<?xml version="1.0" encoding="UTF-8" standalone="no"?><svg xmlns="http://www.w3.org/2000/svg" xmlns:xlink="http://www.w3.org/1999/xlink" clip-rule="evenodd" stroke-miterlimit="10" viewBox="0 0 379 28"><desc>SVG generated by Keynote</desc><defs></defs><g transform="matrix(1.00, 0.00, -0.00, -1.00, 0.0, 28.0)"><text xml:space="preserve" font-family="HelveticaNeue-Bold,Helvetica Neue" font-weight="bold" font-size="19.5" fill="#747373" transform="matrix(1.00, 0.00, -0.00, -1.00, 0.0, 8.9)">•</text><text xml:space="preserve" font-family="HelveticaNeue-Bold,Helvetica Neue" font-weight="bold" font-size="26.0" fill="#747373" transform="matrix(1.00, 0.00, -0.00, -1.00, 26.0, 6.4)">P</text><text xml:space="preserve" font-family="HelveticaNeue-Bold,Helvetica Neue" font-weight="bold" font-size="26.0" fill="#747373" transform="matrix(1.00, 0.00, -0.00, -1.00, 43.3, 6.4)">C</text><text xml:space="preserve" font-family="HelveticaNeue-Bold,Helvetica Neue" font-weight="bold" font-size="26.0" fill="#747373" transform="matrix(1.00, 0.00, -0.00, -1.00, 62.6, 6.4)">C</text><text xml:space="preserve" font-family="HelveticaNeue-Bold,Helvetica Neue" font-weight="bold" font-size="26.0" fill="#747373" transform="matrix(1.00, 0.00, -0.00, -1.00, 81.9, 6.4)">’</text><text xml:space="preserve" font-family="HelveticaNeue-Bold,Helvetica Neue" font-weight="bold" font-size="26.0" fill="#747373" transform="matrix(1.00, 0.00, -0.00, -1.00, 87.2, 6.4)">s</text><text xml:space="preserve" font-family="HelveticaNeue-Bold,Helvetica Neue" font-weight="bold" font-size="26.0" fill="#747373" transform="matrix(1.00, 0.00, -0.00, -1.00, 101.1, 6.4)"> </text><text xml:space="preserve" font-family="HelveticaNeue-Bold,Helvetica Neue" font-weight="bold" font-size="26.0" fill="#747373" transform="matrix(1.00, 0.00, -0.00, -1.00, 108.4, 6.4)">D</text><text xml:space="preserve" font-family="HelveticaNeue-Bold,Helvetica Neue" font-weight="bold" font-size="26.0" fill="#747373" transform="matrix(1.00, 0.00, -0.00, -1.00, 127.6, 6.4)">e</text><text xml:space="preserve" font-family="HelveticaNeue-Bold,Helvetica Neue" font-weight="bold" font-size="26.0" fill="#747373" transform="matrix(1.00, 0.00, -0.00, -1.00, 142.6, 6.4)">s</text><text xml:space="preserve" font-family="HelveticaNeue-Bold,Helvetica Neue" font-weight="bold" font-size="26.0" fill="#747373" transform="matrix(1.00, 0.00, -0.00, -1.00, 156.5, 6.4)">i</text><text xml:space="preserve" font-family="HelveticaNeue-Bold,Helvetica Neue" font-weight="bold" font-size="26.0" fill="#747373" transform="matrix(1.00, 0.00, -0.00, -1.00, 163.2, 6.4)">g</text><text xml:space="preserve" font-family="HelveticaNeue-Bold,Helvetica Neue" font-weight="bold" font-size="26.0" fill="#747373" transform="matrix(1.00, 0.00, -0.00, -1.00, 179.1, 6.4)">n</text><text xml:space="preserve" font-family="HelveticaNeue-Bold,Helvetica Neue" font-weight="bold" font-size="26.0" fill="#747373" transform="matrix(1.00, 0.00, -0.00, -1.00, 194.5, 6.4)">T</text><text xml:space="preserve" font-family="HelveticaNeue-Bold,Helvetica Neue" font-weight="bold" font-size="26.0" fill="#747373" transform="matrix(1.00, 0.00, -0.00, -1.00, 210.4, 6.4)">E</text><text xml:space="preserve" font-family="HelveticaNeue-Bold,Helvetica Neue" font-weight="bold" font-size="26.0" fill="#747373" transform="matrix(1.00, 0.00, -0.00, -1.00, 227.3, 6.4)">C</text><text xml:space="preserve" font-family="HelveticaNeue-Bold,Helvetica Neue" font-weight="bold" font-size="26.0" fill="#747373" transform="matrix(1.00, 0.00, -0.00, -1.00, 246.5, 6.4)">H</text><text xml:space="preserve" font-family="HelveticaNeue-Bold,Helvetica Neue" font-weight="bold" font-size="26.0" fill="#747373" transform="matrix(1.00, 0.00, -0.00, -1.00, 265.8, 6.4)"> </text><text xml:space="preserve" font-family="HelveticaNeue-Bold,Helvetica Neue" font-weight="bold" font-size="26.0" fill="#747373" transform="matrix(1.00, 0.00, -0.00, -1.00, 273.0, 6.4)">p</text><text xml:space="preserve" font-family="HelveticaNeue-Bold,Helvetica Neue" font-weight="bold" font-size="26.0" fill="#747373" transform="matrix(1.00, 0.00, -0.00, -1.00, 288.9, 6.4)">r</text><text xml:space="preserve" font-family="HelveticaNeue-Bold,Helvetica Neue" font-weight="bold" font-size="26.0" fill="#747373" transform="matrix(1.00, 0.00, -0.00, -1.00, 298.6, 6.4)">o</text><text xml:space="preserve" font-family="HelveticaNeue-Bold,Helvetica Neue" font-weight="bold" font-size="26.0" fill="#747373" transform="matrix(1.00, 0.00, -0.00, -1.00, 314.4, 6.4)">g</text><text xml:space="preserve" font-family="HelveticaNeue-Bold,Helvetica Neue" font-weight="bold" font-size="26.0" fill="#747373" transform="matrix(1.00, 0.00, -0.00, -1.00, 330.3, 6.4)">r</text><text xml:space="preserve" font-family="HelveticaNeue-Bold,Helvetica Neue" font-weight="bold" font-size="26.0" fill="#747373" transform="matrix(1.00, 0.00, -0.00, -1.00, 340.4, 6.4)">a</text><text xml:space="preserve" font-family="HelveticaNeue-Bold,Helvetica Neue" font-weight="bold" font-size="26.0" fill="#747373" transform="matrix(1.00, 0.00, -0.00, -1.00, 355.4, 6.4)">m</text></g></svg>