<?xml version="1.0" encoding="UTF-8" standalone="no"?><svg xmlns="http://www.w3.org/2000/svg" xmlns:xlink="http://www.w3.org/1999/xlink" clip-rule="evenodd" stroke-miterlimit="10" viewBox="0 0 130 26"><desc>SVG generated by Keynote</desc><defs></defs><g transform="matrix(1.00, 0.00, -0.00, -1.00, 0.0, 26.0)"><text xml:space="preserve" font-family="HelveticaNeue-Light,Helvetica Neue" font-size="30.0" fill="#000000" transform="matrix(1.00, 0.00, -0.00, -1.00, -0.0, 2.9)">R</text><text xml:space="preserve" font-family="HelveticaNeue-Light,Helvetica Neue" font-size="30.0" fill="#000000" transform="matrix(1.00, 0.00, -0.00, -1.00, 20.0, 2.9)">e</text><text xml:space="preserve" font-family="HelveticaNeue-Light,Helvetica Neue" font-size="30.0" fill="#000000" transform="matrix(1.00, 0.00, -0.00, -1.00, 35.6, 2.9)">ﬂ</text><text xml:space="preserve" font-family="HelveticaNeue-Light,Helvetica Neue" font-size="30.0" fill="#000000" transform="matrix(1.00, 0.00, -0.00, -1.00, 48.9, 2.9)">e</text><text xml:space="preserve" font-family="HelveticaNeue-Light,Helvetica Neue" font-size="30.0" fill="#000000" transform="matrix(1.00, 0.00, -0.00, -1.00, 64.4, 2.9)">c</text><text xml:space="preserve" font-family="HelveticaNeue-Light,Helvetica Neue" font-size="30.0" fill="#000000" transform="matrix(1.00, 0.00, -0.00, -1.00, 80.0, 2.9)">t</text><text xml:space="preserve" font-family="HelveticaNeue-Light,Helvetica Neue" font-size="30.0" fill="#000000" transform="matrix(1.00, 0.00, -0.00, -1.00, 88.9, 2.9)"> </text><text xml:space="preserve" font-family="HelveticaNeue-Light,Helvetica Neue" font-size="30.0" fill="#000000" transform="matrix(1.00, 0.00, -0.00, -1.00, 97.2, 2.9)">o</text><text xml:space="preserve" font-family="HelveticaNeue-Light,Helvetica Neue" font-size="30.0" fill="#000000" transform="matrix(1.00, 0.00, -0.00, -1.00, 113.9, 2.9)">n</text></g></svg>