<?xml version="1.0" encoding="UTF-8" standalone="no"?><svg xmlns="http://www.w3.org/2000/svg" xmlns:xlink="http://www.w3.org/1999/xlink" clip-rule="evenodd" stroke-miterlimit="10" viewBox="0 0 1024 768"><desc>SVG generated by Keynote</desc><defs></defs><g transform="matrix(1.00, 0.00, -0.00, -1.00, 0.0, 768.0)"><path d="M 0.0 768.0 L 1024.0 768.0 L 1024.0 0.0 L 0.0 0.0 Z M 0.0 768.0 " fill="#FEFFFE"></path><path d="M 0.5 0.5 L 934.5 0.5 L 934.5 0.5 L 0.5 0.5 Z M 0.0 0.0 " fill="none" stroke="#9A9A99" stroke-width="1.00" transform="matrix(1.00, 0.00, 0.00, -1.00, 45.0, 613.0)"></path><g><clipPath id="clip0x7ff48122c7b0"><path d="M 11.0 38.0 L 38.0 38.0 L 38.0 5.0 L 11.0 5.0 Z M 11.0 38.0 "></path></clipPath><g clip-path="url(#clip0x7ff48122c7b0)"><g><clipPath id="clip0x7ff48122d030"><path d="M 11.0 5.0 L 38.0 5.0 L 38.0 38.0 L 11.0 38.0 Z M 11.0 5.0 "></path></clipPath><g clip-path="url(#clip0x7ff48122d030)"><path d="M 33.8 27.1 C 32.0 28.6 30.1 29.4 28.2 29.4 C 26.0 29.4 24.2 28.6 22.7 27.0 C 21.3 25.5 20.5 23.6 20.5 21.4 C 20.5 19.2 21.3 17.4 22.7 15.9 C 24.2 14.4 26.0 13.6 28.2 13.6 C 29.3 13.6 30.2 13.8 31.0 14.2 C 31.4 14.4 31.9 14.6 32.3 14.9 C 32.8 15.2 33.3 15.6 33.8 16.0 L 33.8 12.2 C 32.0 11.2 30.1 10.7 28.1 10.7 C 25.2 10.7 22.6 11.7 20.5 13.8 C 18.4 15.9 17.4 18.4 17.4 21.4 C 17.4 24.0 18.2 26.4 20.0 28.5 C 22.2 31.0 24.9 32.3 28.4 32.3 C 30.2 32.3 32.1 31.8 33.8 30.8 Z M 38.0 34.2 C 35.1 36.6 31.5 38.0 27.5 38.0 C 18.4 38.0 11.0 30.6 11.0 21.5 C 11.0 12.4 18.4 5.0 27.5 5.0 C 31.6 5.0 35.1 6.5 38.0 8.9 C 38.0 13.8 38.0 28.9 38.0 34.2 " fill="#7F8184"></path></g></g></g></g><text xml:space="preserve" font-family="GillSans,Gill Sans" font-size="18.0" fill="#797979" transform="matrix(1.00, 0.00, -0.00, -1.00, 40.0, 16.1)">a</text><text xml:space="preserve" font-family="GillSans,Gill Sans" font-size="18.0" fill="#797979" transform="matrix(1.00, 0.00, -0.00, -1.00, 47.7, 16.1)">r</text><text xml:space="preserve" font-family="GillSans,Gill Sans" font-size="18.0" fill="#797979" transform="matrix(1.00, 0.00, -0.00, -1.00, 54.8, 16.1)">l</text><text xml:space="preserve" font-family="GillSans,Gill Sans" font-size="18.0" fill="#797979" transform="matrix(1.00, 0.00, -0.00, -1.00, 58.6, 16.1)">y</text><text xml:space="preserve" font-family="GillSans,Gill Sans" font-size="18.0" fill="#797979" transform="matrix(1.00, 0.00, -0.00, -1.00, 66.4, 16.1)">n</text><text xml:space="preserve" font-family="GillSans,Gill Sans" font-size="18.0" fill="#797979" transform="matrix(1.00, 0.00, -0.00, -1.00, 75.4, 16.1)">o</text><text xml:space="preserve" font-family="GillSans,Gill Sans" font-size="18.0" fill="#797979" transform="matrix(1.00, 0.00, -0.00, -1.00, 85.4, 16.1)">r</text><text xml:space="preserve" font-family="GillSans,Gill Sans" font-size="18.0" fill="#797979" transform="matrix(1.00, 0.00, -0.00, -1.00, 92.5, 16.1)">a</text><text xml:space="preserve" font-family="GillSans,Gill Sans" font-size="18.0" fill="#797979" transform="matrix(1.00, 0.00, -0.00, -1.00, 100.2, 16.1)">m</text><text xml:space="preserve" font-family="GillSans,Gill Sans" font-size="18.0" fill="#797979" transform="matrix(1.00, 0.00, -0.00, -1.00, 114.1, 16.1)">a</text><text xml:space="preserve" font-family="HelveticaNeue-Light,Helvetica Neue" font-size="42.0" fill="#000000" transform="matrix(1.00, 0.00, -0.00, -1.00, 49.0, 645.2)">A</text><text xml:space="preserve" font-family="HelveticaNeue-Light,Helvetica Neue" font-size="42.0" fill="#000000" transform="matrix(1.00, 0.00, -0.00, -1.00, 75.5, 645.2)">u</text><text xml:space="preserve" font-family="HelveticaNeue-Light,Helvetica Neue" font-size="42.0" fill="#000000" transform="matrix(1.00, 0.00, -0.00, -1.00, 98.0, 645.2)">d</text><text xml:space="preserve" font-family="HelveticaNeue-Light,Helvetica Neue" font-size="42.0" fill="#000000" transform="matrix(1.00, 0.00, -0.00, -1.00, 122.1, 645.2)">i</text><text xml:space="preserve" font-family="HelveticaNeue-Light,Helvetica Neue" font-size="42.0" fill="#000000" transform="matrix(1.00, 0.00, -0.00, -1.00, 129.9, 645.2)">e</text><text xml:space="preserve" font-family="HelveticaNeue-Light,Helvetica Neue" font-size="42.0" fill="#000000" transform="matrix(1.00, 0.00, -0.00, -1.00, 151.7, 645.2)">n</text><text xml:space="preserve" font-family="HelveticaNeue-Light,Helvetica Neue" font-size="42.0" fill="#000000" transform="matrix(1.00, 0.00, -0.00, -1.00, 174.2, 645.2)">c</text><text xml:space="preserve" font-family="HelveticaNeue-Light,Helvetica Neue" font-size="42.0" fill="#000000" transform="matrix(1.00, 0.00, -0.00, -1.00, 196.0, 645.2)">e</text><text xml:space="preserve" font-family="HelveticaNeue-Light,Helvetica Neue" font-size="42.0" fill="#000000" transform="matrix(1.00, 0.00, -0.00, -1.00, 217.8, 645.2)"> </text><text xml:space="preserve" font-family="HelveticaNeue-Light,Helvetica Neue" font-size="42.0" fill="#000000" transform="matrix(1.00, 0.00, -0.00, -1.00, 229.5, 645.2)">P</text><text xml:space="preserve" font-family="HelveticaNeue-Light,Helvetica Neue" font-size="42.0" fill="#000000" transform="matrix(1.00, 0.00, -0.00, -1.00, 256.0, 645.2)">r</text><text xml:space="preserve" font-family="HelveticaNeue-Light,Helvetica Neue" font-size="42.0" fill="#000000" transform="matrix(1.00, 0.00, -0.00, -1.00, 268.4, 645.2)">o</text><text xml:space="preserve" font-family="HelveticaNeue-Light,Helvetica Neue" font-size="42.0" fill="#000000" transform="matrix(1.00, 0.00, -0.00, -1.00, 291.8, 645.2)">ﬁ</text><text xml:space="preserve" font-family="HelveticaNeue-Light,Helvetica Neue" font-size="42.0" fill="#000000" transform="matrix(1.00, 0.00, -0.00, -1.00, 310.4, 645.2)">l</text><text xml:space="preserve" font-family="HelveticaNeue-Light,Helvetica Neue" font-size="42.0" fill="#000000" transform="matrix(1.00, 0.00, -0.00, -1.00, 318.2, 645.2)">e</text><text xml:space="preserve" font-family="HelveticaNeue-Light,Helvetica Neue" font-size="42.0" fill="#000000" transform="matrix(1.00, 0.00, -0.00, -1.00, 340.0, 645.2)">:</text><text xml:space="preserve" font-family="HelveticaNeue-Light,Helvetica Neue" font-size="42.0" fill="#000000" transform="matrix(1.00, 0.00, -0.00, -1.00, 351.7, 645.2)"> </text><text xml:space="preserve" font-family="HelveticaNeue-Light,Helvetica Neue" font-size="42.0" fill="#000000" transform="matrix(1.00, 0.00, -0.00, -1.00, 363.4, 645.2)">H</text><text xml:space="preserve" font-family="HelveticaNeue-Light,Helvetica Neue" font-size="42.0" fill="#000000" transform="matrix(1.00, 0.00, -0.00, -1.00, 392.9, 645.2)">a</text><text xml:space="preserve" font-family="HelveticaNeue-Light,Helvetica Neue" font-size="42.0" fill="#000000" transform="matrix(1.00, 0.00, -0.00, -1.00, 414.7, 645.2)">c</text><text xml:space="preserve" font-family="HelveticaNeue-Light,Helvetica Neue" font-size="42.0" fill="#000000" transform="matrix(1.00, 0.00, -0.00, -1.00, 436.5, 645.2)">k</text><text xml:space="preserve" font-family="HelveticaNeue-Light,Helvetica Neue" font-size="42.0" fill="#000000" transform="matrix(1.00, 0.00, -0.00, -1.00, 457.5, 645.2)">e</text><text xml:space="preserve" font-family="HelveticaNeue-Light,Helvetica Neue" font-size="42.0" fill="#000000" transform="matrix(1.00, 0.00, -0.00, -1.00, 479.3, 645.2)">r</text><text xml:space="preserve" font-family="HelveticaNeue-Light,Helvetica Neue" font-size="42.0" fill="#000000" transform="matrix(1.00, 0.00, -0.00, -1.00, 492.6, 645.2)">s</text><text xml:space="preserve" font-family="HelveticaNeue-Light,Helvetica Neue" font-size="42.0" fill="#000000" transform="matrix(1.00, 0.00, -0.00, -1.00, 512.8, 645.2)">p</text><text xml:space="preserve" font-family="HelveticaNeue-Light,Helvetica Neue" font-size="42.0" fill="#000000" transform="matrix(1.00, 0.00, -0.00, -1.00, 536.9, 645.2)">c</text><text xml:space="preserve" font-family="HelveticaNeue-Light,Helvetica Neue" font-size="42.0" fill="#000000" transform="matrix(1.00, 0.00, -0.00, -1.00, 558.7, 645.2)">e</text><text xml:space="preserve" font-family="HelveticaNeue,Helvetica Neue" font-size="27.0" fill="#747373" transform="matrix(1.00, 0.00, -0.00, -1.00, 49.0, 557.2)">•</text><text xml:space="preserve" font-family="HelveticaNeue-Light,Helvetica Neue" font-size="36.0" fill="#747373" transform="matrix(1.00, 0.00, -0.00, -1.00, 85.0, 553.7)">H</text><text xml:space="preserve" font-family="HelveticaNeue-Light,Helvetica Neue" font-size="36.0" fill="#747373" transform="matrix(1.00, 0.00, -0.00, -1.00, 110.3, 553.7)">a</text><text xml:space="preserve" font-family="HelveticaNeue-Light,Helvetica Neue" font-size="36.0" fill="#747373" transform="matrix(1.00, 0.00, -0.00, -1.00, 129.0, 553.7)">s</text><text xml:space="preserve" font-family="HelveticaNeue-Light,Helvetica Neue" font-size="36.0" fill="#747373" transform="matrix(1.00, 0.00, -0.00, -1.00, 146.3, 553.7)"> </text><text xml:space="preserve" font-family="HelveticaNeue-Light,Helvetica Neue" font-size="36.0" fill="#747373" transform="matrix(1.00, 0.00, -0.00, -1.00, 156.4, 553.7)">i</text><text xml:space="preserve" font-family="HelveticaNeue-Light,Helvetica Neue" font-size="36.0" fill="#747373" transform="matrix(1.00, 0.00, -0.00, -1.00, 163.0, 553.7)">n</text><text xml:space="preserve" font-family="HelveticaNeue-Light,Helvetica Neue" font-size="36.0" fill="#747373" transform="matrix(1.00, 0.00, -0.00, -1.00, 182.3, 553.7)">t</text><text xml:space="preserve" font-family="HelveticaNeue-Light,Helvetica Neue" font-size="36.0" fill="#747373" transform="matrix(1.00, 0.00, -0.00, -1.00, 193.0, 553.7)">r</text><text xml:space="preserve" font-family="HelveticaNeue-Light,Helvetica Neue" font-size="36.0" fill="#747373" transform="matrix(1.00, 0.00, -0.00, -1.00, 204.3, 553.7)">i</text><text xml:space="preserve" font-family="HelveticaNeue-Light,Helvetica Neue" font-size="36.0" fill="#747373" transform="matrix(1.00, 0.00, -0.00, -1.00, 211.0, 553.7)">n</text><text xml:space="preserve" font-family="HelveticaNeue-Light,Helvetica Neue" font-size="36.0" fill="#747373" transform="matrix(1.00, 0.00, -0.00, -1.00, 230.3, 553.7)">s</text><text xml:space="preserve" font-family="HelveticaNeue-Light,Helvetica Neue" font-size="36.0" fill="#747373" transform="matrix(1.00, 0.00, -0.00, -1.00, 247.6, 553.7)">i</text><text xml:space="preserve" font-family="HelveticaNeue-Light,Helvetica Neue" font-size="36.0" fill="#747373" transform="matrix(1.00, 0.00, -0.00, -1.00, 254.3, 553.7)">c</text><text xml:space="preserve" font-family="HelveticaNeue-Light,Helvetica Neue" font-size="36.0" fill="#747373" transform="matrix(1.00, 0.00, -0.00, -1.00, 273.0, 553.7)"> </text><text xml:space="preserve" font-family="HelveticaNeue-Light,Helvetica Neue" font-size="36.0" fill="#747373" transform="matrix(1.00, 0.00, -0.00, -1.00, 283.0, 553.7)">m</text><text xml:space="preserve" font-family="HelveticaNeue-Light,Helvetica Neue" font-size="36.0" fill="#747373" transform="matrix(1.00, 0.00, -0.00, -1.00, 313.0, 553.7)">o</text><text xml:space="preserve" font-family="HelveticaNeue-Light,Helvetica Neue" font-size="36.0" fill="#747373" transform="matrix(1.00, 0.00, -0.00, -1.00, 333.0, 553.7)">t</text><text xml:space="preserve" font-family="HelveticaNeue-Light,Helvetica Neue" font-size="36.0" fill="#747373" transform="matrix(1.00, 0.00, -0.00, -1.00, 343.7, 553.7)">i</text><text xml:space="preserve" font-family="HelveticaNeue-Light,Helvetica Neue" font-size="36.0" fill="#747373" transform="matrix(1.00, 0.00, -0.00, -1.00, 350.3, 553.7)">v</text><text xml:space="preserve" font-family="HelveticaNeue-Light,Helvetica Neue" font-size="36.0" fill="#747373" transform="matrix(1.00, 0.00, -0.00, -1.00, 367.0, 553.7)">a</text><text xml:space="preserve" font-family="HelveticaNeue-Light,Helvetica Neue" font-size="36.0" fill="#747373" transform="matrix(1.00, 0.00, -0.00, -1.00, 385.7, 553.7)">t</text><text xml:space="preserve" font-family="HelveticaNeue-Light,Helvetica Neue" font-size="36.0" fill="#747373" transform="matrix(1.00, 0.00, -0.00, -1.00, 396.3, 553.7)">i</text><text xml:space="preserve" font-family="HelveticaNeue-Light,Helvetica Neue" font-size="36.0" fill="#747373" transform="matrix(1.00, 0.00, -0.00, -1.00, 403.0, 553.7)">o</text><text xml:space="preserve" font-family="HelveticaNeue-Light,Helvetica Neue" font-size="36.0" fill="#747373" transform="matrix(1.00, 0.00, -0.00, -1.00, 423.0, 553.7)">n</text><text xml:space="preserve" font-family="HelveticaNeue-Light,Helvetica Neue" font-size="36.0" fill="#747373" transform="matrix(1.00, 0.00, -0.00, -1.00, 442.3, 553.7)"> </text><text xml:space="preserve" font-family="HelveticaNeue-Light,Helvetica Neue" font-size="36.0" fill="#747373" transform="matrix(1.00, 0.00, -0.00, -1.00, 452.3, 553.7)">(</text><text xml:space="preserve" font-family="HelveticaNeue-Light,Helvetica Neue" font-size="36.0" fill="#747373" transform="matrix(1.00, 0.00, -0.00, -1.00, 461.0, 553.7)">f</text><text xml:space="preserve" font-family="HelveticaNeue-Light,Helvetica Neue" font-size="36.0" fill="#747373" transform="matrix(1.00, 0.00, -0.00, -1.00, 470.3, 553.7)">o</text><text xml:space="preserve" font-family="HelveticaNeue-Light,Helvetica Neue" font-size="36.0" fill="#747373" transform="matrix(1.00, 0.00, -0.00, -1.00, 490.4, 553.7)">r</text><text xml:space="preserve" font-family="HelveticaNeue-Light,Helvetica Neue" font-size="36.0" fill="#747373" transform="matrix(1.00, 0.00, -0.00, -1.00, 501.7, 553.7)"> </text><text xml:space="preserve" font-family="HelveticaNeue-Light,Helvetica Neue" font-size="36.0" fill="#747373" transform="matrix(1.00, 0.00, -0.00, -1.00, 511.7, 553.7)">a</text><text xml:space="preserve" font-family="HelveticaNeue-Light,Helvetica Neue" font-size="36.0" fill="#747373" transform="matrix(1.00, 0.00, -0.00, -1.00, 530.4, 553.7)"> </text><text xml:space="preserve" font-family="HelveticaNeue-Light,Helvetica Neue" font-size="36.0" fill="#747373" transform="matrix(1.00, 0.00, -0.00, -1.00, 540.4, 553.7)">s</text><text xml:space="preserve" font-family="HelveticaNeue-Light,Helvetica Neue" font-size="36.0" fill="#747373" transform="matrix(1.00, 0.00, -0.00, -1.00, 557.7, 553.7)">h</text><text xml:space="preserve" font-family="HelveticaNeue-Light,Helvetica Neue" font-size="36.0" fill="#747373" transform="matrix(1.00, 0.00, -0.00, -1.00, 577.0, 553.7)">o</text><text xml:space="preserve" font-family="HelveticaNeue-Light,Helvetica Neue" font-size="36.0" fill="#747373" transform="matrix(1.00, 0.00, -0.00, -1.00, 597.1, 553.7)">r</text><text xml:space="preserve" font-family="HelveticaNeue-Light,Helvetica Neue" font-size="36.0" fill="#747373" transform="matrix(1.00, 0.00, -0.00, -1.00, 608.4, 553.7)">t</text><text xml:space="preserve" font-family="HelveticaNeue-Light,Helvetica Neue" font-size="36.0" fill="#747373" transform="matrix(1.00, 0.00, -0.00, -1.00, 619.1, 553.7)"> </text><text xml:space="preserve" font-family="HelveticaNeue-Light,Helvetica Neue" font-size="36.0" fill="#747373" transform="matrix(1.00, 0.00, -0.00, -1.00, 629.1, 553.7)">w</text><text xml:space="preserve" font-family="HelveticaNeue-Light,Helvetica Neue" font-size="36.0" fill="#747373" transform="matrix(1.00, 0.00, -0.00, -1.00, 655.7, 553.7)">i</text><text xml:space="preserve" font-family="HelveticaNeue-Light,Helvetica Neue" font-size="36.0" fill="#747373" transform="matrix(1.00, 0.00, -0.00, -1.00, 662.4, 553.7)">n</text><text xml:space="preserve" font-family="HelveticaNeue-Light,Helvetica Neue" font-size="36.0" fill="#747373" transform="matrix(1.00, 0.00, -0.00, -1.00, 681.7, 553.7)">d</text><text xml:space="preserve" font-family="HelveticaNeue-Light,Helvetica Neue" font-size="36.0" fill="#747373" transform="matrix(1.00, 0.00, -0.00, -1.00, 702.4, 553.7)">o</text><text xml:space="preserve" font-family="HelveticaNeue-Light,Helvetica Neue" font-size="36.0" fill="#747373" transform="matrix(1.00, 0.00, -0.00, -1.00, 722.4, 553.7)">w</text><text xml:space="preserve" font-family="HelveticaNeue-Light,Helvetica Neue" font-size="36.0" fill="#747373" transform="matrix(1.00, 0.00, -0.00, -1.00, 749.1, 553.7)"> </text><text xml:space="preserve" font-family="HelveticaNeue-Light,Helvetica Neue" font-size="36.0" fill="#747373" transform="matrix(1.00, 0.00, -0.00, -1.00, 759.1, 553.7)">o</text><text xml:space="preserve" font-family="HelveticaNeue-Light,Helvetica Neue" font-size="36.0" fill="#747373" transform="matrix(1.00, 0.00, -0.00, -1.00, 779.1, 553.7)">f</text><text xml:space="preserve" font-family="HelveticaNeue-Light,Helvetica Neue" font-size="36.0" fill="#747373" transform="matrix(1.00, 0.00, -0.00, -1.00, 788.4, 553.7)"> </text><text xml:space="preserve" font-family="HelveticaNeue-Light,Helvetica Neue" font-size="36.0" fill="#747373" transform="matrix(1.00, 0.00, -0.00, -1.00, 798.4, 553.7)">t</text><text xml:space="preserve" font-family="HelveticaNeue-Light,Helvetica Neue" font-size="36.0" fill="#747373" transform="matrix(1.00, 0.00, -0.00, -1.00, 809.1, 553.7)">i</text><text xml:space="preserve" font-family="HelveticaNeue-Light,Helvetica Neue" font-size="36.0" fill="#747373" transform="matrix(1.00, 0.00, -0.00, -1.00, 815.8, 553.7)">m</text><text xml:space="preserve" font-family="HelveticaNeue-Light,Helvetica Neue" font-size="36.0" fill="#747373" transform="matrix(1.00, 0.00, -0.00, -1.00, 845.8, 553.7)">e</text><text xml:space="preserve" font-family="HelveticaNeue-Light,Helvetica Neue" font-size="36.0" fill="#747373" transform="matrix(1.00, 0.00, -0.00, -1.00, 864.4, 553.7)">.</text><text xml:space="preserve" font-family="HelveticaNeue-Light,Helvetica Neue" font-size="36.0" fill="#747373" transform="matrix(1.00, 0.00, -0.00, -1.00, 874.4, 553.7)">)</text><text xml:space="preserve" font-family="HelveticaNeue-Light,Helvetica Neue" font-size="36.0" fill="#747373" transform="matrix(1.00, 0.00, -0.00, -1.00, 883.1, 553.7)"> </text><text xml:space="preserve" font-family="HelveticaNeue,Helvetica Neue" font-size="27.0" fill="#747373" transform="matrix(1.00, 0.00, -0.00, -1.00, 49.0, 471.2)">•</text><text xml:space="preserve" font-family="HelveticaNeue-Light,Helvetica Neue" font-size="36.0" fill="#747373" transform="matrix(1.00, 0.00, -0.00, -1.00, 85.0, 467.7)">H</text><text xml:space="preserve" font-family="HelveticaNeue-Light,Helvetica Neue" font-size="36.0" fill="#747373" transform="matrix(1.00, 0.00, -0.00, -1.00, 110.3, 467.7)">a</text><text xml:space="preserve" font-family="HelveticaNeue-Light,Helvetica Neue" font-size="36.0" fill="#747373" transform="matrix(1.00, 0.00, -0.00, -1.00, 129.0, 467.7)">s</text><text xml:space="preserve" font-family="HelveticaNeue-Light,Helvetica Neue" font-size="36.0" fill="#747373" transform="matrix(1.00, 0.00, -0.00, -1.00, 146.3, 467.7)"> </text><text xml:space="preserve" font-family="HelveticaNeue-Light,Helvetica Neue" font-size="36.0" fill="#747373" transform="matrix(1.00, 0.00, -0.00, -1.00, 156.4, 467.7)">c</text><text xml:space="preserve" font-family="HelveticaNeue-Light,Helvetica Neue" font-size="36.0" fill="#747373" transform="matrix(1.00, 0.00, -0.00, -1.00, 175.0, 467.7)">o</text><text xml:space="preserve" font-family="HelveticaNeue-Light,Helvetica Neue" font-size="36.0" fill="#747373" transform="matrix(1.00, 0.00, -0.00, -1.00, 195.1, 467.7)">n</text><text xml:space="preserve" font-family="HelveticaNeue-Light,Helvetica Neue" font-size="36.0" fill="#747373" transform="matrix(1.00, 0.00, -0.00, -1.00, 214.4, 467.7)">ﬁ</text><text xml:space="preserve" font-family="HelveticaNeue-Light,Helvetica Neue" font-size="36.0" fill="#747373" transform="matrix(1.00, 0.00, -0.00, -1.00, 230.4, 467.7)">d</text><text xml:space="preserve" font-family="HelveticaNeue-Light,Helvetica Neue" font-size="36.0" fill="#747373" transform="matrix(1.00, 0.00, -0.00, -1.00, 251.0, 467.7)">e</text><text xml:space="preserve" font-family="HelveticaNeue-Light,Helvetica Neue" font-size="36.0" fill="#747373" transform="matrix(1.00, 0.00, -0.00, -1.00, 269.7, 467.7)">n</text><text xml:space="preserve" font-family="HelveticaNeue-Light,Helvetica Neue" font-size="36.0" fill="#747373" transform="matrix(1.00, 0.00, -0.00, -1.00, 289.0, 467.7)">c</text><text xml:space="preserve" font-family="HelveticaNeue-Light,Helvetica Neue" font-size="36.0" fill="#747373" transform="matrix(1.00, 0.00, -0.00, -1.00, 307.7, 467.7)">e</text><text xml:space="preserve" font-family="HelveticaNeue-Light,Helvetica Neue" font-size="36.0" fill="#747373" transform="matrix(1.00, 0.00, -0.00, -1.00, 326.4, 467.7)"> </text><text xml:space="preserve" font-family="HelveticaNeue-Light,Helvetica Neue" font-size="36.0" fill="#747373" transform="matrix(1.00, 0.00, -0.00, -1.00, 336.4, 467.7)">t</text><text xml:space="preserve" font-family="HelveticaNeue-Light,Helvetica Neue" font-size="36.0" fill="#747373" transform="matrix(1.00, 0.00, -0.00, -1.00, 347.1, 467.7)">h</text><text xml:space="preserve" font-family="HelveticaNeue-Light,Helvetica Neue" font-size="36.0" fill="#747373" transform="matrix(1.00, 0.00, -0.00, -1.00, 366.4, 467.7)">a</text><text xml:space="preserve" font-family="HelveticaNeue-Light,Helvetica Neue" font-size="36.0" fill="#747373" transform="matrix(1.00, 0.00, -0.00, -1.00, 385.1, 467.7)">t</text><text xml:space="preserve" font-family="HelveticaNeue-Light,Helvetica Neue" font-size="36.0" fill="#747373" transform="matrix(1.00, 0.00, -0.00, -1.00, 395.8, 467.7)"> </text><text xml:space="preserve" font-family="HelveticaNeue-Light,Helvetica Neue" font-size="36.0" fill="#747373" transform="matrix(1.00, 0.00, -0.00, -1.00, 405.8, 467.7)">t</text><text xml:space="preserve" font-family="HelveticaNeue-Light,Helvetica Neue" font-size="36.0" fill="#747373" transform="matrix(1.00, 0.00, -0.00, -1.00, 416.4, 467.7)">h</text><text xml:space="preserve" font-family="HelveticaNeue-Light,Helvetica Neue" font-size="36.0" fill="#747373" transform="matrix(1.00, 0.00, -0.00, -1.00, 435.7, 467.7)">e</text><text xml:space="preserve" font-family="HelveticaNeue-Light,Helvetica Neue" font-size="36.0" fill="#747373" transform="matrix(1.00, 0.00, -0.00, -1.00, 454.4, 467.7)">y</text><text xml:space="preserve" font-family="HelveticaNeue-Light,Helvetica Neue" font-size="36.0" fill="#747373" transform="matrix(1.00, 0.00, -0.00, -1.00, 471.1, 467.7)"> </text><text xml:space="preserve" font-family="HelveticaNeue-Light,Helvetica Neue" font-size="36.0" fill="#747373" transform="matrix(1.00, 0.00, -0.00, -1.00, 481.1, 467.7)">c</text><text xml:space="preserve" font-family="HelveticaNeue-Light,Helvetica Neue" font-size="36.0" fill="#747373" transform="matrix(1.00, 0.00, -0.00, -1.00, 499.8, 467.7)">a</text><text xml:space="preserve" font-family="HelveticaNeue-Light,Helvetica Neue" font-size="36.0" fill="#747373" transform="matrix(1.00, 0.00, -0.00, -1.00, 518.5, 467.7)">n</text><text xml:space="preserve" font-family="HelveticaNeue-Light,Helvetica Neue" font-size="36.0" fill="#747373" transform="matrix(1.00, 0.00, -0.00, -1.00, 537.8, 467.7)"> </text><text xml:space="preserve" font-family="HelveticaNeue-Light,Helvetica Neue" font-size="36.0" fill="#747373" transform="matrix(1.00, 0.00, -0.00, -1.00, 547.8, 467.7)">l</text><text xml:space="preserve" font-family="HelveticaNeue-Light,Helvetica Neue" font-size="36.0" fill="#747373" transform="matrix(1.00, 0.00, -0.00, -1.00, 554.5, 467.7)">e</text><text xml:space="preserve" font-family="HelveticaNeue-Light,Helvetica Neue" font-size="36.0" fill="#747373" transform="matrix(1.00, 0.00, -0.00, -1.00, 573.2, 467.7)">a</text><text xml:space="preserve" font-family="HelveticaNeue-Light,Helvetica Neue" font-size="36.0" fill="#747373" transform="matrix(1.00, 0.00, -0.00, -1.00, 591.8, 467.7)">r</text><text xml:space="preserve" font-family="HelveticaNeue-Light,Helvetica Neue" font-size="36.0" fill="#747373" transform="matrix(1.00, 0.00, -0.00, -1.00, 603.8, 467.7)">n</text><text xml:space="preserve" font-family="HelveticaNeue-Light,Helvetica Neue" font-size="36.0" fill="#747373" transform="matrix(1.00, 0.00, -0.00, -1.00, 623.2, 467.7)">.</text><text xml:space="preserve" font-family="HelveticaNeue-Light,Helvetica Neue" font-size="36.0" fill="#747373" transform="matrix(1.00, 0.00, -0.00, -1.00, 633.2, 467.7)"> </text><text xml:space="preserve" font-family="HelveticaNeue-Light,Helvetica Neue" font-size="36.0" fill="#747373" transform="matrix(1.00, 0.00, -0.00, -1.00, 643.2, 467.7)"> </text><text xml:space="preserve" font-family="HelveticaNeue,Helvetica Neue" font-size="27.0" fill="#747373" transform="matrix(1.00, 0.00, -0.00, -1.00, 49.0, 385.2)">•</text><text xml:space="preserve" font-family="HelveticaNeue-Light,Helvetica Neue" font-size="36.0" fill="#747373" transform="matrix(1.00, 0.00, -0.00, -1.00, 85.0, 381.7)">C</text><text xml:space="preserve" font-family="HelveticaNeue-Light,Helvetica Neue" font-size="36.0" fill="#747373" transform="matrix(1.00, 0.00, -0.00, -1.00, 110.3, 381.7)">a</text><text xml:space="preserve" font-family="HelveticaNeue-Light,Helvetica Neue" font-size="36.0" fill="#747373" transform="matrix(1.00, 0.00, -0.00, -1.00, 129.0, 381.7)">n</text><text xml:space="preserve" font-family="HelveticaNeue-Light,Helvetica Neue" font-size="36.0" fill="#747373" transform="matrix(1.00, 0.00, -0.00, -1.00, 148.4, 381.7)"> </text><text xml:space="preserve" font-family="HelveticaNeue-Light,Helvetica Neue" font-size="36.0" fill="#747373" transform="matrix(1.00, 0.00, -0.00, -1.00, 158.4, 381.7)">p</text><text xml:space="preserve" font-family="HelveticaNeue-Light,Helvetica Neue" font-size="36.0" fill="#747373" transform="matrix(1.00, 0.00, -0.00, -1.00, 179.0, 381.7)">e</text><text xml:space="preserve" font-family="HelveticaNeue-Light,Helvetica Neue" font-size="36.0" fill="#747373" transform="matrix(1.00, 0.00, -0.00, -1.00, 197.7, 381.7)">r</text><text xml:space="preserve" font-family="HelveticaNeue-Light,Helvetica Neue" font-size="36.0" fill="#747373" transform="matrix(1.00, 0.00, -0.00, -1.00, 209.1, 381.7)">f</text><text xml:space="preserve" font-family="HelveticaNeue-Light,Helvetica Neue" font-size="36.0" fill="#747373" transform="matrix(1.00, 0.00, -0.00, -1.00, 218.4, 381.7)">o</text><text xml:space="preserve" font-family="HelveticaNeue-Light,Helvetica Neue" font-size="36.0" fill="#747373" transform="matrix(1.00, 0.00, -0.00, -1.00, 238.4, 381.7)">r</text><text xml:space="preserve" font-family="HelveticaNeue-Light,Helvetica Neue" font-size="36.0" fill="#747373" transform="matrix(1.00, 0.00, -0.00, -1.00, 249.7, 381.7)">m</text><text xml:space="preserve" font-family="HelveticaNeue-Light,Helvetica Neue" font-size="36.0" fill="#747373" transform="matrix(1.00, 0.00, -0.00, -1.00, 279.7, 381.7)"> </text><text xml:space="preserve" font-family="HelveticaNeue-Light,Helvetica Neue" font-size="36.0" fill="#747373" transform="matrix(1.00, 0.00, -0.00, -1.00, 289.7, 381.7)">d</text><text xml:space="preserve" font-family="HelveticaNeue-Light,Helvetica Neue" font-size="36.0" fill="#747373" transform="matrix(1.00, 0.00, -0.00, -1.00, 310.4, 381.7)">e</text><text xml:space="preserve" font-family="HelveticaNeue-Light,Helvetica Neue" font-size="36.0" fill="#747373" transform="matrix(1.00, 0.00, -0.00, -1.00, 329.1, 381.7)">d</text><text xml:space="preserve" font-family="HelveticaNeue-Light,Helvetica Neue" font-size="36.0" fill="#747373" transform="matrix(1.00, 0.00, -0.00, -1.00, 349.7, 381.7)">u</text><text xml:space="preserve" font-family="HelveticaNeue-Light,Helvetica Neue" font-size="36.0" fill="#747373" transform="matrix(1.00, 0.00, -0.00, -1.00, 369.1, 381.7)">c</text><text xml:space="preserve" font-family="HelveticaNeue-Light,Helvetica Neue" font-size="36.0" fill="#747373" transform="matrix(1.00, 0.00, -0.00, -1.00, 387.8, 381.7)">t</text><text xml:space="preserve" font-family="HelveticaNeue-Light,Helvetica Neue" font-size="36.0" fill="#747373" transform="matrix(1.00, 0.00, -0.00, -1.00, 398.4, 381.7)">i</text><text xml:space="preserve" font-family="HelveticaNeue-Light,Helvetica Neue" font-size="36.0" fill="#747373" transform="matrix(1.00, 0.00, -0.00, -1.00, 405.1, 381.7)">v</text><text xml:space="preserve" font-family="HelveticaNeue-Light,Helvetica Neue" font-size="36.0" fill="#747373" transform="matrix(1.00, 0.00, -0.00, -1.00, 421.7, 381.7)">e</text><text xml:space="preserve" font-family="HelveticaNeue-Light,Helvetica Neue" font-size="36.0" fill="#747373" transform="matrix(1.00, 0.00, -0.00, -1.00, 440.4, 381.7)"> </text><text xml:space="preserve" font-family="HelveticaNeue-Light,Helvetica Neue" font-size="36.0" fill="#747373" transform="matrix(1.00, 0.00, -0.00, -1.00, 450.4, 381.7)">r</text><text xml:space="preserve" font-family="HelveticaNeue-Light,Helvetica Neue" font-size="36.0" fill="#747373" transform="matrix(1.00, 0.00, -0.00, -1.00, 461.1, 381.7)">e</text><text xml:space="preserve" font-family="HelveticaNeue-Light,Helvetica Neue" font-size="36.0" fill="#747373" transform="matrix(1.00, 0.00, -0.00, -1.00, 479.8, 381.7)">a</text><text xml:space="preserve" font-family="HelveticaNeue-Light,Helvetica Neue" font-size="36.0" fill="#747373" transform="matrix(1.00, 0.00, -0.00, -1.00, 498.5, 381.7)">s</text><text xml:space="preserve" font-family="HelveticaNeue-Light,Helvetica Neue" font-size="36.0" fill="#747373" transform="matrix(1.00, 0.00, -0.00, -1.00, 515.8, 381.7)">o</text><text xml:space="preserve" font-family="HelveticaNeue-Light,Helvetica Neue" font-size="36.0" fill="#747373" transform="matrix(1.00, 0.00, -0.00, -1.00, 535.8, 381.7)">n</text><text xml:space="preserve" font-family="HelveticaNeue-Light,Helvetica Neue" font-size="36.0" fill="#747373" transform="matrix(1.00, 0.00, -0.00, -1.00, 555.2, 381.7)">i</text><text xml:space="preserve" font-family="HelveticaNeue-Light,Helvetica Neue" font-size="36.0" fill="#747373" transform="matrix(1.00, 0.00, -0.00, -1.00, 561.8, 381.7)">n</text><text xml:space="preserve" font-family="HelveticaNeue-Light,Helvetica Neue" font-size="36.0" fill="#747373" transform="matrix(1.00, 0.00, -0.00, -1.00, 581.2, 381.7)">g</text><text xml:space="preserve" font-family="HelveticaNeue-Light,Helvetica Neue" font-size="36.0" fill="#747373" transform="matrix(1.00, 0.00, -0.00, -1.00, 601.2, 381.7)"> </text><text xml:space="preserve" font-family="HelveticaNeue-Light,Helvetica Neue" font-size="36.0" fill="#747373" transform="matrix(1.00, 0.00, -0.00, -1.00, 611.2, 381.7)">t</text><text xml:space="preserve" font-family="HelveticaNeue-Light,Helvetica Neue" font-size="36.0" fill="#747373" transform="matrix(1.00, 0.00, -0.00, -1.00, 621.8, 381.7)">a</text><text xml:space="preserve" font-family="HelveticaNeue-Light,Helvetica Neue" font-size="36.0" fill="#747373" transform="matrix(1.00, 0.00, -0.00, -1.00, 640.5, 381.7)">s</text><text xml:space="preserve" font-family="HelveticaNeue-Light,Helvetica Neue" font-size="36.0" fill="#747373" transform="matrix(1.00, 0.00, -0.00, -1.00, 657.8, 381.7)">k</text><text xml:space="preserve" font-family="HelveticaNeue-Light,Helvetica Neue" font-size="36.0" fill="#747373" transform="matrix(1.00, 0.00, -0.00, -1.00, 675.8, 381.7)">s</text><text xml:space="preserve" font-family="HelveticaNeue-Light,Helvetica Neue" font-size="36.0" fill="#747373" transform="matrix(1.00, 0.00, -0.00, -1.00, 693.1, 381.7)">.</text><text xml:space="preserve" font-family="HelveticaNeue-Light,Helvetica Neue" font-size="36.0" fill="#747373" transform="matrix(1.00, 0.00, -0.00, -1.00, 703.2, 381.7)"> </text><text xml:space="preserve" font-family="HelveticaNeue,Helvetica Neue" font-size="27.0" fill="#747373" transform="matrix(1.00, 0.00, -0.00, -1.00, 49.0, 299.2)">•</text><text xml:space="preserve" font-family="HelveticaNeue-Light,Helvetica Neue" font-size="36.0" fill="#747373" transform="matrix(1.00, 0.00, -0.00, -1.00, 85.0, 295.7)">C</text><text xml:space="preserve" font-family="HelveticaNeue-Light,Helvetica Neue" font-size="36.0" fill="#747373" transform="matrix(1.00, 0.00, -0.00, -1.00, 110.3, 295.7)">a</text><text xml:space="preserve" font-family="HelveticaNeue-Light,Helvetica Neue" font-size="36.0" fill="#747373" transform="matrix(1.00, 0.00, -0.00, -1.00, 129.0, 295.7)">n</text><text xml:space="preserve" font-family="HelveticaNeue-Light,Helvetica Neue" font-size="36.0" fill="#747373" transform="matrix(1.00, 0.00, -0.00, -1.00, 148.4, 295.7)"> </text><text xml:space="preserve" font-family="HelveticaNeue-Light,Helvetica Neue" font-size="36.0" fill="#747373" transform="matrix(1.00, 0.00, -0.00, -1.00, 158.4, 295.7)">d</text><text xml:space="preserve" font-family="HelveticaNeue-Light,Helvetica Neue" font-size="36.0" fill="#747373" transform="matrix(1.00, 0.00, -0.00, -1.00, 179.0, 295.7)">i</text><text xml:space="preserve" font-family="HelveticaNeue-Light,Helvetica Neue" font-size="36.0" fill="#747373" transform="matrix(1.00, 0.00, -0.00, -1.00, 185.7, 295.7)">s</text><text xml:space="preserve" font-family="HelveticaNeue-Light,Helvetica Neue" font-size="36.0" fill="#747373" transform="matrix(1.00, 0.00, -0.00, -1.00, 203.0, 295.7)">t</text><text xml:space="preserve" font-family="HelveticaNeue-Light,Helvetica Neue" font-size="36.0" fill="#747373" transform="matrix(1.00, 0.00, -0.00, -1.00, 213.7, 295.7)">i</text><text xml:space="preserve" font-family="HelveticaNeue-Light,Helvetica Neue" font-size="36.0" fill="#747373" transform="matrix(1.00, 0.00, -0.00, -1.00, 220.3, 295.7)">n</text><text xml:space="preserve" font-family="HelveticaNeue-Light,Helvetica Neue" font-size="36.0" fill="#747373" transform="matrix(1.00, 0.00, -0.00, -1.00, 239.7, 295.7)">g</text><text xml:space="preserve" font-family="HelveticaNeue-Light,Helvetica Neue" font-size="36.0" fill="#747373" transform="matrix(1.00, 0.00, -0.00, -1.00, 259.7, 295.7)">u</text><text xml:space="preserve" font-family="HelveticaNeue-Light,Helvetica Neue" font-size="36.0" fill="#747373" transform="matrix(1.00, 0.00, -0.00, -1.00, 279.0, 295.7)">i</text><text xml:space="preserve" font-family="HelveticaNeue-Light,Helvetica Neue" font-size="36.0" fill="#747373" transform="matrix(1.00, 0.00, -0.00, -1.00, 285.7, 295.7)">s</text><text xml:space="preserve" font-family="HelveticaNeue-Light,Helvetica Neue" font-size="36.0" fill="#747373" transform="matrix(1.00, 0.00, -0.00, -1.00, 303.0, 295.7)">h</text><text xml:space="preserve" font-family="HelveticaNeue-Light,Helvetica Neue" font-size="36.0" fill="#747373" transform="matrix(1.00, 0.00, -0.00, -1.00, 322.3, 295.7)"> </text><text xml:space="preserve" font-family="HelveticaNeue-Light,Helvetica Neue" font-size="36.0" fill="#747373" transform="matrix(1.00, 0.00, -0.00, -1.00, 332.3, 295.7)">b</text><text xml:space="preserve" font-family="HelveticaNeue-Light,Helvetica Neue" font-size="36.0" fill="#747373" transform="matrix(1.00, 0.00, -0.00, -1.00, 353.0, 295.7)">e</text><text xml:space="preserve" font-family="HelveticaNeue-Light,Helvetica Neue" font-size="36.0" fill="#747373" transform="matrix(1.00, 0.00, -0.00, -1.00, 371.7, 295.7)">t</text><text xml:space="preserve" font-family="HelveticaNeue-Light,Helvetica Neue" font-size="36.0" fill="#747373" transform="matrix(1.00, 0.00, -0.00, -1.00, 382.3, 295.7)">w</text><text xml:space="preserve" font-family="HelveticaNeue-Light,Helvetica Neue" font-size="36.0" fill="#747373" transform="matrix(1.00, 0.00, -0.00, -1.00, 409.0, 295.7)">e</text><text xml:space="preserve" font-family="HelveticaNeue-Light,Helvetica Neue" font-size="36.0" fill="#747373" transform="matrix(1.00, 0.00, -0.00, -1.00, 427.7, 295.7)">e</text><text xml:space="preserve" font-family="HelveticaNeue-Light,Helvetica Neue" font-size="36.0" fill="#747373" transform="matrix(1.00, 0.00, -0.00, -1.00, 446.4, 295.7)">n</text><text xml:space="preserve" font-family="HelveticaNeue-Light,Helvetica Neue" font-size="36.0" fill="#747373" transform="matrix(1.00, 0.00, -0.00, -1.00, 465.7, 295.7)"> </text><text xml:space="preserve" font-family="HelveticaNeue-Light,Helvetica Neue" font-size="36.0" fill="#747373" transform="matrix(1.00, 0.00, -0.00, -1.00, 475.7, 295.7)">s</text><text xml:space="preserve" font-family="HelveticaNeue-Light,Helvetica Neue" font-size="36.0" fill="#747373" transform="matrix(1.00, 0.00, -0.00, -1.00, 493.0, 295.7)">i</text><text xml:space="preserve" font-family="HelveticaNeue-Light,Helvetica Neue" font-size="36.0" fill="#747373" transform="matrix(1.00, 0.00, -0.00, -1.00, 499.7, 295.7)">g</text><text xml:space="preserve" font-family="HelveticaNeue-Light,Helvetica Neue" font-size="36.0" fill="#747373" transform="matrix(1.00, 0.00, -0.00, -1.00, 519.7, 295.7)">n</text><text xml:space="preserve" font-family="HelveticaNeue-Light,Helvetica Neue" font-size="36.0" fill="#747373" transform="matrix(1.00, 0.00, -0.00, -1.00, 539.0, 295.7)">i</text><text xml:space="preserve" font-family="HelveticaNeue-Light,Helvetica Neue" font-size="36.0" fill="#747373" transform="matrix(1.00, 0.00, -0.00, -1.00, 545.7, 295.7)">ﬁ</text><text xml:space="preserve" font-family="HelveticaNeue-Light,Helvetica Neue" font-size="36.0" fill="#747373" transform="matrix(1.00, 0.00, -0.00, -1.00, 561.7, 295.7)">e</text><text xml:space="preserve" font-family="HelveticaNeue-Light,Helvetica Neue" font-size="36.0" fill="#747373" transform="matrix(1.00, 0.00, -0.00, -1.00, 580.4, 295.7)">r</text><text xml:space="preserve" font-family="HelveticaNeue-Light,Helvetica Neue" font-size="36.0" fill="#747373" transform="matrix(1.00, 0.00, -0.00, -1.00, 591.7, 295.7)"> </text><text xml:space="preserve" font-family="HelveticaNeue-Light,Helvetica Neue" font-size="36.0" fill="#747373" transform="matrix(1.00, 0.00, -0.00, -1.00, 601.7, 295.7)">a</text><text xml:space="preserve" font-family="HelveticaNeue-Light,Helvetica Neue" font-size="36.0" fill="#747373" transform="matrix(1.00, 0.00, -0.00, -1.00, 620.4, 295.7)">n</text><text xml:space="preserve" font-family="HelveticaNeue-Light,Helvetica Neue" font-size="36.0" fill="#747373" transform="matrix(1.00, 0.00, -0.00, -1.00, 639.7, 295.7)">d</text><text xml:space="preserve" font-family="HelveticaNeue-Light,Helvetica Neue" font-size="36.0" fill="#747373" transform="matrix(1.00, 0.00, -0.00, -1.00, 660.4, 295.7)"> </text><text xml:space="preserve" font-family="HelveticaNeue-Light,Helvetica Neue" font-size="36.0" fill="#747373" transform="matrix(1.00, 0.00, -0.00, -1.00, 670.4, 295.7)">s</text><text xml:space="preserve" font-family="HelveticaNeue-Light,Helvetica Neue" font-size="36.0" fill="#747373" transform="matrix(1.00, 0.00, -0.00, -1.00, 687.7, 295.7)">i</text><text xml:space="preserve" font-family="HelveticaNeue-Light,Helvetica Neue" font-size="36.0" fill="#747373" transform="matrix(1.00, 0.00, -0.00, -1.00, 694.4, 295.7)">g</text><text xml:space="preserve" font-family="HelveticaNeue-Light,Helvetica Neue" font-size="36.0" fill="#747373" transform="matrix(1.00, 0.00, -0.00, -1.00, 714.4, 295.7)">n</text><text xml:space="preserve" font-family="HelveticaNeue-Light,Helvetica Neue" font-size="36.0" fill="#747373" transform="matrix(1.00, 0.00, -0.00, -1.00, 733.7, 295.7)">i</text><text xml:space="preserve" font-family="HelveticaNeue-Light,Helvetica Neue" font-size="36.0" fill="#747373" transform="matrix(1.00, 0.00, -0.00, -1.00, 740.4, 295.7)">ﬁ</text><text xml:space="preserve" font-family="HelveticaNeue-Light,Helvetica Neue" font-size="36.0" fill="#747373" transform="matrix(1.00, 0.00, -0.00, -1.00, 756.4, 295.7)">e</text><text xml:space="preserve" font-family="HelveticaNeue-Light,Helvetica Neue" font-size="36.0" fill="#747373" transform="matrix(1.00, 0.00, -0.00, -1.00, 775.0, 295.7)">d</text><text xml:space="preserve" font-family="HelveticaNeue-Light,Helvetica Neue" font-size="36.0" fill="#747373" transform="matrix(1.00, 0.00, -0.00, -1.00, 795.7, 295.7)">.</text><text xml:space="preserve" font-family="HelveticaNeue-Light,Helvetica Neue" font-size="36.0" fill="#747373" transform="matrix(1.00, 0.00, -0.00, -1.00, 805.7, 295.7)"> </text><text xml:space="preserve" font-family="HelveticaNeue,Helvetica Neue" font-size="27.0" fill="#747373" transform="matrix(1.00, 0.00, -0.00, -1.00, 49.0, 213.2)">•</text><text xml:space="preserve" font-family="HelveticaNeue-Light,Helvetica Neue" font-size="36.0" fill="#747373" transform="matrix(1.00, 0.00, -0.00, -1.00, 85.0, 209.7)">C</text><text xml:space="preserve" font-family="HelveticaNeue-Light,Helvetica Neue" font-size="36.0" fill="#747373" transform="matrix(1.00, 0.00, -0.00, -1.00, 110.3, 209.7)">a</text><text xml:space="preserve" font-family="HelveticaNeue-Light,Helvetica Neue" font-size="36.0" fill="#747373" transform="matrix(1.00, 0.00, -0.00, -1.00, 129.0, 209.7)">n</text><text xml:space="preserve" font-family="HelveticaNeue-Light,Helvetica Neue" font-size="36.0" fill="#747373" transform="matrix(1.00, 0.00, -0.00, -1.00, 148.4, 209.7)"> </text><text xml:space="preserve" font-family="HelveticaNeue-Light,Helvetica Neue" font-size="36.0" fill="#747373" transform="matrix(1.00, 0.00, -0.00, -1.00, 158.4, 209.7)">u</text><text xml:space="preserve" font-family="HelveticaNeue-Light,Helvetica Neue" font-size="36.0" fill="#747373" transform="matrix(1.00, 0.00, -0.00, -1.00, 177.7, 209.7)">s</text><text xml:space="preserve" font-family="HelveticaNeue-Light,Helvetica Neue" font-size="36.0" fill="#747373" transform="matrix(1.00, 0.00, -0.00, -1.00, 195.0, 209.7)">e</text><text xml:space="preserve" font-family="HelveticaNeue-Light,Helvetica Neue" font-size="36.0" fill="#747373" transform="matrix(1.00, 0.00, -0.00, -1.00, 213.7, 209.7)"> </text><text xml:space="preserve" font-family="HelveticaNeue-Light,Helvetica Neue" font-size="36.0" fill="#747373" transform="matrix(1.00, 0.00, -0.00, -1.00, 223.7, 209.7)">t</text><text xml:space="preserve" font-family="HelveticaNeue-Light,Helvetica Neue" font-size="36.0" fill="#747373" transform="matrix(1.00, 0.00, -0.00, -1.00, 234.4, 209.7)">h</text><text xml:space="preserve" font-family="HelveticaNeue-Light,Helvetica Neue" font-size="36.0" fill="#747373" transform="matrix(1.00, 0.00, -0.00, -1.00, 253.7, 209.7)">e</text><text xml:space="preserve" font-family="HelveticaNeue-Light,Helvetica Neue" font-size="36.0" fill="#747373" transform="matrix(1.00, 0.00, -0.00, -1.00, 272.4, 209.7)"> </text><text xml:space="preserve" font-family="HelveticaNeue-Light,Helvetica Neue" font-size="36.0" fill="#747373" transform="matrix(1.00, 0.00, -0.00, -1.00, 282.4, 209.7)">i</text><text xml:space="preserve" font-family="HelveticaNeue-Light,Helvetica Neue" font-size="36.0" fill="#747373" transform="matrix(1.00, 0.00, -0.00, -1.00, 289.0, 209.7)">n</text><text xml:space="preserve" font-family="HelveticaNeue-Light,Helvetica Neue" font-size="36.0" fill="#747373" transform="matrix(1.00, 0.00, -0.00, -1.00, 308.4, 209.7)">t</text><text xml:space="preserve" font-family="HelveticaNeue-Light,Helvetica Neue" font-size="36.0" fill="#747373" transform="matrix(1.00, 0.00, -0.00, -1.00, 319.0, 209.7)">e</text><text xml:space="preserve" font-family="HelveticaNeue-Light,Helvetica Neue" font-size="36.0" fill="#747373" transform="matrix(1.00, 0.00, -0.00, -1.00, 337.7, 209.7)">r</text><text xml:space="preserve" font-family="HelveticaNeue-Light,Helvetica Neue" font-size="36.0" fill="#747373" transform="matrix(1.00, 0.00, -0.00, -1.00, 349.7, 209.7)">n</text><text xml:space="preserve" font-family="HelveticaNeue-Light,Helvetica Neue" font-size="36.0" fill="#747373" transform="matrix(1.00, 0.00, -0.00, -1.00, 369.0, 209.7)">e</text><text xml:space="preserve" font-family="HelveticaNeue-Light,Helvetica Neue" font-size="36.0" fill="#747373" transform="matrix(1.00, 0.00, -0.00, -1.00, 387.7, 209.7)">t</text><text xml:space="preserve" font-family="HelveticaNeue-Light,Helvetica Neue" font-size="36.0" fill="#747373" transform="matrix(1.00, 0.00, -0.00, -1.00, 398.4, 209.7)">,</text><text xml:space="preserve" font-family="HelveticaNeue-Light,Helvetica Neue" font-size="36.0" fill="#747373" transform="matrix(1.00, 0.00, -0.00, -1.00, 408.4, 209.7)"> </text><text xml:space="preserve" font-family="HelveticaNeue-Light,Helvetica Neue" font-size="36.0" fill="#747373" transform="matrix(1.00, 0.00, -0.00, -1.00, 418.4, 209.7)">g</text><text xml:space="preserve" font-family="HelveticaNeue-Light,Helvetica Neue" font-size="36.0" fill="#747373" transform="matrix(1.00, 0.00, -0.00, -1.00, 438.4, 209.7)">u</text><text xml:space="preserve" font-family="HelveticaNeue-Light,Helvetica Neue" font-size="36.0" fill="#747373" transform="matrix(1.00, 0.00, -0.00, -1.00, 457.7, 209.7)">a</text><text xml:space="preserve" font-family="HelveticaNeue-Light,Helvetica Neue" font-size="36.0" fill="#747373" transform="matrix(1.00, 0.00, -0.00, -1.00, 476.4, 209.7)">r</text><text xml:space="preserve" font-family="HelveticaNeue-Light,Helvetica Neue" font-size="36.0" fill="#747373" transform="matrix(1.00, 0.00, -0.00, -1.00, 487.8, 209.7)">a</text><text xml:space="preserve" font-family="HelveticaNeue-Light,Helvetica Neue" font-size="36.0" fill="#747373" transform="matrix(1.00, 0.00, -0.00, -1.00, 506.5, 209.7)">n</text><text xml:space="preserve" font-family="HelveticaNeue-Light,Helvetica Neue" font-size="36.0" fill="#747373" transform="matrix(1.00, 0.00, -0.00, -1.00, 525.8, 209.7)">t</text><text xml:space="preserve" font-family="HelveticaNeue-Light,Helvetica Neue" font-size="36.0" fill="#747373" transform="matrix(1.00, 0.00, -0.00, -1.00, 536.4, 209.7)">e</text><text xml:space="preserve" font-family="HelveticaNeue-Light,Helvetica Neue" font-size="36.0" fill="#747373" transform="matrix(1.00, 0.00, -0.00, -1.00, 555.1, 209.7)">e</text><text xml:space="preserve" font-family="HelveticaNeue-Light,Helvetica Neue" font-size="36.0" fill="#747373" transform="matrix(1.00, 0.00, -0.00, -1.00, 573.8, 209.7)">d</text><text xml:space="preserve" font-family="HelveticaNeue-Light,Helvetica Neue" font-size="36.0" fill="#747373" transform="matrix(1.00, 0.00, -0.00, -1.00, 594.5, 209.7)">.</text></g></svg>