<?xml version="1.0" encoding="UTF-8" standalone="no"?><svg xmlns="http://www.w3.org/2000/svg" xmlns:xlink="http://www.w3.org/1999/xlink" clip-rule="evenodd" stroke-miterlimit="10" viewBox="0 0 398 42"><desc>SVG generated by Keynote</desc><defs></defs><g transform="matrix(1.00, 0.00, -0.00, -1.00, 0.0, 42.0)"><text xml:space="preserve" font-family="HelveticaNeue-Light,Helvetica Neue" font-size="42.0" fill="#000000" transform="matrix(1.00, 0.00, -0.00, -1.00, -2.0, 10.2)">E</text><text xml:space="preserve" font-family="HelveticaNeue-Light,Helvetica Neue" font-size="42.0" fill="#000000" transform="matrix(1.00, 0.00, -0.00, -1.00, 22.9, 10.2)">x</text><text xml:space="preserve" font-family="HelveticaNeue-Light,Helvetica Neue" font-size="42.0" fill="#000000" transform="matrix(1.00, 0.00, -0.00, -1.00, 43.1, 10.2)">a</text><text xml:space="preserve" font-family="HelveticaNeue-Light,Helvetica Neue" font-size="42.0" fill="#000000" transform="matrix(1.00, 0.00, -0.00, -1.00, 64.9, 10.2)">m</text><text xml:space="preserve" font-family="HelveticaNeue-Light,Helvetica Neue" font-size="42.0" fill="#000000" transform="matrix(1.00, 0.00, -0.00, -1.00, 99.9, 10.2)">p</text><text xml:space="preserve" font-family="HelveticaNeue-Light,Helvetica Neue" font-size="42.0" fill="#000000" transform="matrix(1.00, 0.00, -0.00, -1.00, 124.0, 10.2)">l</text><text xml:space="preserve" font-family="HelveticaNeue-Light,Helvetica Neue" font-size="42.0" fill="#000000" transform="matrix(1.00, 0.00, -0.00, -1.00, 131.8, 10.2)">e</text><text xml:space="preserve" font-family="HelveticaNeue-Light,Helvetica Neue" font-size="42.0" fill="#000000" transform="matrix(1.00, 0.00, -0.00, -1.00, 153.6, 10.2)"> </text><text xml:space="preserve" font-family="HelveticaNeue-Light,Helvetica Neue" font-size="42.0" fill="#000000" transform="matrix(1.00, 0.00, -0.00, -1.00, 165.2, 10.2)">A</text><text xml:space="preserve" font-family="HelveticaNeue-Light,Helvetica Neue" font-size="42.0" fill="#000000" transform="matrix(1.00, 0.00, -0.00, -1.00, 191.7, 10.2)">s</text><text xml:space="preserve" font-family="HelveticaNeue-Light,Helvetica Neue" font-size="42.0" fill="#000000" transform="matrix(1.00, 0.00, -0.00, -1.00, 211.9, 10.2)">s</text><text xml:space="preserve" font-family="HelveticaNeue-Light,Helvetica Neue" font-size="42.0" fill="#000000" transform="matrix(1.00, 0.00, -0.00, -1.00, 232.1, 10.2)">i</text><text xml:space="preserve" font-family="HelveticaNeue-Light,Helvetica Neue" font-size="42.0" fill="#000000" transform="matrix(1.00, 0.00, -0.00, -1.00, 239.9, 10.2)">g</text><text xml:space="preserve" font-family="HelveticaNeue-Light,Helvetica Neue" font-size="42.0" fill="#000000" transform="matrix(1.00, 0.00, -0.00, -1.00, 263.2, 10.2)">n</text><text xml:space="preserve" font-family="HelveticaNeue-Light,Helvetica Neue" font-size="42.0" fill="#000000" transform="matrix(1.00, 0.00, -0.00, -1.00, 285.8, 10.2)">m</text><text xml:space="preserve" font-family="HelveticaNeue-Light,Helvetica Neue" font-size="42.0" fill="#000000" transform="matrix(1.00, 0.00, -0.00, -1.00, 320.8, 10.2)">e</text><text xml:space="preserve" font-family="HelveticaNeue-Light,Helvetica Neue" font-size="42.0" fill="#000000" transform="matrix(1.00, 0.00, -0.00, -1.00, 342.6, 10.2)">n</text><text xml:space="preserve" font-family="HelveticaNeue-Light,Helvetica Neue" font-size="42.0" fill="#000000" transform="matrix(1.00, 0.00, -0.00, -1.00, 365.1, 10.2)">t</text><text xml:space="preserve" font-family="HelveticaNeue-Light,Helvetica Neue" font-size="42.0" fill="#000000" transform="matrix(1.00, 0.00, -0.00, -1.00, 377.6, 10.2)">s</text></g></svg>