<?xml version="1.0" encoding="UTF-8" standalone="no"?><svg xmlns="http://www.w3.org/2000/svg" xmlns:xlink="http://www.w3.org/1999/xlink" clip-rule="evenodd" stroke-miterlimit="10" viewBox="0 0 917 32"><desc>SVG generated by Keynote</desc><defs></defs><g transform="matrix(1.00, 0.00, -0.00, -1.00, 0.0, 32.0)"><text xml:space="preserve" font-family="HelveticaNeue,Helvetica Neue" font-size="22.7" fill="#747373" transform="matrix(1.00, 0.00, -0.00, -1.00, 0.0, 9.8)">•</text><text xml:space="preserve" font-family="HelveticaNeue-Light,Helvetica Neue" font-size="30.2" fill="#747373" transform="matrix(1.00, 0.00, -0.00, -1.00, 30.2, 7.2)">H</text><text xml:space="preserve" font-family="HelveticaNeue-Light,Helvetica Neue" font-size="30.2" fill="#747373" transform="matrix(1.00, 0.00, -0.00, -1.00, 51.5, 7.2)">e</text><text xml:space="preserve" font-family="HelveticaNeue-Light,Helvetica Neue" font-size="30.2" fill="#747373" transform="matrix(1.00, 0.00, -0.00, -1.00, 67.2, 7.2)">r</text><text xml:space="preserve" font-family="HelveticaNeue-Light,Helvetica Neue" font-size="30.2" fill="#747373" transform="matrix(1.00, 0.00, -0.00, -1.00, 76.2, 7.2)">e</text><text xml:space="preserve" font-family="HelveticaNeue-Light,Helvetica Neue" font-size="30.2" fill="#747373" transform="matrix(1.00, 0.00, -0.00, -1.00, 91.9, 7.2)"> </text><text xml:space="preserve" font-family="HelveticaNeue-Light,Helvetica Neue" font-size="30.2" fill="#747373" transform="matrix(1.00, 0.00, -0.00, -1.00, 100.3, 7.2)">i</text><text xml:space="preserve" font-family="HelveticaNeue-Light,Helvetica Neue" font-size="30.2" fill="#747373" transform="matrix(1.00, 0.00, -0.00, -1.00, 105.9, 7.2)">s</text><text xml:space="preserve" font-family="HelveticaNeue-Light,Helvetica Neue" font-size="30.2" fill="#747373" transform="matrix(1.00, 0.00, -0.00, -1.00, 120.4, 7.2)"> </text><text xml:space="preserve" font-family="HelveticaNeue-Light,Helvetica Neue" font-size="30.2" fill="#747373" transform="matrix(1.00, 0.00, -0.00, -1.00, 128.9, 7.2)">a</text><text xml:space="preserve" font-family="HelveticaNeue-Light,Helvetica Neue" font-size="30.2" fill="#747373" transform="matrix(1.00, 0.00, -0.00, -1.00, 144.5, 7.2)"> </text><text xml:space="preserve" font-family="HelveticaNeue-Light,Helvetica Neue" font-size="30.2" fill="#747373" transform="matrix(1.00, 0.00, -0.00, -1.00, 153.0, 7.2)">j</text><text xml:space="preserve" font-family="HelveticaNeue-Light,Helvetica Neue" font-size="30.2" fill="#747373" transform="matrix(1.00, 0.00, -0.00, -1.00, 158.5, 7.2)">u</text><text xml:space="preserve" font-family="HelveticaNeue-Light,Helvetica Neue" font-size="30.2" fill="#747373" transform="matrix(1.00, 0.00, -0.00, -1.00, 174.8, 7.2)">i</text><text xml:space="preserve" font-family="HelveticaNeue-Light,Helvetica Neue" font-size="30.2" fill="#747373" transform="matrix(1.00, 0.00, -0.00, -1.00, 180.4, 7.2)">c</text><text xml:space="preserve" font-family="HelveticaNeue-Light,Helvetica Neue" font-size="30.2" fill="#747373" transform="matrix(1.00, 0.00, -0.00, -1.00, 196.1, 7.2)">y</text><text xml:space="preserve" font-family="HelveticaNeue-Light,Helvetica Neue" font-size="30.2" fill="#747373" transform="matrix(1.00, 0.00, -0.00, -1.00, 210.1, 7.2)"> </text><text xml:space="preserve" font-family="HelveticaNeue-Light,Helvetica Neue" font-size="30.2" fill="#747373" transform="matrix(1.00, 0.00, -0.00, -1.00, 218.5, 7.2)">r</text><text xml:space="preserve" font-family="HelveticaNeue-Light,Helvetica Neue" font-size="30.2" fill="#747373" transform="matrix(1.00, 0.00, -0.00, -1.00, 227.5, 7.2)">e</text><text xml:space="preserve" font-family="HelveticaNeue-Light,Helvetica Neue" font-size="30.2" fill="#747373" transform="matrix(1.00, 0.00, -0.00, -1.00, 243.2, 7.2)">a</text><text xml:space="preserve" font-family="HelveticaNeue-Light,Helvetica Neue" font-size="30.2" fill="#747373" transform="matrix(1.00, 0.00, -0.00, -1.00, 258.9, 7.2)">l</text><text xml:space="preserve" font-family="HelveticaNeue-Light,Helvetica Neue" font-size="30.2" fill="#747373" transform="matrix(1.00, 0.00, -0.00, -1.00, 264.4, 7.2)"> </text><text xml:space="preserve" font-family="HelveticaNeue-Light,Helvetica Neue" font-size="30.2" fill="#747373" transform="matrix(1.00, 0.00, -0.00, -1.00, 272.9, 7.2)">w</text><text xml:space="preserve" font-family="HelveticaNeue-Light,Helvetica Neue" font-size="30.2" fill="#747373" transform="matrix(1.00, 0.00, -0.00, -1.00, 295.3, 7.2)">o</text><text xml:space="preserve" font-family="HelveticaNeue-Light,Helvetica Neue" font-size="30.2" fill="#747373" transform="matrix(1.00, 0.00, -0.00, -1.00, 312.1, 7.2)">r</text><text xml:space="preserve" font-family="HelveticaNeue-Light,Helvetica Neue" font-size="30.2" fill="#747373" transform="matrix(1.00, 0.00, -0.00, -1.00, 321.6, 7.2)">l</text><text xml:space="preserve" font-family="HelveticaNeue-Light,Helvetica Neue" font-size="30.2" fill="#747373" transform="matrix(1.00, 0.00, -0.00, -1.00, 327.2, 7.2)">d</text><text xml:space="preserve" font-family="HelveticaNeue-Light,Helvetica Neue" font-size="30.2" fill="#747373" transform="matrix(1.00, 0.00, -0.00, -1.00, 344.6, 7.2)"> </text><text xml:space="preserve" font-family="HelveticaNeue-Light,Helvetica Neue" font-size="30.2" fill="#747373" transform="matrix(1.00, 0.00, -0.00, -1.00, 353.0, 7.2)">q</text><text xml:space="preserve" font-family="HelveticaNeue-Light,Helvetica Neue" font-size="30.2" fill="#747373" transform="matrix(1.00, 0.00, -0.00, -1.00, 370.3, 7.2)">u</text><text xml:space="preserve" font-family="HelveticaNeue-Light,Helvetica Neue" font-size="30.2" fill="#747373" transform="matrix(1.00, 0.00, -0.00, -1.00, 386.6, 7.2)">e</text><text xml:space="preserve" font-family="HelveticaNeue-Light,Helvetica Neue" font-size="30.2" fill="#747373" transform="matrix(1.00, 0.00, -0.00, -1.00, 402.3, 7.2)">s</text><text xml:space="preserve" font-family="HelveticaNeue-Light,Helvetica Neue" font-size="30.2" fill="#747373" transform="matrix(1.00, 0.00, -0.00, -1.00, 416.8, 7.2)">t</text><text xml:space="preserve" font-family="HelveticaNeue-Light,Helvetica Neue" font-size="30.2" fill="#747373" transform="matrix(1.00, 0.00, -0.00, -1.00, 425.7, 7.2)">i</text><text xml:space="preserve" font-family="HelveticaNeue-Light,Helvetica Neue" font-size="30.2" fill="#747373" transform="matrix(1.00, 0.00, -0.00, -1.00, 431.3, 7.2)">o</text><text xml:space="preserve" font-family="HelveticaNeue-Light,Helvetica Neue" font-size="30.2" fill="#747373" transform="matrix(1.00, 0.00, -0.00, -1.00, 448.2, 7.2)">n</text><text xml:space="preserve" font-family="HelveticaNeue-Light,Helvetica Neue" font-size="30.2" fill="#747373" transform="matrix(1.00, 0.00, -0.00, -1.00, 464.4, 7.2)">,</text><text xml:space="preserve" font-family="HelveticaNeue-Light,Helvetica Neue" font-size="30.2" fill="#747373" transform="matrix(1.00, 0.00, -0.00, -1.00, 472.8, 7.2)"> </text><text xml:space="preserve" font-family="HelveticaNeue-Bold,Helvetica Neue" font-weight="bold" font-size="30.2" fill="#747373" transform="matrix(1.00, 0.00, -0.00, -1.00, 481.2, 7.2)">u</text><text xml:space="preserve" font-family="HelveticaNeue-Bold,Helvetica Neue" font-weight="bold" font-size="30.2" fill="#747373" transform="matrix(1.00, 0.00, -0.00, -1.00, 499.1, 7.2)">s</text><text xml:space="preserve" font-family="HelveticaNeue-Bold,Helvetica Neue" font-weight="bold" font-size="30.2" fill="#747373" transform="matrix(1.00, 0.00, -0.00, -1.00, 515.4, 7.2)">e</text><text xml:space="preserve" font-family="HelveticaNeue-Bold,Helvetica Neue" font-weight="bold" font-size="30.2" fill="#747373" transform="matrix(1.00, 0.00, -0.00, -1.00, 532.7, 7.2)"> </text><text xml:space="preserve" font-family="HelveticaNeue-Bold,Helvetica Neue" font-weight="bold" font-size="30.2" fill="#747373" transform="matrix(1.00, 0.00, -0.00, -1.00, 541.1, 7.2)">t</text><text xml:space="preserve" font-family="HelveticaNeue-Bold,Helvetica Neue" font-weight="bold" font-size="30.2" fill="#747373" transform="matrix(1.00, 0.00, -0.00, -1.00, 551.8, 7.2)">h</text><text xml:space="preserve" font-family="HelveticaNeue-Bold,Helvetica Neue" font-weight="bold" font-size="30.2" fill="#747373" transform="matrix(1.00, 0.00, -0.00, -1.00, 569.7, 7.2)">e</text><text xml:space="preserve" font-family="HelveticaNeue-Bold,Helvetica Neue" font-weight="bold" font-size="30.2" fill="#747373" transform="matrix(1.00, 0.00, -0.00, -1.00, 587.1, 7.2)">s</text><text xml:space="preserve" font-family="HelveticaNeue-Bold,Helvetica Neue" font-weight="bold" font-size="30.2" fill="#747373" transform="matrix(1.00, 0.00, -0.00, -1.00, 603.3, 7.2)">e</text><text xml:space="preserve" font-family="HelveticaNeue-Bold,Helvetica Neue" font-weight="bold" font-size="30.2" fill="#747373" transform="matrix(1.00, 0.00, -0.00, -1.00, 620.7, 7.2)"> </text><text xml:space="preserve" font-family="HelveticaNeue-Bold,Helvetica Neue" font-weight="bold" font-size="30.2" fill="#747373" transform="matrix(1.00, 0.00, -0.00, -1.00, 629.1, 7.2)">r</text><text xml:space="preserve" font-family="HelveticaNeue-Bold,Helvetica Neue" font-weight="bold" font-size="30.2" fill="#747373" transform="matrix(1.00, 0.00, -0.00, -1.00, 640.3, 7.2)">e</text><text xml:space="preserve" font-family="HelveticaNeue-Bold,Helvetica Neue" font-weight="bold" font-size="30.2" fill="#747373" transform="matrix(1.00, 0.00, -0.00, -1.00, 657.7, 7.2)">s</text><text xml:space="preserve" font-family="HelveticaNeue-Bold,Helvetica Neue" font-weight="bold" font-size="30.2" fill="#747373" transform="matrix(1.00, 0.00, -0.00, -1.00, 673.9, 7.2)">o</text><text xml:space="preserve" font-family="HelveticaNeue-Bold,Helvetica Neue" font-weight="bold" font-size="30.2" fill="#747373" transform="matrix(1.00, 0.00, -0.00, -1.00, 692.4, 7.2)">u</text><text xml:space="preserve" font-family="HelveticaNeue-Bold,Helvetica Neue" font-weight="bold" font-size="30.2" fill="#747373" transform="matrix(1.00, 0.00, -0.00, -1.00, 710.3, 7.2)">r</text><text xml:space="preserve" font-family="HelveticaNeue-Bold,Helvetica Neue" font-weight="bold" font-size="30.2" fill="#747373" transform="matrix(1.00, 0.00, -0.00, -1.00, 721.5, 7.2)">c</text><text xml:space="preserve" font-family="HelveticaNeue-Bold,Helvetica Neue" font-weight="bold" font-size="30.2" fill="#747373" transform="matrix(1.00, 0.00, -0.00, -1.00, 738.9, 7.2)">e</text><text xml:space="preserve" font-family="HelveticaNeue-Bold,Helvetica Neue" font-weight="bold" font-size="30.2" fill="#747373" transform="matrix(1.00, 0.00, -0.00, -1.00, 756.2, 7.2)">s</text><text xml:space="preserve" font-family="HelveticaNeue-Bold,Helvetica Neue" font-weight="bold" font-size="30.2" fill="#747373" transform="matrix(1.00, 0.00, -0.00, -1.00, 772.5, 7.2)"> </text><text xml:space="preserve" font-family="HelveticaNeue-Bold,Helvetica Neue" font-weight="bold" font-size="30.2" fill="#747373" transform="matrix(1.00, 0.00, -0.00, -1.00, 780.9, 7.2)">t</text><text xml:space="preserve" font-family="HelveticaNeue-Bold,Helvetica Neue" font-weight="bold" font-size="30.2" fill="#747373" transform="matrix(1.00, 0.00, -0.00, -1.00, 791.5, 7.2)">o</text><text xml:space="preserve" font-family="HelveticaNeue-Bold,Helvetica Neue" font-weight="bold" font-size="30.2" fill="#747373" transform="matrix(1.00, 0.00, -0.00, -1.00, 810.0, 7.2)"> </text><text xml:space="preserve" font-family="HelveticaNeue-Bold,Helvetica Neue" font-weight="bold" font-size="30.2" fill="#747373" transform="matrix(1.00, 0.00, -0.00, -1.00, 818.4, 7.2)">ﬁ</text><text xml:space="preserve" font-family="HelveticaNeue-Bold,Helvetica Neue" font-weight="bold" font-size="30.2" fill="#747373" transform="matrix(1.00, 0.00, -0.00, -1.00, 836.9, 7.2)">n</text><text xml:space="preserve" font-family="HelveticaNeue-Bold,Helvetica Neue" font-weight="bold" font-size="30.2" fill="#747373" transform="matrix(1.00, 0.00, -0.00, -1.00, 854.8, 7.2)">d</text><text xml:space="preserve" font-family="HelveticaNeue-Bold,Helvetica Neue" font-weight="bold" font-size="30.2" fill="#747373" transform="matrix(1.00, 0.00, -0.00, -1.00, 873.3, 7.2)"> </text><text xml:space="preserve" font-family="HelveticaNeue-Bold,Helvetica Neue" font-weight="bold" font-size="30.2" fill="#747373" transform="matrix(1.00, 0.00, -0.00, -1.00, 881.7, 7.2)">a</text><text xml:space="preserve" font-family="HelveticaNeue-Bold,Helvetica Neue" font-weight="bold" font-size="30.2" fill="#747373" transform="matrix(1.00, 0.00, -0.00, -1.00, 899.1, 7.2)">n</text></g></svg>