<?xml version="1.0" encoding="UTF-8" standalone="no"?><svg xmlns="http://www.w3.org/2000/svg" xmlns:xlink="http://www.w3.org/1999/xlink" clip-rule="evenodd" stroke-miterlimit="10" viewBox="0 0 779 32"><desc>SVG generated by Keynote</desc><defs></defs><g transform="matrix(1.00, 0.00, -0.00, -1.00, 0.0, 32.0)"><text xml:space="preserve" font-family="HelveticaNeue-Bold,Helvetica Neue" font-weight="bold" font-size="30.2" fill="#747373" transform="matrix(1.00, 0.00, -0.00, -1.00, 0.2, 8.2)">a</text><text xml:space="preserve" font-family="HelveticaNeue-Bold,Helvetica Neue" font-weight="bold" font-size="30.2" fill="#747373" transform="matrix(1.00, 0.00, -0.00, -1.00, 17.6, 8.2)">n</text><text xml:space="preserve" font-family="HelveticaNeue-Bold,Helvetica Neue" font-weight="bold" font-size="30.2" fill="#747373" transform="matrix(1.00, 0.00, -0.00, -1.00, 35.5, 8.2)">s</text><text xml:space="preserve" font-family="HelveticaNeue-Bold,Helvetica Neue" font-weight="bold" font-size="30.2" fill="#747373" transform="matrix(1.00, 0.00, -0.00, -1.00, 51.8, 8.2)">w</text><text xml:space="preserve" font-family="HelveticaNeue-Bold,Helvetica Neue" font-weight="bold" font-size="30.2" fill="#747373" transform="matrix(1.00, 0.00, -0.00, -1.00, 76.4, 8.2)">e</text><text xml:space="preserve" font-family="HelveticaNeue-Bold,Helvetica Neue" font-weight="bold" font-size="30.2" fill="#747373" transform="matrix(1.00, 0.00, -0.00, -1.00, 93.7, 8.2)">r</text><text xml:space="preserve" font-family="HelveticaNeue-Bold,Helvetica Neue" font-weight="bold" font-size="30.2" fill="#747373" transform="matrix(1.00, 0.00, -0.00, -1.00, 102.7, 8.2)">.</text><text xml:space="preserve" font-family="HelveticaNeue-Light,Helvetica Neue" font-size="30.2" fill="#747373" transform="matrix(1.00, 0.00, -0.00, -1.00, 111.1, 8.2)"> </text><text xml:space="preserve" font-family="HelveticaNeue-Light,Helvetica Neue" font-size="30.2" fill="#747373" transform="matrix(1.00, 0.00, -0.00, -1.00, 119.5, 8.2)">Y</text><text xml:space="preserve" font-family="HelveticaNeue-Light,Helvetica Neue" font-size="30.2" fill="#747373" transform="matrix(1.00, 0.00, -0.00, -1.00, 135.2, 8.2)">o</text><text xml:space="preserve" font-family="HelveticaNeue-Light,Helvetica Neue" font-size="30.2" fill="#747373" transform="matrix(1.00, 0.00, -0.00, -1.00, 152.0, 8.2)">u</text><text xml:space="preserve" font-family="HelveticaNeue-Light,Helvetica Neue" font-size="30.2" fill="#747373" transform="matrix(1.00, 0.00, -0.00, -1.00, 168.3, 8.2)">/</text><text xml:space="preserve" font-family="HelveticaNeue-Light,Helvetica Neue" font-size="30.2" fill="#747373" transform="matrix(1.00, 0.00, -0.00, -1.00, 178.4, 8.2)">Y</text><text xml:space="preserve" font-family="HelveticaNeue-Light,Helvetica Neue" font-size="30.2" fill="#747373" transform="matrix(1.00, 0.00, -0.00, -1.00, 194.0, 8.2)">o</text><text xml:space="preserve" font-family="HelveticaNeue-Light,Helvetica Neue" font-size="30.2" fill="#747373" transform="matrix(1.00, 0.00, -0.00, -1.00, 210.9, 8.2)">u</text><text xml:space="preserve" font-family="HelveticaNeue-Light,Helvetica Neue" font-size="30.2" fill="#747373" transform="matrix(1.00, 0.00, -0.00, -1.00, 227.1, 8.2)">r</text><text xml:space="preserve" font-family="HelveticaNeue-Light,Helvetica Neue" font-size="30.2" fill="#747373" transform="matrix(1.00, 0.00, -0.00, -1.00, 236.6, 8.2)"> </text><text xml:space="preserve" font-family="HelveticaNeue-Light,Helvetica Neue" font-size="30.2" fill="#747373" transform="matrix(1.00, 0.00, -0.00, -1.00, 245.0, 8.2)">g</text><text xml:space="preserve" font-family="HelveticaNeue-Light,Helvetica Neue" font-size="30.2" fill="#747373" transform="matrix(1.00, 0.00, -0.00, -1.00, 261.8, 8.2)">r</text><text xml:space="preserve" font-family="HelveticaNeue-Light,Helvetica Neue" font-size="30.2" fill="#747373" transform="matrix(1.00, 0.00, -0.00, -1.00, 270.8, 8.2)">o</text><text xml:space="preserve" font-family="HelveticaNeue-Light,Helvetica Neue" font-size="30.2" fill="#747373" transform="matrix(1.00, 0.00, -0.00, -1.00, 287.6, 8.2)">u</text><text xml:space="preserve" font-family="HelveticaNeue-Light,Helvetica Neue" font-size="30.2" fill="#747373" transform="matrix(1.00, 0.00, -0.00, -1.00, 303.9, 8.2)">p</text><text xml:space="preserve" font-family="HelveticaNeue-Light,Helvetica Neue" font-size="30.2" fill="#747373" transform="matrix(1.00, 0.00, -0.00, -1.00, 321.2, 8.2)"> </text><text xml:space="preserve" font-family="HelveticaNeue-Light,Helvetica Neue" font-size="30.2" fill="#747373" transform="matrix(1.00, 0.00, -0.00, -1.00, 329.6, 8.2)">w</text><text xml:space="preserve" font-family="HelveticaNeue-Light,Helvetica Neue" font-size="30.2" fill="#747373" transform="matrix(1.00, 0.00, -0.00, -1.00, 352.1, 8.2)">i</text><text xml:space="preserve" font-family="HelveticaNeue-Light,Helvetica Neue" font-size="30.2" fill="#747373" transform="matrix(1.00, 0.00, -0.00, -1.00, 357.6, 8.2)">l</text><text xml:space="preserve" font-family="HelveticaNeue-Light,Helvetica Neue" font-size="30.2" fill="#747373" transform="matrix(1.00, 0.00, -0.00, -1.00, 363.2, 8.2)">l</text><text xml:space="preserve" font-family="HelveticaNeue-Light,Helvetica Neue" font-size="30.2" fill="#747373" transform="matrix(1.00, 0.00, -0.00, -1.00, 368.8, 8.2)"> </text><text xml:space="preserve" font-family="HelveticaNeue-Light,Helvetica Neue" font-size="30.2" fill="#747373" transform="matrix(1.00, 0.00, -0.00, -1.00, 377.2, 8.2)">p</text><text xml:space="preserve" font-family="HelveticaNeue-Light,Helvetica Neue" font-size="30.2" fill="#747373" transform="matrix(1.00, 0.00, -0.00, -1.00, 394.6, 8.2)">r</text><text xml:space="preserve" font-family="HelveticaNeue-Light,Helvetica Neue" font-size="30.2" fill="#747373" transform="matrix(1.00, 0.00, -0.00, -1.00, 403.6, 8.2)">e</text><text xml:space="preserve" font-family="HelveticaNeue-Light,Helvetica Neue" font-size="30.2" fill="#747373" transform="matrix(1.00, 0.00, -0.00, -1.00, 419.3, 8.2)">s</text><text xml:space="preserve" font-family="HelveticaNeue-Light,Helvetica Neue" font-size="30.2" fill="#747373" transform="matrix(1.00, 0.00, -0.00, -1.00, 433.8, 8.2)">e</text><text xml:space="preserve" font-family="HelveticaNeue-Light,Helvetica Neue" font-size="30.2" fill="#747373" transform="matrix(1.00, 0.00, -0.00, -1.00, 449.5, 8.2)">n</text><text xml:space="preserve" font-family="HelveticaNeue-Light,Helvetica Neue" font-size="30.2" fill="#747373" transform="matrix(1.00, 0.00, -0.00, -1.00, 465.8, 8.2)">t</text><text xml:space="preserve" font-family="HelveticaNeue-Light,Helvetica Neue" font-size="30.2" fill="#747373" transform="matrix(1.00, 0.00, -0.00, -1.00, 474.7, 8.2)"> </text><text xml:space="preserve" font-family="HelveticaNeue-Light,Helvetica Neue" font-size="30.2" fill="#747373" transform="matrix(1.00, 0.00, -0.00, -1.00, 483.1, 8.2)">i</text><text xml:space="preserve" font-family="HelveticaNeue-Light,Helvetica Neue" font-size="30.2" fill="#747373" transform="matrix(1.00, 0.00, -0.00, -1.00, 488.7, 8.2)">t</text><text xml:space="preserve" font-family="HelveticaNeue-Light,Helvetica Neue" font-size="30.2" fill="#747373" transform="matrix(1.00, 0.00, -0.00, -1.00, 497.7, 8.2)"> </text><text xml:space="preserve" font-family="HelveticaNeue-Light,Helvetica Neue" font-size="30.2" fill="#747373" transform="matrix(1.00, 0.00, -0.00, -1.00, 506.1, 8.2)">t</text><text xml:space="preserve" font-family="HelveticaNeue-Light,Helvetica Neue" font-size="30.2" fill="#747373" transform="matrix(1.00, 0.00, -0.00, -1.00, 515.0, 8.2)">o</text><text xml:space="preserve" font-family="HelveticaNeue-Light,Helvetica Neue" font-size="30.2" fill="#747373" transform="matrix(1.00, 0.00, -0.00, -1.00, 531.8, 8.2)"> </text><text xml:space="preserve" font-family="HelveticaNeue-Light,Helvetica Neue" font-size="30.2" fill="#747373" transform="matrix(1.00, 0.00, -0.00, -1.00, 540.2, 8.2)">t</text><text xml:space="preserve" font-family="HelveticaNeue-Light,Helvetica Neue" font-size="30.2" fill="#747373" transform="matrix(1.00, 0.00, -0.00, -1.00, 549.2, 8.2)">h</text><text xml:space="preserve" font-family="HelveticaNeue-Light,Helvetica Neue" font-size="30.2" fill="#747373" transform="matrix(1.00, 0.00, -0.00, -1.00, 565.4, 8.2)">e</text><text xml:space="preserve" font-family="HelveticaNeue-Light,Helvetica Neue" font-size="30.2" fill="#747373" transform="matrix(1.00, 0.00, -0.00, -1.00, 581.1, 8.2)"> </text><text xml:space="preserve" font-family="HelveticaNeue-Light,Helvetica Neue" font-size="30.2" fill="#747373" transform="matrix(1.00, 0.00, -0.00, -1.00, 589.5, 8.2)">c</text><text xml:space="preserve" font-family="HelveticaNeue-Light,Helvetica Neue" font-size="30.2" fill="#747373" transform="matrix(1.00, 0.00, -0.00, -1.00, 605.2, 8.2)">l</text><text xml:space="preserve" font-family="HelveticaNeue-Light,Helvetica Neue" font-size="30.2" fill="#747373" transform="matrix(1.00, 0.00, -0.00, -1.00, 610.8, 8.2)">a</text><text xml:space="preserve" font-family="HelveticaNeue-Light,Helvetica Neue" font-size="30.2" fill="#747373" transform="matrix(1.00, 0.00, -0.00, -1.00, 626.5, 8.2)">s</text><text xml:space="preserve" font-family="HelveticaNeue-Light,Helvetica Neue" font-size="30.2" fill="#747373" transform="matrix(1.00, 0.00, -0.00, -1.00, 641.1, 8.2)">s</text><text xml:space="preserve" font-family="HelveticaNeue-Light,Helvetica Neue" font-size="30.2" fill="#747373" transform="matrix(1.00, 0.00, -0.00, -1.00, 655.6, 8.2)"> </text><text xml:space="preserve" font-family="HelveticaNeue-Light,Helvetica Neue" font-size="30.2" fill="#747373" transform="matrix(1.00, 0.00, -0.00, -1.00, 664.0, 8.2)">(</text><text xml:space="preserve" font-family="HelveticaNeue-Light,Helvetica Neue" font-size="30.2" fill="#747373" transform="matrix(1.00, 0.00, -0.00, -1.00, 671.3, 8.2)">S</text><text xml:space="preserve" font-family="HelveticaNeue-Light,Helvetica Neue" font-size="30.2" fill="#747373" transform="matrix(1.00, 0.00, -0.00, -1.00, 690.3, 8.2)">o</text><text xml:space="preserve" font-family="HelveticaNeue-Light,Helvetica Neue" font-size="30.2" fill="#747373" transform="matrix(1.00, 0.00, -0.00, -1.00, 707.2, 8.2)">c</text><text xml:space="preserve" font-family="HelveticaNeue-Light,Helvetica Neue" font-size="30.2" fill="#747373" transform="matrix(1.00, 0.00, -0.00, -1.00, 722.9, 8.2)">r</text><text xml:space="preserve" font-family="HelveticaNeue-Light,Helvetica Neue" font-size="30.2" fill="#747373" transform="matrix(1.00, 0.00, -0.00, -1.00, 732.4, 8.2)">a</text><text xml:space="preserve" font-family="HelveticaNeue-Light,Helvetica Neue" font-size="30.2" fill="#747373" transform="matrix(1.00, 0.00, -0.00, -1.00, 748.1, 8.2)">t</text><text xml:space="preserve" font-family="HelveticaNeue-Light,Helvetica Neue" font-size="30.2" fill="#747373" transform="matrix(1.00, 0.00, -0.00, -1.00, 757.0, 8.2)">i</text><text xml:space="preserve" font-family="HelveticaNeue-Light,Helvetica Neue" font-size="30.2" fill="#747373" transform="matrix(1.00, 0.00, -0.00, -1.00, 762.6, 8.2)">c</text></g></svg>