<?xml version="1.0" encoding="UTF-8" standalone="no"?><svg xmlns="http://www.w3.org/2000/svg" xmlns:xlink="http://www.w3.org/1999/xlink" clip-rule="evenodd" stroke-miterlimit="10" viewBox="0 0 31 35"><desc>SVG generated by Keynote</desc><defs></defs><g transform="matrix(1.00, 0.00, -0.00, -1.00, 0.0, 35.0)"><g><clipPath id="clip0x7ff48fe4fe60"><path d="M 2.0 34.0 L 29.0 34.0 L 29.0 1.0 L 2.0 1.0 Z M 2.0 34.0 "></path></clipPath><g clip-path="url(#clip0x7ff48fe4fe60)"><g><clipPath id="clip0x7ff48fe505c0"><path d="M 2.0 1.0 L 29.0 1.0 L 29.0 34.0 L 2.0 34.0 Z M 2.0 1.0 "></path></clipPath><g clip-path="url(#clip0x7ff48fe505c0)"><path d="M 24.8 23.1 C 23.0 24.6 21.1 25.4 19.2 25.4 C 17.0 25.4 15.2 24.6 13.7 23.0 C 12.3 21.5 11.5 19.6 11.5 17.4 C 11.5 15.2 12.3 13.4 13.7 11.9 C 15.2 10.4 17.0 9.6 19.2 9.6 C 20.3 9.6 21.2 9.8 22.0 10.2 C 22.4 10.4 22.9 10.6 23.3 10.9 C 23.8 11.2 24.3 11.6 24.8 12.0 L 24.8 8.2 C 23.0 7.2 21.1 6.7 19.1 6.7 C 16.2 6.7 13.6 7.7 11.5 9.8 C 9.4 11.9 8.4 14.4 8.4 17.4 C 8.4 20.0 9.2 22.4 11.0 24.5 C 13.2 27.0 15.9 28.3 19.4 28.3 C 21.2 28.3 23.1 27.8 24.8 26.8 Z M 29.0 30.2 C 26.1 32.6 22.5 34.0 18.5 34.0 C 9.4 34.0 2.0 26.6 2.0 17.5 C 2.0 8.4 9.4 1.0 18.5 1.0 C 22.6 1.0 26.1 2.5 29.0 4.9 C 29.0 9.8 29.0 24.9 29.0 30.2 " fill="#7F8184"></path></g></g></g></g></g></svg>