<?xml version="1.0" encoding="UTF-8" standalone="no"?><svg xmlns="http://www.w3.org/2000/svg" xmlns:xlink="http://www.w3.org/1999/xlink" clip-rule="evenodd" stroke-miterlimit="10" viewBox="0 0 112 21"><desc>SVG generated by Keynote</desc><defs></defs><g transform="matrix(1.00, 0.00, -0.00, -1.00, 0.0, 21.0)"><text xml:space="preserve" font-family="GillSans,Gill Sans" font-size="24.0" fill="#797979" transform="matrix(1.00, 0.00, -0.00, -1.00, 2.1, 2.0)">f</text><text xml:space="preserve" font-family="GillSans,Gill Sans" font-size="24.0" fill="#797979" transform="matrix(1.00, 0.00, -0.00, -1.00, 8.1, 2.0)">r</text><text xml:space="preserve" font-family="GillSans,Gill Sans" font-size="24.0" fill="#797979" transform="matrix(1.00, 0.00, -0.00, -1.00, 17.6, 2.0)">i</text><text xml:space="preserve" font-family="GillSans,Gill Sans" font-size="24.0" fill="#797979" transform="matrix(1.00, 0.00, -0.00, -1.00, 22.9, 2.0)">e</text><text xml:space="preserve" font-family="GillSans,Gill Sans" font-size="24.0" fill="#797979" transform="matrix(1.00, 0.00, -0.00, -1.00, 34.4, 2.0)">n</text><text xml:space="preserve" font-family="GillSans,Gill Sans" font-size="24.0" fill="#797979" transform="matrix(1.00, 0.00, -0.00, -1.00, 46.4, 2.0)">d</text><text xml:space="preserve" font-family="GillSans,Gill Sans" font-size="24.0" fill="#797979" transform="matrix(1.00, 0.00, -0.00, -1.00, 58.6, 2.0)">l</text><text xml:space="preserve" font-family="GillSans,Gill Sans" font-size="24.0" fill="#797979" transform="matrix(1.00, 0.00, -0.00, -1.00, 63.9, 2.0)">i</text><text xml:space="preserve" font-family="GillSans,Gill Sans" font-size="24.0" fill="#797979" transform="matrix(1.00, 0.00, -0.00, -1.00, 69.1, 2.0)">n</text><text xml:space="preserve" font-family="GillSans,Gill Sans" font-size="24.0" fill="#797979" transform="matrix(1.00, 0.00, -0.00, -1.00, 81.1, 2.0)">e</text><text xml:space="preserve" font-family="GillSans,Gill Sans" font-size="24.0" fill="#797979" transform="matrix(1.00, 0.00, -0.00, -1.00, 92.6, 2.0)">s</text><text xml:space="preserve" font-family="GillSans,Gill Sans" font-size="24.0" fill="#797979" transform="matrix(1.00, 0.00, -0.00, -1.00, 101.9, 2.0)">s</text></g></svg>