<?xml version="1.0" encoding="UTF-8" standalone="no"?><svg xmlns="http://www.w3.org/2000/svg" xmlns:xlink="http://www.w3.org/1999/xlink" clip-rule="evenodd" stroke-miterlimit="10" viewBox="0 0 345 28"><desc>SVG generated by Keynote</desc><defs></defs><g transform="matrix(1.00, 0.00, -0.00, -1.00, 0.0, 28.0)"><text xml:space="preserve" font-family="HelveticaNeue,Helvetica Neue" font-size="19.1" fill="#747373" transform="matrix(1.00, 0.00, -0.00, -1.00, 0.0, 8.8)">•</text><text xml:space="preserve" font-family="HelveticaNeue,Helvetica Neue" font-size="25.5" fill="#747373" transform="matrix(1.00, 0.00, -0.00, -1.00, 25.5, 6.7)">I</text><text xml:space="preserve" font-family="HelveticaNeue,Helvetica Neue" font-size="25.5" fill="#747373" transform="matrix(1.00, 0.00, -0.00, -1.00, 32.1, 6.7)">d</text><text xml:space="preserve" font-family="HelveticaNeue,Helvetica Neue" font-size="25.5" fill="#747373" transform="matrix(1.00, 0.00, -0.00, -1.00, 47.2, 6.7)">e</text><text xml:space="preserve" font-family="HelveticaNeue,Helvetica Neue" font-size="25.5" fill="#747373" transform="matrix(1.00, 0.00, -0.00, -1.00, 60.9, 6.7)">a</text><text xml:space="preserve" font-family="HelveticaNeue,Helvetica Neue" font-size="25.5" fill="#747373" transform="matrix(1.00, 0.00, -0.00, -1.00, 74.6, 6.7)">l</text><text xml:space="preserve" font-family="HelveticaNeue,Helvetica Neue" font-size="25.5" fill="#747373" transform="matrix(1.00, 0.00, -0.00, -1.00, 80.2, 6.7)">l</text><text xml:space="preserve" font-family="HelveticaNeue,Helvetica Neue" font-size="25.5" fill="#747373" transform="matrix(1.00, 0.00, -0.00, -1.00, 85.9, 6.7)">y</text><text xml:space="preserve" font-family="HelveticaNeue,Helvetica Neue" font-size="25.5" fill="#747373" transform="matrix(1.00, 0.00, -0.00, -1.00, 98.6, 6.7)"> </text><text xml:space="preserve" font-family="HelveticaNeue,Helvetica Neue" font-size="25.5" fill="#747373" transform="matrix(1.00, 0.00, -0.00, -1.00, 105.7, 6.7)">s</text><text xml:space="preserve" font-family="HelveticaNeue,Helvetica Neue" font-size="25.5" fill="#747373" transform="matrix(1.00, 0.00, -0.00, -1.00, 118.4, 6.7)">t</text><text xml:space="preserve" font-family="HelveticaNeue,Helvetica Neue" font-size="25.5" fill="#747373" transform="matrix(1.00, 0.00, -0.00, -1.00, 126.5, 6.7)">u</text><text xml:space="preserve" font-family="HelveticaNeue,Helvetica Neue" font-size="25.5" fill="#747373" transform="matrix(1.00, 0.00, -0.00, -1.00, 140.6, 6.7)">d</text><text xml:space="preserve" font-family="HelveticaNeue,Helvetica Neue" font-size="25.5" fill="#747373" transform="matrix(1.00, 0.00, -0.00, -1.00, 155.7, 6.7)">e</text><text xml:space="preserve" font-family="HelveticaNeue,Helvetica Neue" font-size="25.5" fill="#747373" transform="matrix(1.00, 0.00, -0.00, -1.00, 169.4, 6.7)">n</text><text xml:space="preserve" font-family="HelveticaNeue,Helvetica Neue" font-size="25.5" fill="#747373" transform="matrix(1.00, 0.00, -0.00, -1.00, 183.6, 6.7)">t</text><text xml:space="preserve" font-family="HelveticaNeue,Helvetica Neue" font-size="25.5" fill="#747373" transform="matrix(1.00, 0.00, -0.00, -1.00, 191.6, 6.7)"> </text><text xml:space="preserve" font-family="HelveticaNeue,Helvetica Neue" font-size="25.5" fill="#747373" transform="matrix(1.00, 0.00, -0.00, -1.00, 198.7, 6.7)">e</text><text xml:space="preserve" font-family="HelveticaNeue,Helvetica Neue" font-size="25.5" fill="#747373" transform="matrix(1.00, 0.00, -0.00, -1.00, 212.4, 6.7)">n</text><text xml:space="preserve" font-family="HelveticaNeue,Helvetica Neue" font-size="25.5" fill="#747373" transform="matrix(1.00, 0.00, -0.00, -1.00, 226.5, 6.7)">d</text><text xml:space="preserve" font-family="HelveticaNeue,Helvetica Neue" font-size="25.5" fill="#747373" transform="matrix(1.00, 0.00, -0.00, -1.00, 241.7, 6.7)">s</text><text xml:space="preserve" font-family="HelveticaNeue,Helvetica Neue" font-size="25.5" fill="#747373" transform="matrix(1.00, 0.00, -0.00, -1.00, 254.4, 6.7)"> </text><text xml:space="preserve" font-family="HelveticaNeue,Helvetica Neue" font-size="25.5" fill="#747373" transform="matrix(1.00, 0.00, -0.00, -1.00, 261.5, 6.7)">u</text><text xml:space="preserve" font-family="HelveticaNeue,Helvetica Neue" font-size="25.5" fill="#747373" transform="matrix(1.00, 0.00, -0.00, -1.00, 275.6, 6.7)">p</text><text xml:space="preserve" font-family="HelveticaNeue,Helvetica Neue" font-size="25.5" fill="#747373" transform="matrix(1.00, 0.00, -0.00, -1.00, 290.8, 6.7)"> </text><text xml:space="preserve" font-family="HelveticaNeue,Helvetica Neue" font-size="25.5" fill="#747373" transform="matrix(1.00, 0.00, -0.00, -1.00, 297.8, 6.7)">w</text><text xml:space="preserve" font-family="HelveticaNeue,Helvetica Neue" font-size="25.5" fill="#747373" transform="matrix(1.00, 0.00, -0.00, -1.00, 317.1, 6.7)">i</text><text xml:space="preserve" font-family="HelveticaNeue,Helvetica Neue" font-size="25.5" fill="#747373" transform="matrix(1.00, 0.00, -0.00, -1.00, 322.8, 6.7)">t</text><text xml:space="preserve" font-family="HelveticaNeue,Helvetica Neue" font-size="25.5" fill="#747373" transform="matrix(1.00, 0.00, -0.00, -1.00, 330.8, 6.7)">h</text></g></svg>