<?xml version="1.0" encoding="UTF-8" standalone="no"?><svg xmlns="http://www.w3.org/2000/svg" xmlns:xlink="http://www.w3.org/1999/xlink" clip-rule="evenodd" stroke-miterlimit="10" viewBox="0 0 356 32"><desc>SVG generated by Keynote</desc><defs></defs><g transform="matrix(1.00, 0.00, -0.00, -1.00, 0.0, 32.0)"><text xml:space="preserve" font-family="HelveticaNeue,Helvetica Neue" font-size="19.5" fill="#747373" transform="matrix(1.00, 0.00, -0.00, -1.00, 0.0, 8.8)">•</text><text xml:space="preserve" font-family="HelveticaNeue,Helvetica Neue" font-size="26.0" fill="#747373" transform="matrix(1.00, 0.00, -0.00, -1.00, 26.0, 6.3)">A</text><text xml:space="preserve" font-family="HelveticaNeue,Helvetica Neue" font-size="26.0" fill="#747373" transform="matrix(1.00, 0.00, -0.00, -1.00, 42.8, 6.3)">l</text><text xml:space="preserve" font-family="HelveticaNeue,Helvetica Neue" font-size="26.0" fill="#747373" transform="matrix(1.00, 0.00, -0.00, -1.00, 48.6, 6.3)">s</text><text xml:space="preserve" font-family="HelveticaNeue,Helvetica Neue" font-size="26.0" fill="#747373" transform="matrix(1.00, 0.00, -0.00, -1.00, 61.6, 6.3)">o</text><text xml:space="preserve" font-family="HelveticaNeue,Helvetica Neue" font-size="26.0" fill="#747373" transform="matrix(1.00, 0.00, -0.00, -1.00, 76.5, 6.3)"> </text><text xml:space="preserve" font-family="HelveticaNeue,Helvetica Neue" font-size="26.0" fill="#747373" transform="matrix(1.00, 0.00, -0.00, -1.00, 83.8, 6.3)">M</text><text xml:space="preserve" font-family="HelveticaNeue,Helvetica Neue" font-size="26.0" fill="#747373" transform="matrix(1.00, 0.00, -0.00, -1.00, 106.4, 6.3)">I</text><text xml:space="preserve" font-family="HelveticaNeue,Helvetica Neue" font-size="26.0" fill="#747373" transform="matrix(1.00, 0.00, -0.00, -1.00, 113.2, 6.3)">T</text><text xml:space="preserve" font-family="HelveticaNeue,Helvetica Neue" font-size="26.0" fill="#747373" transform="matrix(1.00, 0.00, -0.00, -1.00, 128.1, 6.3)">1</text><text xml:space="preserve" font-family="HelveticaNeue,Helvetica Neue" font-size="26.0" fill="#747373" transform="matrix(1.00, 0.00, -0.00, -1.00, 142.5, 6.3)">0</text><text xml:space="preserve" font-family="HelveticaNeue,Helvetica Neue" font-size="26.0" fill="#747373" transform="matrix(1.00, 0.00, -0.00, -1.00, 157.0, 6.3)">1</text><text xml:space="preserve" font-family="HelveticaNeue,Helvetica Neue" font-size="26.0" fill="#747373" transform="matrix(1.00, 0.00, -0.00, -1.00, 171.4, 6.3)">:</text><text xml:space="preserve" font-family="HelveticaNeue,Helvetica Neue" font-size="26.0" fill="#747373" transform="matrix(1.00, 0.00, -0.00, -1.00, 178.7, 6.3)"> </text><text xml:space="preserve" font-family="HelveticaNeue,Helvetica Neue" font-size="26.0" fill="#747373" transform="matrix(1.00, 0.00, -0.00, -1.00, 185.9, 6.3)">I</text><text xml:space="preserve" font-family="HelveticaNeue,Helvetica Neue" font-size="26.0" fill="#747373" transform="matrix(1.00, 0.00, -0.00, -1.00, 192.6, 6.3)">n</text><text xml:space="preserve" font-family="HelveticaNeue,Helvetica Neue" font-size="26.0" fill="#747373" transform="matrix(1.00, 0.00, -0.00, -1.00, 207.1, 6.3)">t</text><text xml:space="preserve" font-family="HelveticaNeue,Helvetica Neue" font-size="26.0" fill="#747373" transform="matrix(1.00, 0.00, -0.00, -1.00, 215.3, 6.3)">r</text><text xml:space="preserve" font-family="HelveticaNeue,Helvetica Neue" font-size="26.0" fill="#747373" transform="matrix(1.00, 0.00, -0.00, -1.00, 223.5, 6.3)">o</text><text xml:space="preserve" font-family="HelveticaNeue,Helvetica Neue" font-size="26.0" fill="#747373" transform="matrix(1.00, 0.00, -0.00, -1.00, 238.4, 6.3)">d</text><text xml:space="preserve" font-family="HelveticaNeue,Helvetica Neue" font-size="26.0" fill="#747373" transform="matrix(1.00, 0.00, -0.00, -1.00, 253.8, 6.3)">u</text><text xml:space="preserve" font-family="HelveticaNeue,Helvetica Neue" font-size="26.0" fill="#747373" transform="matrix(1.00, 0.00, -0.00, -1.00, 268.3, 6.3)">c</text><text xml:space="preserve" font-family="HelveticaNeue,Helvetica Neue" font-size="26.0" fill="#747373" transform="matrix(1.00, 0.00, -0.00, -1.00, 282.2, 6.3)">t</text><text xml:space="preserve" font-family="HelveticaNeue,Helvetica Neue" font-size="26.0" fill="#747373" transform="matrix(1.00, 0.00, -0.00, -1.00, 290.4, 6.3)">i</text><text xml:space="preserve" font-family="HelveticaNeue,Helvetica Neue" font-size="26.0" fill="#747373" transform="matrix(1.00, 0.00, -0.00, -1.00, 296.2, 6.3)">o</text><text xml:space="preserve" font-family="HelveticaNeue,Helvetica Neue" font-size="26.0" fill="#747373" transform="matrix(1.00, 0.00, -0.00, -1.00, 311.1, 6.3)">n</text><text xml:space="preserve" font-family="HelveticaNeue,Helvetica Neue" font-size="26.0" fill="#747373" transform="matrix(1.00, 0.00, -0.00, -1.00, 325.6, 6.3)"> </text><text xml:space="preserve" font-family="HelveticaNeue,Helvetica Neue" font-size="26.0" fill="#747373" transform="matrix(1.00, 0.00, -0.00, -1.00, 332.8, 6.3)">t</text><text xml:space="preserve" font-family="HelveticaNeue,Helvetica Neue" font-size="26.0" fill="#747373" transform="matrix(1.00, 0.00, -0.00, -1.00, 341.0, 6.3)">o</text><g><clipPath id="clip0x7ff4805d27f0"><path d="M 25.0 2.0 L 171.4 2.0 L 171.4 5.3 L 25.0 5.3 Z M 25.0 2.0 "></path></clipPath><g clip-path="url(#clip0x7ff4805d27f0)"><path d="M 30.0 32.3 L 175.4 32.3 " fill="none" stroke="#747373" stroke-width="1.30" transform="matrix(1.00, 0.00, 0.00, -1.00, -4.0, 36.0)"></path></g></g></g></svg>