<?xml version="1.0" encoding="UTF-8" standalone="no"?><svg xmlns="http://www.w3.org/2000/svg" xmlns:xlink="http://www.w3.org/1999/xlink" clip-rule="evenodd" stroke-miterlimit="10" viewBox="0 0 195 31"><desc>SVG generated by Keynote</desc><defs></defs><g transform="matrix(1.00, 0.00, -0.00, -1.00, 0.0, 31.0)"><text xml:space="preserve" font-family="HelveticaNeue-Light,Helvetica Neue" font-size="30.0" fill="#000000" transform="matrix(1.00, 0.00, -0.00, -1.00, 1.7, 7.7)">t</text><text xml:space="preserve" font-family="HelveticaNeue-Light,Helvetica Neue" font-size="30.0" fill="#000000" transform="matrix(1.00, 0.00, -0.00, -1.00, 10.5, 7.7)">h</text><text xml:space="preserve" font-family="HelveticaNeue-Light,Helvetica Neue" font-size="30.0" fill="#000000" transform="matrix(1.00, 0.00, -0.00, -1.00, 26.7, 7.7)">e</text><text xml:space="preserve" font-family="HelveticaNeue-Light,Helvetica Neue" font-size="30.0" fill="#000000" transform="matrix(1.00, 0.00, -0.00, -1.00, 42.2, 7.7)"> </text><text xml:space="preserve" font-family="HelveticaNeue-Light,Helvetica Neue" font-size="30.0" fill="#000000" transform="matrix(1.00, 0.00, -0.00, -1.00, 50.6, 7.7)">E</text><text xml:space="preserve" font-family="HelveticaNeue-Light,Helvetica Neue" font-size="30.0" fill="#000000" transform="matrix(1.00, 0.00, -0.00, -1.00, 68.4, 7.7)">x</text><text xml:space="preserve" font-family="HelveticaNeue-Light,Helvetica Neue" font-size="30.0" fill="#000000" transform="matrix(1.00, 0.00, -0.00, -1.00, 82.8, 7.7)">p</text><text xml:space="preserve" font-family="HelveticaNeue-Light,Helvetica Neue" font-size="30.0" fill="#000000" transform="matrix(1.00, 0.00, -0.00, -1.00, 100.0, 7.7)">e</text><text xml:space="preserve" font-family="HelveticaNeue-Light,Helvetica Neue" font-size="30.0" fill="#000000" transform="matrix(1.00, 0.00, -0.00, -1.00, 115.6, 7.7)">r</text><text xml:space="preserve" font-family="HelveticaNeue-Light,Helvetica Neue" font-size="30.0" fill="#000000" transform="matrix(1.00, 0.00, -0.00, -1.00, 125.0, 7.7)">i</text><text xml:space="preserve" font-family="HelveticaNeue-Light,Helvetica Neue" font-size="30.0" fill="#000000" transform="matrix(1.00, 0.00, -0.00, -1.00, 130.6, 7.7)">e</text><text xml:space="preserve" font-family="HelveticaNeue-Light,Helvetica Neue" font-size="30.0" fill="#000000" transform="matrix(1.00, 0.00, -0.00, -1.00, 146.1, 7.7)">n</text><text xml:space="preserve" font-family="HelveticaNeue-Light,Helvetica Neue" font-size="30.0" fill="#000000" transform="matrix(1.00, 0.00, -0.00, -1.00, 162.3, 7.7)">c</text><text xml:space="preserve" font-family="HelveticaNeue-Light,Helvetica Neue" font-size="30.0" fill="#000000" transform="matrix(1.00, 0.00, -0.00, -1.00, 177.8, 7.7)">e</text></g></svg>