<?xml version="1.0" encoding="UTF-8" standalone="no"?><svg xmlns="http://www.w3.org/2000/svg" xmlns:xlink="http://www.w3.org/1999/xlink" clip-rule="evenodd" stroke-miterlimit="10" viewBox="0 0 294 27"><desc>SVG generated by Keynote</desc><defs></defs><g transform="matrix(1.00, 0.00, -0.00, -1.00, 0.0, 27.0)"><text xml:space="preserve" font-family="Helvetica-Bold,Helvetica" font-weight="bold" font-size="30.0" fill="#000000" transform="matrix(1.00, 0.00, -0.00, -1.00, 1.1, 2.5)">O</text><text xml:space="preserve" font-family="Helvetica-Bold,Helvetica" font-weight="bold" font-size="30.0" fill="#000000" transform="matrix(1.00, 0.00, -0.00, -1.00, 24.5, 2.5)">v</text><text xml:space="preserve" font-family="Helvetica-Bold,Helvetica" font-weight="bold" font-size="30.0" fill="#000000" transform="matrix(1.00, 0.00, -0.00, -1.00, 41.1, 2.5)">e</text><text xml:space="preserve" font-family="Helvetica-Bold,Helvetica" font-weight="bold" font-size="30.0" fill="#000000" transform="matrix(1.00, 0.00, -0.00, -1.00, 57.8, 2.5)">r</text><text xml:space="preserve" font-family="Helvetica-Bold,Helvetica" font-weight="bold" font-size="30.0" fill="#000000" transform="matrix(1.00, 0.00, -0.00, -1.00, 69.5, 2.5)">c</text><text xml:space="preserve" font-family="Helvetica-Bold,Helvetica" font-weight="bold" font-size="30.0" fill="#000000" transform="matrix(1.00, 0.00, -0.00, -1.00, 86.2, 2.5)">o</text><text xml:space="preserve" font-family="Helvetica-Bold,Helvetica" font-weight="bold" font-size="30.0" fill="#000000" transform="matrix(1.00, 0.00, -0.00, -1.00, 104.5, 2.5)">m</text><text xml:space="preserve" font-family="Helvetica-Bold,Helvetica" font-weight="bold" font-size="30.0" fill="#000000" transform="matrix(1.00, 0.00, -0.00, -1.00, 131.1, 2.5)">e</text><text xml:space="preserve" font-family="Helvetica-Bold,Helvetica" font-weight="bold" font-size="30.0" fill="#000000" transform="matrix(1.00, 0.00, -0.00, -1.00, 147.8, 2.5)"> </text><text xml:space="preserve" font-family="Helvetica-Bold,Helvetica" font-weight="bold" font-size="30.0" fill="#000000" transform="matrix(1.00, 0.00, -0.00, -1.00, 156.2, 2.5)">a</text><text xml:space="preserve" font-family="Helvetica-Bold,Helvetica" font-weight="bold" font-size="30.0" fill="#000000" transform="matrix(1.00, 0.00, -0.00, -1.00, 172.8, 2.5)"> </text><text xml:space="preserve" font-family="Helvetica-Bold,Helvetica" font-weight="bold" font-size="30.0" fill="#000000" transform="matrix(1.00, 0.00, -0.00, -1.00, 181.2, 2.5)">C</text><text xml:space="preserve" font-family="Helvetica-Bold,Helvetica" font-weight="bold" font-size="30.0" fill="#000000" transform="matrix(1.00, 0.00, -0.00, -1.00, 202.8, 2.5)">o</text><text xml:space="preserve" font-family="Helvetica-Bold,Helvetica" font-weight="bold" font-size="30.0" fill="#000000" transform="matrix(1.00, 0.00, -0.00, -1.00, 221.1, 2.5)">n</text><text xml:space="preserve" font-family="Helvetica-Bold,Helvetica" font-weight="bold" font-size="30.0" fill="#000000" transform="matrix(1.00, 0.00, -0.00, -1.00, 239.5, 2.5)">ﬂ</text><text xml:space="preserve" font-family="Helvetica-Bold,Helvetica" font-weight="bold" font-size="30.0" fill="#000000" transform="matrix(1.00, 0.00, -0.00, -1.00, 257.8, 2.5)">i</text><text xml:space="preserve" font-family="Helvetica-Bold,Helvetica" font-weight="bold" font-size="30.0" fill="#000000" transform="matrix(1.00, 0.00, -0.00, -1.00, 266.1, 2.5)">c</text><text xml:space="preserve" font-family="Helvetica-Bold,Helvetica" font-weight="bold" font-size="30.0" fill="#000000" transform="matrix(1.00, 0.00, -0.00, -1.00, 282.8, 2.5)">t</text></g></svg>