<?xml version="1.0" encoding="UTF-8" standalone="no"?><svg xmlns="http://www.w3.org/2000/svg" xmlns:xlink="http://www.w3.org/1999/xlink" clip-rule="evenodd" stroke-miterlimit="10" viewBox="0 0 220 21"><desc>SVG generated by Keynote</desc><defs></defs><g transform="matrix(1.00, 0.00, -0.00, -1.00, 0.0, 21.0)"><text xml:space="preserve" font-family="HelveticaNeue,Helvetica Neue" font-size="25.5" fill="#747373" transform="matrix(1.00, 0.00, -0.00, -1.00, 0.5, 1.3)">o</text><text xml:space="preserve" font-family="HelveticaNeue,Helvetica Neue" font-size="25.5" fill="#747373" transform="matrix(1.00, 0.00, -0.00, -1.00, 15.1, 1.3)">r</text><text xml:space="preserve" font-family="HelveticaNeue,Helvetica Neue" font-size="25.5" fill="#747373" transform="matrix(1.00, 0.00, -0.00, -1.00, 23.6, 1.3)"> </text><text xml:space="preserve" font-family="HelveticaNeue,Helvetica Neue" font-size="25.5" fill="#747373" transform="matrix(1.00, 0.00, -0.00, -1.00, 30.7, 1.3)">c</text><text xml:space="preserve" font-family="HelveticaNeue,Helvetica Neue" font-size="25.5" fill="#747373" transform="matrix(1.00, 0.00, -0.00, -1.00, 44.4, 1.3)">o</text><text xml:space="preserve" font-family="HelveticaNeue,Helvetica Neue" font-size="25.5" fill="#747373" transform="matrix(1.00, 0.00, -0.00, -1.00, 59.0, 1.3)">u</text><text xml:space="preserve" font-family="HelveticaNeue,Helvetica Neue" font-size="25.5" fill="#747373" transform="matrix(1.00, 0.00, -0.00, -1.00, 73.1, 1.3)">r</text><text xml:space="preserve" font-family="HelveticaNeue,Helvetica Neue" font-size="25.5" fill="#747373" transform="matrix(1.00, 0.00, -0.00, -1.00, 81.6, 1.3)">s</text><text xml:space="preserve" font-family="HelveticaNeue,Helvetica Neue" font-size="25.5" fill="#747373" transform="matrix(1.00, 0.00, -0.00, -1.00, 94.4, 1.3)">e</text><text xml:space="preserve" font-family="HelveticaNeue,Helvetica Neue" font-size="25.5" fill="#747373" transform="matrix(1.00, 0.00, -0.00, -1.00, 108.1, 1.3)"> </text><text xml:space="preserve" font-family="HelveticaNeue,Helvetica Neue" font-size="25.5" fill="#747373" transform="matrix(1.00, 0.00, -0.00, -1.00, 115.1, 1.3)">n</text><text xml:space="preserve" font-family="HelveticaNeue,Helvetica Neue" font-size="25.5" fill="#747373" transform="matrix(1.00, 0.00, -0.00, -1.00, 129.3, 1.3)">a</text><text xml:space="preserve" font-family="HelveticaNeue,Helvetica Neue" font-size="25.5" fill="#747373" transform="matrix(1.00, 0.00, -0.00, -1.00, 143.0, 1.3)">r</text><text xml:space="preserve" font-family="HelveticaNeue,Helvetica Neue" font-size="25.5" fill="#747373" transform="matrix(1.00, 0.00, -0.00, -1.00, 151.5, 1.3)">r</text><text xml:space="preserve" font-family="HelveticaNeue,Helvetica Neue" font-size="25.5" fill="#747373" transform="matrix(1.00, 0.00, -0.00, -1.00, 160.0, 1.3)">a</text><text xml:space="preserve" font-family="HelveticaNeue,Helvetica Neue" font-size="25.5" fill="#747373" transform="matrix(1.00, 0.00, -0.00, -1.00, 173.6, 1.3)">t</text><text xml:space="preserve" font-family="HelveticaNeue,Helvetica Neue" font-size="25.5" fill="#747373" transform="matrix(1.00, 0.00, -0.00, -1.00, 181.7, 1.3)">i</text><text xml:space="preserve" font-family="HelveticaNeue,Helvetica Neue" font-size="25.5" fill="#747373" transform="matrix(1.00, 0.00, -0.00, -1.00, 187.3, 1.3)">v</text><text xml:space="preserve" font-family="HelveticaNeue,Helvetica Neue" font-size="25.5" fill="#747373" transform="matrix(1.00, 0.00, -0.00, -1.00, 200.1, 1.3)">e</text><text xml:space="preserve" font-family="HelveticaNeue,Helvetica Neue" font-size="25.5" fill="#747373" transform="matrix(1.00, 0.00, -0.00, -1.00, 213.7, 1.3)">.</text></g></svg>