<?xml version="1.0" encoding="UTF-8" standalone="no"?><svg xmlns="http://www.w3.org/2000/svg" xmlns:xlink="http://www.w3.org/1999/xlink" clip-rule="evenodd" stroke-miterlimit="10" viewBox="0 0 159 26"><desc>SVG generated by Keynote</desc><defs></defs><g transform="matrix(1.00, 0.00, -0.00, -1.00, 0.0, 26.0)"><text xml:space="preserve" font-family="HelveticaNeue,Helvetica Neue" font-size="25.5" fill="#747373" transform="matrix(1.00, 0.00, -0.00, -1.00, -0.5, 6.1)">i</text><text xml:space="preserve" font-family="HelveticaNeue,Helvetica Neue" font-size="25.5" fill="#747373" transform="matrix(1.00, 0.00, -0.00, -1.00, 5.1, 6.1)">m</text><text xml:space="preserve" font-family="HelveticaNeue,Helvetica Neue" font-size="25.5" fill="#747373" transform="matrix(1.00, 0.00, -0.00, -1.00, 26.9, 6.1)">p</text><text xml:space="preserve" font-family="HelveticaNeue,Helvetica Neue" font-size="25.5" fill="#747373" transform="matrix(1.00, 0.00, -0.00, -1.00, 42.0, 6.1)">r</text><text xml:space="preserve" font-family="HelveticaNeue,Helvetica Neue" font-size="25.5" fill="#747373" transform="matrix(1.00, 0.00, -0.00, -1.00, 50.0, 6.1)">o</text><text xml:space="preserve" font-family="HelveticaNeue,Helvetica Neue" font-size="25.5" fill="#747373" transform="matrix(1.00, 0.00, -0.00, -1.00, 64.6, 6.1)">v</text><text xml:space="preserve" font-family="HelveticaNeue,Helvetica Neue" font-size="25.5" fill="#747373" transform="matrix(1.00, 0.00, -0.00, -1.00, 77.4, 6.1)">i</text><text xml:space="preserve" font-family="HelveticaNeue,Helvetica Neue" font-size="25.5" fill="#747373" transform="matrix(1.00, 0.00, -0.00, -1.00, 83.0, 6.1)">s</text><text xml:space="preserve" font-family="HelveticaNeue,Helvetica Neue" font-size="25.5" fill="#747373" transform="matrix(1.00, 0.00, -0.00, -1.00, 95.8, 6.1)">a</text><text xml:space="preserve" font-family="HelveticaNeue,Helvetica Neue" font-size="25.5" fill="#747373" transform="matrix(1.00, 0.00, -0.00, -1.00, 109.5, 6.1)">t</text><text xml:space="preserve" font-family="HelveticaNeue,Helvetica Neue" font-size="25.5" fill="#747373" transform="matrix(1.00, 0.00, -0.00, -1.00, 117.5, 6.1)">i</text><text xml:space="preserve" font-family="HelveticaNeue,Helvetica Neue" font-size="25.5" fill="#747373" transform="matrix(1.00, 0.00, -0.00, -1.00, 123.1, 6.1)">o</text><text xml:space="preserve" font-family="HelveticaNeue,Helvetica Neue" font-size="25.5" fill="#747373" transform="matrix(1.00, 0.00, -0.00, -1.00, 137.8, 6.1)">n</text><text xml:space="preserve" font-family="HelveticaNeue,Helvetica Neue" font-size="25.5" fill="#747373" transform="matrix(1.00, 0.00, -0.00, -1.00, 151.9, 6.1)">.</text></g></svg>