<?xml version="1.0" encoding="UTF-8" standalone="no"?><svg xmlns="http://www.w3.org/2000/svg" xmlns:xlink="http://www.w3.org/1999/xlink" clip-rule="evenodd" stroke-miterlimit="10" viewBox="0 0 342 28"><desc>SVG generated by Keynote</desc><defs></defs><g transform="matrix(1.00, 0.00, -0.00, -1.00, 0.0, 28.0)"><text xml:space="preserve" font-family="HelveticaNeue,Helvetica Neue" font-size="19.1" fill="#747373" transform="matrix(1.00, 0.00, -0.00, -1.00, 0.0, 9.2)">•</text><text xml:space="preserve" font-family="HelveticaNeue,Helvetica Neue" font-size="25.5" fill="#747373" transform="matrix(1.00, 0.00, -0.00, -1.00, 25.5, 7.1)">L</text><text xml:space="preserve" font-family="HelveticaNeue,Helvetica Neue" font-size="25.5" fill="#747373" transform="matrix(1.00, 0.00, -0.00, -1.00, 39.6, 7.1)">o</text><text xml:space="preserve" font-family="HelveticaNeue,Helvetica Neue" font-size="25.5" fill="#747373" transform="matrix(1.00, 0.00, -0.00, -1.00, 54.3, 7.1)">n</text><text xml:space="preserve" font-family="HelveticaNeue,Helvetica Neue" font-size="25.5" fill="#747373" transform="matrix(1.00, 0.00, -0.00, -1.00, 68.4, 7.1)">g</text><text xml:space="preserve" font-family="HelveticaNeue,Helvetica Neue" font-size="25.5" fill="#747373" transform="matrix(1.00, 0.00, -0.00, -1.00, 83.1, 7.1)">e</text><text xml:space="preserve" font-family="HelveticaNeue,Helvetica Neue" font-size="25.5" fill="#747373" transform="matrix(1.00, 0.00, -0.00, -1.00, 96.7, 7.1)">r</text><text xml:space="preserve" font-family="HelveticaNeue,Helvetica Neue" font-size="25.5" fill="#747373" transform="matrix(1.00, 0.00, -0.00, -1.00, 105.2, 7.1)"> </text><text xml:space="preserve" font-family="HelveticaNeue,Helvetica Neue" font-size="25.5" fill="#747373" transform="matrix(1.00, 0.00, -0.00, -1.00, 112.3, 7.1)">m</text><text xml:space="preserve" font-family="HelveticaNeue,Helvetica Neue" font-size="25.5" fill="#747373" transform="matrix(1.00, 0.00, -0.00, -1.00, 134.1, 7.1)">u</text><text xml:space="preserve" font-family="HelveticaNeue,Helvetica Neue" font-size="25.5" fill="#747373" transform="matrix(1.00, 0.00, -0.00, -1.00, 148.2, 7.1)">l</text><text xml:space="preserve" font-family="HelveticaNeue,Helvetica Neue" font-size="25.5" fill="#747373" transform="matrix(1.00, 0.00, -0.00, -1.00, 153.9, 7.1)">t</text><text xml:space="preserve" font-family="HelveticaNeue,Helvetica Neue" font-size="25.5" fill="#747373" transform="matrix(1.00, 0.00, -0.00, -1.00, 161.9, 7.1)">i</text><text xml:space="preserve" font-family="HelveticaNeue,Helvetica Neue" font-size="25.5" fill="#747373" transform="matrix(1.00, 0.00, -0.00, -1.00, 167.6, 7.1)">s</text><text xml:space="preserve" font-family="HelveticaNeue,Helvetica Neue" font-size="25.5" fill="#747373" transform="matrix(1.00, 0.00, -0.00, -1.00, 180.3, 7.1)">t</text><text xml:space="preserve" font-family="HelveticaNeue,Helvetica Neue" font-size="25.5" fill="#747373" transform="matrix(1.00, 0.00, -0.00, -1.00, 188.3, 7.1)">e</text><text xml:space="preserve" font-family="HelveticaNeue,Helvetica Neue" font-size="25.5" fill="#747373" transform="matrix(1.00, 0.00, -0.00, -1.00, 202.0, 7.1)">p</text><text xml:space="preserve" font-family="HelveticaNeue,Helvetica Neue" font-size="25.5" fill="#747373" transform="matrix(1.00, 0.00, -0.00, -1.00, 217.1, 7.1)"> </text><text xml:space="preserve" font-family="HelveticaNeue,Helvetica Neue" font-size="25.5" fill="#747373" transform="matrix(1.00, 0.00, -0.00, -1.00, 224.2, 7.1)">p</text><text xml:space="preserve" font-family="HelveticaNeue,Helvetica Neue" font-size="25.5" fill="#747373" transform="matrix(1.00, 0.00, -0.00, -1.00, 239.3, 7.1)">r</text><text xml:space="preserve" font-family="HelveticaNeue,Helvetica Neue" font-size="25.5" fill="#747373" transform="matrix(1.00, 0.00, -0.00, -1.00, 247.3, 7.1)">o</text><text xml:space="preserve" font-family="HelveticaNeue,Helvetica Neue" font-size="25.5" fill="#747373" transform="matrix(1.00, 0.00, -0.00, -1.00, 262.0, 7.1)">c</text><text xml:space="preserve" font-family="HelveticaNeue,Helvetica Neue" font-size="25.5" fill="#747373" transform="matrix(1.00, 0.00, -0.00, -1.00, 275.6, 7.1)">e</text><text xml:space="preserve" font-family="HelveticaNeue,Helvetica Neue" font-size="25.5" fill="#747373" transform="matrix(1.00, 0.00, -0.00, -1.00, 289.3, 7.1)">s</text><text xml:space="preserve" font-family="HelveticaNeue,Helvetica Neue" font-size="25.5" fill="#747373" transform="matrix(1.00, 0.00, -0.00, -1.00, 302.1, 7.1)">s</text><text xml:space="preserve" font-family="HelveticaNeue,Helvetica Neue" font-size="25.5" fill="#747373" transform="matrix(1.00, 0.00, -0.00, -1.00, 314.8, 7.1)">e</text><text xml:space="preserve" font-family="HelveticaNeue,Helvetica Neue" font-size="25.5" fill="#747373" transform="matrix(1.00, 0.00, -0.00, -1.00, 328.5, 7.1)">s</text></g></svg>