<?xml version="1.0" encoding="UTF-8" standalone="no"?><svg xmlns="http://www.w3.org/2000/svg" xmlns:xlink="http://www.w3.org/1999/xlink" clip-rule="evenodd" stroke-miterlimit="10" viewBox="0 0 166 27"><desc>SVG generated by Keynote</desc><defs></defs><g transform="matrix(1.00, 0.00, -0.00, -1.00, 0.0, 27.0)"><text xml:space="preserve" font-family="HelveticaNeue-Bold,Helvetica Neue" font-weight="bold" font-size="26.0" fill="#747373" transform="matrix(1.00, 0.00, -0.00, -1.00, 1.0, 6.3)">2</text><text xml:space="preserve" font-family="HelveticaNeue-Bold,Helvetica Neue" font-weight="bold" font-size="26.0" fill="#747373" transform="matrix(1.00, 0.00, -0.00, -1.00, 15.5, 6.3)">0</text><text xml:space="preserve" font-family="HelveticaNeue-Bold,Helvetica Neue" font-weight="bold" font-size="26.0" fill="#747373" transform="matrix(1.00, 0.00, -0.00, -1.00, 29.9, 6.3)">t</text><text xml:space="preserve" font-family="HelveticaNeue-Bold,Helvetica Neue" font-weight="bold" font-size="26.0" fill="#747373" transform="matrix(1.00, 0.00, -0.00, -1.00, 39.1, 6.3)">h</text><text xml:space="preserve" font-family="HelveticaNeue-Bold,Helvetica Neue" font-weight="bold" font-size="26.0" fill="#747373" transform="matrix(1.00, 0.00, -0.00, -1.00, 54.5, 6.3)"> </text><text xml:space="preserve" font-family="HelveticaNeue-Bold,Helvetica Neue" font-weight="bold" font-size="26.0" fill="#747373" transform="matrix(1.00, 0.00, -0.00, -1.00, 61.7, 6.3)">C</text><text xml:space="preserve" font-family="HelveticaNeue-Bold,Helvetica Neue" font-weight="bold" font-size="26.0" fill="#747373" transform="matrix(1.00, 0.00, -0.00, -1.00, 81.0, 6.3)">e</text><text xml:space="preserve" font-family="HelveticaNeue-Bold,Helvetica Neue" font-weight="bold" font-size="26.0" fill="#747373" transform="matrix(1.00, 0.00, -0.00, -1.00, 95.9, 6.3)">n</text><text xml:space="preserve" font-family="HelveticaNeue-Bold,Helvetica Neue" font-weight="bold" font-size="26.0" fill="#747373" transform="matrix(1.00, 0.00, -0.00, -1.00, 111.3, 6.3)">t</text><text xml:space="preserve" font-family="HelveticaNeue-Bold,Helvetica Neue" font-weight="bold" font-size="26.0" fill="#747373" transform="matrix(1.00, 0.00, -0.00, -1.00, 120.5, 6.3)">u</text><text xml:space="preserve" font-family="HelveticaNeue-Bold,Helvetica Neue" font-weight="bold" font-size="26.0" fill="#747373" transform="matrix(1.00, 0.00, -0.00, -1.00, 135.9, 6.3)">r</text><text xml:space="preserve" font-family="HelveticaNeue-Bold,Helvetica Neue" font-weight="bold" font-size="26.0" fill="#747373" transform="matrix(1.00, 0.00, -0.00, -1.00, 146.0, 6.3)">y</text><text xml:space="preserve" font-family="HelveticaNeue,Helvetica Neue" font-size="26.0" fill="#747373" transform="matrix(1.00, 0.00, -0.00, -1.00, 159.5, 6.3)">.</text></g></svg>