<?xml version="1.0" encoding="UTF-8" standalone="no"?><svg xmlns="http://www.w3.org/2000/svg" xmlns:xlink="http://www.w3.org/1999/xlink" clip-rule="evenodd" stroke-miterlimit="10" viewBox="0 0 350 29"><desc>SVG generated by Keynote</desc><defs></defs><g transform="matrix(1.00, 0.00, -0.00, -1.00, 0.0, 29.0)"><text xml:space="preserve" font-family="HelveticaNeue,Helvetica Neue" font-size="19.5" fill="#747373" transform="matrix(1.00, 0.00, -0.00, -1.00, 0.0, 9.8)">•</text><text xml:space="preserve" font-family="HelveticaNeue,Helvetica Neue" font-size="26.0" fill="#747373" transform="matrix(1.00, 0.00, -0.00, -1.00, 26.0, 7.3)">D</text><text xml:space="preserve" font-family="HelveticaNeue,Helvetica Neue" font-size="26.0" fill="#747373" transform="matrix(1.00, 0.00, -0.00, -1.00, 44.3, 7.3)">e</text><text xml:space="preserve" font-family="HelveticaNeue,Helvetica Neue" font-size="26.0" fill="#747373" transform="matrix(1.00, 0.00, -0.00, -1.00, 58.3, 7.3)">l</text><text xml:space="preserve" font-family="HelveticaNeue,Helvetica Neue" font-size="26.0" fill="#747373" transform="matrix(1.00, 0.00, -0.00, -1.00, 64.0, 7.3)">i</text><text xml:space="preserve" font-family="HelveticaNeue,Helvetica Neue" font-size="26.0" fill="#747373" transform="matrix(1.00, 0.00, -0.00, -1.00, 69.8, 7.3)">v</text><text xml:space="preserve" font-family="HelveticaNeue,Helvetica Neue" font-size="26.0" fill="#747373" transform="matrix(1.00, 0.00, -0.00, -1.00, 82.8, 7.3)">e</text><text xml:space="preserve" font-family="HelveticaNeue,Helvetica Neue" font-size="26.0" fill="#747373" transform="matrix(1.00, 0.00, -0.00, -1.00, 96.8, 7.3)">r</text><text xml:space="preserve" font-family="HelveticaNeue,Helvetica Neue" font-size="26.0" fill="#747373" transform="matrix(1.00, 0.00, -0.00, -1.00, 105.4, 7.3)">a</text><text xml:space="preserve" font-family="HelveticaNeue,Helvetica Neue" font-size="26.0" fill="#747373" transform="matrix(1.00, 0.00, -0.00, -1.00, 119.4, 7.3)">b</text><text xml:space="preserve" font-family="HelveticaNeue,Helvetica Neue" font-size="26.0" fill="#747373" transform="matrix(1.00, 0.00, -0.00, -1.00, 134.8, 7.3)">l</text><text xml:space="preserve" font-family="HelveticaNeue,Helvetica Neue" font-size="26.0" fill="#747373" transform="matrix(1.00, 0.00, -0.00, -1.00, 140.6, 7.3)">e</text><text xml:space="preserve" font-family="HelveticaNeue,Helvetica Neue" font-size="26.0" fill="#747373" transform="matrix(1.00, 0.00, -0.00, -1.00, 154.5, 7.3)"> </text><text xml:space="preserve" font-family="HelveticaNeue,Helvetica Neue" font-size="26.0" fill="#747373" transform="matrix(1.00, 0.00, -0.00, -1.00, 161.8, 7.3)">f</text><text xml:space="preserve" font-family="HelveticaNeue,Helvetica Neue" font-size="26.0" fill="#747373" transform="matrix(1.00, 0.00, -0.00, -1.00, 169.5, 7.3)">o</text><text xml:space="preserve" font-family="HelveticaNeue,Helvetica Neue" font-size="26.0" fill="#747373" transform="matrix(1.00, 0.00, -0.00, -1.00, 184.4, 7.3)">r</text><text xml:space="preserve" font-family="HelveticaNeue,Helvetica Neue" font-size="26.0" fill="#747373" transform="matrix(1.00, 0.00, -0.00, -1.00, 193.1, 7.3)">m</text><text xml:space="preserve" font-family="HelveticaNeue,Helvetica Neue" font-size="26.0" fill="#747373" transform="matrix(1.00, 0.00, -0.00, -1.00, 215.2, 7.3)">a</text><text xml:space="preserve" font-family="HelveticaNeue,Helvetica Neue" font-size="26.0" fill="#747373" transform="matrix(1.00, 0.00, -0.00, -1.00, 229.2, 7.3)">t</text><text xml:space="preserve" font-family="HelveticaNeue,Helvetica Neue" font-size="26.0" fill="#747373" transform="matrix(1.00, 0.00, -0.00, -1.00, 237.4, 7.3)"> </text><text xml:space="preserve" font-family="HelveticaNeue,Helvetica Neue" font-size="26.0" fill="#747373" transform="matrix(1.00, 0.00, -0.00, -1.00, 244.6, 7.3)">a</text><text xml:space="preserve" font-family="HelveticaNeue,Helvetica Neue" font-size="26.0" fill="#747373" transform="matrix(1.00, 0.00, -0.00, -1.00, 258.6, 7.3)">g</text><text xml:space="preserve" font-family="HelveticaNeue,Helvetica Neue" font-size="26.0" fill="#747373" transform="matrix(1.00, 0.00, -0.00, -1.00, 273.5, 7.3)">n</text><text xml:space="preserve" font-family="HelveticaNeue,Helvetica Neue" font-size="26.0" fill="#747373" transform="matrix(1.00, 0.00, -0.00, -1.00, 287.9, 7.3)">o</text><text xml:space="preserve" font-family="HelveticaNeue,Helvetica Neue" font-size="26.0" fill="#747373" transform="matrix(1.00, 0.00, -0.00, -1.00, 302.9, 7.3)">s</text><text xml:space="preserve" font-family="HelveticaNeue,Helvetica Neue" font-size="26.0" fill="#747373" transform="matrix(1.00, 0.00, -0.00, -1.00, 315.9, 7.3)">t</text><text xml:space="preserve" font-family="HelveticaNeue,Helvetica Neue" font-size="26.0" fill="#747373" transform="matrix(1.00, 0.00, -0.00, -1.00, 324.1, 7.3)">i</text><text xml:space="preserve" font-family="HelveticaNeue,Helvetica Neue" font-size="26.0" fill="#747373" transform="matrix(1.00, 0.00, -0.00, -1.00, 329.8, 7.3)">c</text><text xml:space="preserve" font-family="HelveticaNeue,Helvetica Neue" font-size="26.0" fill="#747373" transform="matrix(1.00, 0.00, -0.00, -1.00, 343.8, 7.3)">,</text></g></svg>