<?xml version="1.0" encoding="UTF-8" standalone="no"?><svg xmlns="http://www.w3.org/2000/svg" xmlns:xlink="http://www.w3.org/1999/xlink" clip-rule="evenodd" stroke-miterlimit="10" viewBox="0 0 573 41"><desc>SVG generated by Keynote</desc><defs></defs><g transform="matrix(1.00, 0.00, -0.00, -1.00, 0.0, 41.0)"><text xml:space="preserve" font-family="HelveticaNeue-Light,Helvetica Neue" font-size="42.0" fill="#000000" transform="matrix(1.00, 0.00, -0.00, -1.00, -2.0, 9.2)">E</text><text xml:space="preserve" font-family="HelveticaNeue-Light,Helvetica Neue" font-size="42.0" fill="#000000" transform="matrix(1.00, 0.00, -0.00, -1.00, 22.9, 9.2)">x</text><text xml:space="preserve" font-family="HelveticaNeue-Light,Helvetica Neue" font-size="42.0" fill="#000000" transform="matrix(1.00, 0.00, -0.00, -1.00, 43.1, 9.2)">a</text><text xml:space="preserve" font-family="HelveticaNeue-Light,Helvetica Neue" font-size="42.0" fill="#000000" transform="matrix(1.00, 0.00, -0.00, -1.00, 64.9, 9.2)">m</text><text xml:space="preserve" font-family="HelveticaNeue-Light,Helvetica Neue" font-size="42.0" fill="#000000" transform="matrix(1.00, 0.00, -0.00, -1.00, 99.9, 9.2)">p</text><text xml:space="preserve" font-family="HelveticaNeue-Light,Helvetica Neue" font-size="42.0" fill="#000000" transform="matrix(1.00, 0.00, -0.00, -1.00, 124.0, 9.2)">l</text><text xml:space="preserve" font-family="HelveticaNeue-Light,Helvetica Neue" font-size="42.0" fill="#000000" transform="matrix(1.00, 0.00, -0.00, -1.00, 131.8, 9.2)">e</text><text xml:space="preserve" font-family="HelveticaNeue-Light,Helvetica Neue" font-size="42.0" fill="#000000" transform="matrix(1.00, 0.00, -0.00, -1.00, 153.6, 9.2)"> </text><text xml:space="preserve" font-family="HelveticaNeue-Light,Helvetica Neue" font-size="42.0" fill="#000000" transform="matrix(1.00, 0.00, -0.00, -1.00, 165.2, 9.2)">R</text><text xml:space="preserve" font-family="HelveticaNeue-Light,Helvetica Neue" font-size="42.0" fill="#000000" transform="matrix(1.00, 0.00, -0.00, -1.00, 193.3, 9.2)">u</text><text xml:space="preserve" font-family="HelveticaNeue-Light,Helvetica Neue" font-size="42.0" fill="#000000" transform="matrix(1.00, 0.00, -0.00, -1.00, 215.8, 9.2)">b</text><text xml:space="preserve" font-family="HelveticaNeue-Light,Helvetica Neue" font-size="42.0" fill="#000000" transform="matrix(1.00, 0.00, -0.00, -1.00, 239.9, 9.2)">r</text><text xml:space="preserve" font-family="HelveticaNeue-Light,Helvetica Neue" font-size="42.0" fill="#000000" transform="matrix(1.00, 0.00, -0.00, -1.00, 253.2, 9.2)">i</text><text xml:space="preserve" font-family="HelveticaNeue-Light,Helvetica Neue" font-size="42.0" fill="#000000" transform="matrix(1.00, 0.00, -0.00, -1.00, 260.9, 9.2)">c</text><text xml:space="preserve" font-family="HelveticaNeue-Light,Helvetica Neue" font-size="42.0" fill="#000000" transform="matrix(1.00, 0.00, -0.00, -1.00, 282.7, 9.2)">:</text><text xml:space="preserve" font-family="HelveticaNeue-Light,Helvetica Neue" font-size="42.0" fill="#000000" transform="matrix(1.00, 0.00, -0.00, -1.00, 294.4, 9.2)"> </text><text xml:space="preserve" font-family="HelveticaNeue-Light,Helvetica Neue" font-size="42.0" fill="#000000" transform="matrix(1.00, 0.00, -0.00, -1.00, 306.1, 9.2)">B</text><text xml:space="preserve" font-family="HelveticaNeue-Light,Helvetica Neue" font-size="42.0" fill="#000000" transform="matrix(1.00, 0.00, -0.00, -1.00, 334.1, 9.2)">a</text><text xml:space="preserve" font-family="HelveticaNeue-Light,Helvetica Neue" font-size="42.0" fill="#000000" transform="matrix(1.00, 0.00, -0.00, -1.00, 355.9, 9.2)">s</text><text xml:space="preserve" font-family="HelveticaNeue-Light,Helvetica Neue" font-size="42.0" fill="#000000" transform="matrix(1.00, 0.00, -0.00, -1.00, 376.1, 9.2)">e</text><text xml:space="preserve" font-family="HelveticaNeue-Light,Helvetica Neue" font-size="42.0" fill="#000000" transform="matrix(1.00, 0.00, -0.00, -1.00, 397.9, 9.2)"> </text><text xml:space="preserve" font-family="HelveticaNeue-Light,Helvetica Neue" font-size="42.0" fill="#000000" transform="matrix(1.00, 0.00, -0.00, -1.00, 409.6, 9.2)">T</text><text xml:space="preserve" font-family="HelveticaNeue-Light,Helvetica Neue" font-size="42.0" fill="#000000" transform="matrix(1.00, 0.00, -0.00, -1.00, 428.2, 9.2)">e</text><text xml:space="preserve" font-family="HelveticaNeue-Light,Helvetica Neue" font-size="42.0" fill="#000000" transform="matrix(1.00, 0.00, -0.00, -1.00, 450.0, 9.2)">m</text><text xml:space="preserve" font-family="HelveticaNeue-Light,Helvetica Neue" font-size="42.0" fill="#000000" transform="matrix(1.00, 0.00, -0.00, -1.00, 485.0, 9.2)">p</text><text xml:space="preserve" font-family="HelveticaNeue-Light,Helvetica Neue" font-size="42.0" fill="#000000" transform="matrix(1.00, 0.00, -0.00, -1.00, 509.1, 9.2)">l</text><text xml:space="preserve" font-family="HelveticaNeue-Light,Helvetica Neue" font-size="42.0" fill="#000000" transform="matrix(1.00, 0.00, -0.00, -1.00, 516.9, 9.2)">a</text><text xml:space="preserve" font-family="HelveticaNeue-Light,Helvetica Neue" font-size="42.0" fill="#000000" transform="matrix(1.00, 0.00, -0.00, -1.00, 538.7, 9.2)">t</text><text xml:space="preserve" font-family="HelveticaNeue-Light,Helvetica Neue" font-size="42.0" fill="#000000" transform="matrix(1.00, 0.00, -0.00, -1.00, 551.1, 9.2)">e</text></g></svg>