<?xml version="1.0" encoding="UTF-8" standalone="no"?><svg xmlns="http://www.w3.org/2000/svg" xmlns:xlink="http://www.w3.org/1999/xlink" clip-rule="evenodd" stroke-miterlimit="10" viewBox="0 0 330 43"><desc>SVG generated by Keynote</desc><defs></defs><g transform="matrix(1.00, 0.00, -0.00, -1.00, 0.0, 43.0)"><text xml:space="preserve" font-family="Helvetica,Helvetica" font-size="42.0" fill="#000000" transform="matrix(1.00, 0.00, -0.00, -1.00, -0.2, 11.2)">h</text><text xml:space="preserve" font-family="Helvetica,Helvetica" font-size="42.0" fill="#000000" transform="matrix(1.00, 0.00, -0.00, -1.00, 23.2, 11.2)">a</text><text xml:space="preserve" font-family="Helvetica,Helvetica" font-size="42.0" fill="#000000" transform="matrix(1.00, 0.00, -0.00, -1.00, 46.6, 11.2)">c</text><text xml:space="preserve" font-family="Helvetica,Helvetica" font-size="42.0" fill="#000000" transform="matrix(1.00, 0.00, -0.00, -1.00, 67.6, 11.2)">k</text><text xml:space="preserve" font-family="Helvetica,Helvetica" font-size="42.0" fill="#000000" transform="matrix(1.00, 0.00, -0.00, -1.00, 88.6, 11.2)">e</text><text xml:space="preserve" font-family="Helvetica,Helvetica" font-size="42.0" fill="#000000" transform="matrix(1.00, 0.00, -0.00, -1.00, 111.9, 11.2)">r</text><text xml:space="preserve" font-family="Helvetica,Helvetica" font-size="42.0" fill="#000000" transform="matrix(1.00, 0.00, -0.00, -1.00, 125.9, 11.2)">s</text><text xml:space="preserve" font-family="Helvetica,Helvetica" font-size="42.0" fill="#000000" transform="matrix(1.00, 0.00, -0.00, -1.00, 146.9, 11.2)">p</text><text xml:space="preserve" font-family="Helvetica,Helvetica" font-size="42.0" fill="#000000" transform="matrix(1.00, 0.00, -0.00, -1.00, 170.3, 11.2)">a</text><text xml:space="preserve" font-family="Helvetica,Helvetica" font-size="42.0" fill="#000000" transform="matrix(1.00, 0.00, -0.00, -1.00, 193.7, 11.2)">c</text><text xml:space="preserve" font-family="Helvetica,Helvetica" font-size="42.0" fill="#000000" transform="matrix(1.00, 0.00, -0.00, -1.00, 214.7, 11.2)">e</text><text xml:space="preserve" font-family="Helvetica,Helvetica" font-size="42.0" fill="#000000" transform="matrix(1.00, 0.00, -0.00, -1.00, 238.0, 11.2)">s</text><text xml:space="preserve" font-family="Helvetica,Helvetica" font-size="42.0" fill="#000000" transform="matrix(1.00, 0.00, -0.00, -1.00, 259.0, 11.2)">.</text><text xml:space="preserve" font-family="Helvetica,Helvetica" font-size="42.0" fill="#000000" transform="matrix(1.00, 0.00, -0.00, -1.00, 270.7, 11.2)">o</text><text xml:space="preserve" font-family="Helvetica,Helvetica" font-size="42.0" fill="#000000" transform="matrix(1.00, 0.00, -0.00, -1.00, 294.0, 11.2)">r</text><text xml:space="preserve" font-family="Helvetica,Helvetica" font-size="42.0" fill="#000000" transform="matrix(1.00, 0.00, -0.00, -1.00, 308.0, 11.2)">g</text></g></svg>