<?xml version="1.0" encoding="UTF-8" standalone="no"?><svg xmlns="http://www.w3.org/2000/svg" xmlns:xlink="http://www.w3.org/1999/xlink" clip-rule="evenodd" stroke-miterlimit="10" viewBox="0 0 154 22"><desc>SVG generated by Keynote</desc><defs></defs><g transform="matrix(1.00, 0.00, -0.00, -1.00, 0.0, 22.0)"><text xml:space="preserve" font-family="HelveticaNeue,Helvetica Neue" font-size="26.0" fill="#747373" transform="matrix(1.00, 0.00, -0.00, -1.00, 0.0, 2.3)">b</text><text xml:space="preserve" font-family="HelveticaNeue,Helvetica Neue" font-size="26.0" fill="#747373" transform="matrix(1.00, 0.00, -0.00, -1.00, 15.4, 2.3)">r</text><text xml:space="preserve" font-family="HelveticaNeue,Helvetica Neue" font-size="26.0" fill="#747373" transform="matrix(1.00, 0.00, -0.00, -1.00, 23.6, 2.3)">e</text><text xml:space="preserve" font-family="HelveticaNeue,Helvetica Neue" font-size="26.0" fill="#747373" transform="matrix(1.00, 0.00, -0.00, -1.00, 37.6, 2.3)">a</text><text xml:space="preserve" font-family="HelveticaNeue,Helvetica Neue" font-size="26.0" fill="#747373" transform="matrix(1.00, 0.00, -0.00, -1.00, 51.5, 2.3)">d</text><text xml:space="preserve" font-family="HelveticaNeue,Helvetica Neue" font-size="26.0" fill="#747373" transform="matrix(1.00, 0.00, -0.00, -1.00, 66.9, 2.3)">b</text><text xml:space="preserve" font-family="HelveticaNeue,Helvetica Neue" font-size="26.0" fill="#747373" transform="matrix(1.00, 0.00, -0.00, -1.00, 82.4, 2.3)">o</text><text xml:space="preserve" font-family="HelveticaNeue,Helvetica Neue" font-size="26.0" fill="#747373" transform="matrix(1.00, 0.00, -0.00, -1.00, 97.3, 2.3)">a</text><text xml:space="preserve" font-family="HelveticaNeue,Helvetica Neue" font-size="26.0" fill="#747373" transform="matrix(1.00, 0.00, -0.00, -1.00, 111.3, 2.3)">r</text><text xml:space="preserve" font-family="HelveticaNeue,Helvetica Neue" font-size="26.0" fill="#747373" transform="matrix(1.00, 0.00, -0.00, -1.00, 119.4, 2.3)">d</text><text xml:space="preserve" font-family="HelveticaNeue,Helvetica Neue" font-size="26.0" fill="#747373" transform="matrix(1.00, 0.00, -0.00, -1.00, 134.9, 2.3)">s</text><text xml:space="preserve" font-family="HelveticaNeue,Helvetica Neue" font-size="26.0" fill="#747373" transform="matrix(1.00, 0.00, -0.00, -1.00, 147.9, 2.3)">.</text></g></svg>